<ttFont>
    <TTGlyph name=".notdef" xMin="0" yMin="0" xMax="500" yMax="700">
      <contour>
        <pt x="0" y="700" on="1"/>
        <pt x="500" y="700" on="1"/>
        <pt x="500" y="0" on="1"/>
        <pt x="0" y="0" on="1"/>
      </contour>
      <contour>
        <pt x="50" y="650" on="1"/>
        <pt x="50" y="50" on="1"/>
        <pt x="450" y="50" on="1"/>
        <pt x="450" y="650" on="1"/>
      </contour>
      <contour>
        <pt x="229" y="278" on="1"/>
        <pt x="229" y="307" on="0"/>
        <pt x="256" y="345" on="0"/>
        <pt x="283" y="367" on="1"/>
        <pt x="311" y="390" on="0"/>
        <pt x="339" y="431" on="0"/>
        <pt x="339" y="465" on="1"/>
        <pt x="339" y="496" on="0"/>
        <pt x="301" y="552" on="0"/>
        <pt x="250" y="552" on="1"/>
        <pt x="192" y="552" on="0"/>
        <pt x="152" y="485" on="0"/>
        <pt x="152" y="452" on="1"/>
        <pt x="152" y="424" on="1"/>
        <pt x="103" y="424" on="1"/>
        <pt x="99" y="438" on="0"/>
        <pt x="99" y="455" on="1"/>
        <pt x="99" y="478" on="0"/>
        <pt x="120" y="544" on="0"/>
        <pt x="187" y="602" on="0"/>
        <pt x="250" y="602" on="1"/>
        <pt x="313" y="602" on="0"/>
        <pt x="376" y="546" on="0"/>
        <pt x="393" y="486" on="0"/>
        <pt x="393" y="467" on="1"/>
        <pt x="393" y="422" on="0"/>
        <pt x="356" y="364" on="0"/>
        <pt x="326" y="338" on="1"/>
        <pt x="304" y="320" on="0"/>
        <pt x="282" y="290" on="0"/>
        <pt x="282" y="268" on="1"/>
        <pt x="282" y="215" on="1"/>
        <pt x="229" y="215" on="1"/>
      </contour>
      <contour>
        <pt x="225" y="169" on="1"/>
        <pt x="285" y="169" on="1"/>
        <pt x="285" y="99" on="1"/>
        <pt x="225" y="99" on="1"/>
      </contour>
    </TTGlyph>
    <TTGlyph name="A" xMin="24" yMin="0" xMax="469" yMax="688">
      <contour>
        <pt x="362" y="212" on="1"/>
        <pt x="130" y="212" on="1"/>
        <pt x="71" y="0" on="1"/>
        <pt x="24" y="0" on="1"/>
        <pt x="220" y="688" on="1"/>
        <pt x="274" y="688" on="1"/>
        <pt x="469" y="0" on="1"/>
        <pt x="422" y="0" on="1"/>
      </contour>
      <contour>
        <pt x="243" y="617" on="1"/>
        <pt x="141" y="254" on="1"/>
        <pt x="350" y="254" on="1"/>
        <pt x="248" y="617" on="1"/>
      </contour>
    </TTGlyph>
    <TTGlyph name="A.ss01" xMin="72" yMin="0" xMax="447" yMax="696">
      <contour>
        <pt x="401" y="267" on="1"/>
        <pt x="118" y="267" on="1"/>
        <pt x="118" y="0" on="1"/>
        <pt x="72" y="0" on="1"/>
        <pt x="72" y="393" on="1"/>
        <pt x="72" y="525" on="0"/>
        <pt x="95" y="645" on="0"/>
        <pt x="173" y="696" on="0"/>
        <pt x="260" y="696" on="1"/>
        <pt x="347" y="696" on="0"/>
        <pt x="424" y="645" on="0"/>
        <pt x="447" y="525" on="0"/>
        <pt x="447" y="393" on="1"/>
        <pt x="447" y="0" on="1"/>
        <pt x="401" y="0" on="1"/>
      </contour>
      <contour>
        <pt x="401" y="527" on="0"/>
        <pt x="385" y="617" on="0"/>
        <pt x="327" y="654" on="0"/>
        <pt x="260" y="654" on="1"/>
        <pt x="192" y="654" on="0"/>
        <pt x="134" y="617" on="0"/>
        <pt x="118" y="527" on="0"/>
        <pt x="118" y="424" on="1"/>
        <pt x="118" y="309" on="1"/>
        <pt x="401" y="309" on="1"/>
        <pt x="401" y="424" on="1"/>
      </contour>
    </TTGlyph>
    <TTGlyph name="AE" xMin="-1" yMin="0" xMax="639" yMax="688">
      <contour>
        <pt x="355" y="212" on="1"/>
        <pt x="123" y="212" on="1"/>
        <pt x="45" y="0" on="1"/>
        <pt x="-1" y="0" on="1"/>
        <pt x="255" y="688" on="1"/>
        <pt x="639" y="688" on="1"/>
        <pt x="639" y="646" on="1"/>
        <pt x="317" y="646" on="1"/>
        <pt x="371" y="369" on="1"/>
        <pt x="605" y="369" on="1"/>
        <pt x="605" y="327" on="1"/>
        <pt x="379" y="327" on="1"/>
        <pt x="435" y="42" on="1"/>
        <pt x="639" y="42" on="1"/>
        <pt x="639" y="0" on="1"/>
        <pt x="396" y="0" on="1"/>
      </contour>
      <contour>
        <pt x="273" y="617" on="1"/>
        <pt x="138" y="254" on="1"/>
        <pt x="347" y="254" on="1"/>
        <pt x="278" y="617" on="1"/>
      </contour>
    </TTGlyph>
    <TTGlyph name="AEacute" xMin="-1" yMin="0" xMax="639" yMax="888">
      <component glyphName="AE" x="0" y="0" flags="0x0"/>
      <component glyphName="acutecomb.case" x="431" y="0" flags="0x0"/>
    </TTGlyph>
    <TTGlyph name="Aacute" xMin="24" yMin="0" xMax="469" yMax="889">
      <component glyphName="A" x="0" y="0" flags="0x0"/>
      <component glyphName="acute" x="217" y="146" flags="0x4"/>
    </TTGlyph>
    <TTGlyph name="Aacute.ss01" xMin="72" yMin="0" xMax="447" yMax="889">
      <component glyphName="A.ss01" x="0" y="0" flags="0x0"/>
      <component glyphName="acute" x="227" y="146" flags="0x4"/>
    </TTGlyph>
    <TTGlyph name="Abreve" xMin="24" yMin="0" xMax="469" yMax="888">
      <component glyphName="A" x="0" y="0" flags="0x0"/>
      <component glyphName="uni0306.case" x="359" y="0" flags="0x0"/>
    </TTGlyph>
    <TTGlyph name="Abreve.ss01" xMin="72" yMin="0" xMax="447" yMax="888">
      <component glyphName="A.ss01" x="0" y="0" flags="0x0"/>
      <component glyphName="uni0306.case" x="372" y="0" flags="0x0"/>
    </TTGlyph>
    <TTGlyph name="Acircumflex" xMin="24" yMin="0" xMax="469" yMax="888">
      <component glyphName="A" x="0" y="0" flags="0x0"/>
      <component glyphName="circumflex" x="134" y="145" flags="0x4"/>
    </TTGlyph>
    <TTGlyph name="Acircumflex.ss01" xMin="72" yMin="0" xMax="447" yMax="888">
      <component glyphName="A.ss01" x="0" y="0" flags="0x0"/>
      <component glyphName="circumflex" x="149" y="145" flags="0x4"/>
    </TTGlyph>
    <TTGlyph name="Adieresis" xMin="24" yMin="0" xMax="469" yMax="836">
      <component glyphName="A" x="0" y="0" flags="0x0"/>
      <component glyphName="dieresis" x="112" y="106" flags="0x4"/>
    </TTGlyph>
    <TTGlyph name="Adieresis.ss01" xMin="72" yMin="0" xMax="447" yMax="835">
      <component glyphName="A.ss01" x="0" y="0" flags="0x0"/>
      <component glyphName="dieresis" x="128" y="105" flags="0x4"/>
    </TTGlyph>
    <TTGlyph name="Agrave" xMin="24" yMin="0" xMax="469" yMax="889">
      <component glyphName="A" x="0" y="0" flags="0x0"/>
      <component glyphName="grave" x="157" y="146" flags="0x4"/>
    </TTGlyph>
    <TTGlyph name="Agrave.ss01" xMin="72" yMin="0" xMax="447" yMax="889">
      <component glyphName="A.ss01" x="0" y="0" flags="0x0"/>
      <component glyphName="grave" x="173" y="146" flags="0x4"/>
    </TTGlyph>
    <TTGlyph name="Amacron" xMin="24" yMin="0" xMax="469" yMax="888">
      <component glyphName="A" x="0" y="0" flags="0x0"/>
      <component glyphName="uni0304.case" x="400" y="0" flags="0x0"/>
    </TTGlyph>
    <TTGlyph name="Amacron.ss01" xMin="72" yMin="0" xMax="447" yMax="888">
      <component glyphName="A.ss01" x="0" y="0" flags="0x0"/>
      <component glyphName="uni0304.case" x="413" y="0" flags="0x0"/>
    </TTGlyph>
    <TTGlyph name="Aogonek" xMin="24" yMin="-196" xMax="469" yMax="688">
      <contour>
        <pt x="402" y="-160" on="0"/>
        <pt x="449" y="-160" on="1"/>
        <pt x="465" y="-159" on="1"/>
        <pt x="465" y="-195" on="1"/>
        <pt x="455" y="-196" on="0"/>
        <pt x="440" y="-196" on="1"/>
        <pt x="399" y="-196" on="0"/>
        <pt x="361" y="-156" on="0"/>
        <pt x="361" y="-123" on="1"/>
        <pt x="361" y="-93" on="0"/>
        <pt x="394" y="-25" on="0"/>
        <pt x="421" y="2" on="1"/>
        <pt x="362" y="212" on="1"/>
        <pt x="130" y="212" on="1"/>
        <pt x="71" y="0" on="1"/>
        <pt x="24" y="0" on="1"/>
        <pt x="220" y="688" on="1"/>
        <pt x="274" y="688" on="1"/>
        <pt x="469" y="0" on="1"/>
        <pt x="460" y="0" on="1"/>
        <pt x="438" y="-21" on="0"/>
        <pt x="402" y="-88" on="0"/>
        <pt x="402" y="-115" on="1"/>
      </contour>
      <contour>
        <pt x="350" y="254" on="1"/>
        <pt x="249" y="617" on="1"/>
        <pt x="244" y="617" on="1"/>
        <pt x="141" y="254" on="1"/>
      </contour>
    </TTGlyph>
    <TTGlyph name="Aogonek.ss01" xMin="72" yMin="-196" xMax="447" yMax="696">
      <contour>
        <pt x="419" y="-21" on="0"/>
        <pt x="383" y="-88" on="0"/>
        <pt x="383" y="-115" on="1"/>
        <pt x="383" y="-160" on="0"/>
        <pt x="430" y="-160" on="1"/>
        <pt x="446" y="-159" on="1"/>
        <pt x="446" y="-195" on="1"/>
        <pt x="436" y="-196" on="0"/>
        <pt x="421" y="-196" on="1"/>
        <pt x="380" y="-196" on="0"/>
        <pt x="342" y="-156" on="0"/>
        <pt x="342" y="-123" on="1"/>
        <pt x="342" y="-94" on="0"/>
        <pt x="375" y="-27" on="0"/>
        <pt x="401" y="1" on="1"/>
        <pt x="401" y="267" on="1"/>
        <pt x="118" y="267" on="1"/>
        <pt x="118" y="0" on="1"/>
        <pt x="72" y="0" on="1"/>
        <pt x="72" y="393" on="1"/>
        <pt x="72" y="525" on="0"/>
        <pt x="95" y="645" on="0"/>
        <pt x="173" y="696" on="0"/>
        <pt x="260" y="696" on="1"/>
        <pt x="347" y="696" on="0"/>
        <pt x="424" y="645" on="0"/>
        <pt x="447" y="525" on="0"/>
        <pt x="447" y="393" on="1"/>
        <pt x="447" y="0" on="1"/>
        <pt x="441" y="0" on="1"/>
      </contour>
      <contour>
        <pt x="401" y="309" on="1"/>
        <pt x="401" y="424" on="1"/>
        <pt x="401" y="527" on="0"/>
        <pt x="385" y="617" on="0"/>
        <pt x="327" y="654" on="0"/>
        <pt x="260" y="654" on="1"/>
        <pt x="192" y="654" on="0"/>
        <pt x="134" y="617" on="0"/>
        <pt x="118" y="527" on="0"/>
        <pt x="118" y="424" on="1"/>
        <pt x="118" y="309" on="1"/>
      </contour>
    </TTGlyph>
    <TTGlyph name="Aring" xMin="24" yMin="0" xMax="469" yMax="859">
      <contour>
        <pt x="469" y="0" on="1"/>
        <pt x="422" y="0" on="1"/>
        <pt x="362" y="212" on="1"/>
        <pt x="130" y="212" on="1"/>
        <pt x="71" y="0" on="1"/>
        <pt x="24" y="0" on="1"/>
        <pt x="217" y="679" on="1"/>
        <pt x="188" y="682" on="0"/>
        <pt x="161" y="702" on="0"/>
        <pt x="153" y="736" on="0"/>
        <pt x="153" y="769" on="1"/>
        <pt x="153" y="806" on="0"/>
        <pt x="164" y="842" on="0"/>
        <pt x="203" y="859" on="0"/>
        <pt x="246" y="859" on="1"/>
        <pt x="289" y="859" on="0"/>
        <pt x="329" y="842" on="0"/>
        <pt x="341" y="806" on="0"/>
        <pt x="341" y="769" on="1"/>
        <pt x="341" y="737" on="0"/>
        <pt x="333" y="702" on="0"/>
        <pt x="305" y="682" on="0"/>
        <pt x="277" y="680" on="1"/>
      </contour>
      <contour>
        <pt x="190" y="743" on="0"/>
        <pt x="196" y="720" on="0"/>
        <pt x="220" y="710" on="0"/>
        <pt x="246" y="710" on="1"/>
        <pt x="273" y="710" on="0"/>
        <pt x="297" y="720" on="0"/>
        <pt x="304" y="743" on="0"/>
        <pt x="304" y="769" on="1"/>
        <pt x="304" y="795" on="0"/>
        <pt x="297" y="818" on="0"/>
        <pt x="273" y="828" on="0"/>
        <pt x="246" y="828" on="1"/>
        <pt x="220" y="828" on="0"/>
        <pt x="196" y="818" on="0"/>
        <pt x="190" y="795" on="0"/>
        <pt x="190" y="769" on="1"/>
      </contour>
      <contour>
        <pt x="350" y="254" on="1"/>
        <pt x="248" y="617" on="1"/>
        <pt x="243" y="617" on="1"/>
        <pt x="141" y="254" on="1"/>
      </contour>
    </TTGlyph>
    <TTGlyph name="Aring.ss01" xMin="72" yMin="0" xMax="447" yMax="925">
      <component glyphName="A.ss01" x="0" y="0" flags="0x0"/>
      <component glyphName="ring" x="158" y="128" flags="0x4"/>
    </TTGlyph>
    <TTGlyph name="Aringacute" xMin="24" yMin="0" xMax="469" yMax="1059">
      <component glyphName="Aring" x="0" y="0" flags="0x0"/>
      <component glyphName="acutecomb.case" x="339" y="171" flags="0x4"/>
    </TTGlyph>
    <TTGlyph name="Aringacute.ss01" xMin="72" yMin="0" xMax="447" yMax="1082">
      <component glyphName="A.ss01" x="0" y="0" flags="0x0"/>
      <component glyphName="uni030A.case" x="362" y="0" flags="0x0"/>
      <component glyphName="acutecomb.case" x="355" y="194" flags="0x4"/>
    </TTGlyph>
    <TTGlyph name="Atilde" xMin="24" yMin="0" xMax="469" yMax="860">
      <component glyphName="A" x="0" y="0" flags="0x0"/>
      <component glyphName="tilde" x="106" y="117" flags="0x4"/>
    </TTGlyph>
    <TTGlyph name="Atilde.ss01" xMin="72" yMin="0" xMax="447" yMax="860">
      <component glyphName="A.ss01" x="0" y="0" flags="0x0"/>
      <component glyphName="tilde" x="120" y="117" flags="0x4"/>
    </TTGlyph>
    <TTGlyph name="B" xMin="78" yMin="0" xMax="440" yMax="688">
      <contour>
        <pt x="78" y="688" on="1"/>
        <pt x="279" y="688" on="1"/>
        <pt x="365" y="688" on="0"/>
        <pt x="434" y="599" on="0"/>
        <pt x="434" y="516" on="1"/>
        <pt x="434" y="447" on="0"/>
        <pt x="385" y="366" on="0"/>
        <pt x="331" y="354" on="1"/>
        <pt x="331" y="350" on="1"/>
        <pt x="395" y="338" on="0"/>
        <pt x="440" y="249" on="0"/>
        <pt x="440" y="180" on="1"/>
        <pt x="440" y="98" on="0"/>
        <pt x="371" y="0" on="0"/>
        <pt x="273" y="0" on="1"/>
        <pt x="78" y="0" on="1"/>
      </contour>
      <contour>
        <pt x="327" y="370" on="0"/>
        <pt x="388" y="440" on="0"/>
        <pt x="388" y="508" on="1"/>
        <pt x="388" y="583" on="0"/>
        <pt x="338" y="646" on="0"/>
        <pt x="270" y="646" on="1"/>
        <pt x="124" y="646" on="1"/>
        <pt x="124" y="370" on="1"/>
        <pt x="270" y="370" on="1"/>
      </contour>
      <contour>
        <pt x="340" y="42" on="0"/>
        <pt x="394" y="109" on="0"/>
        <pt x="394" y="185" on="1"/>
        <pt x="394" y="260" on="0"/>
        <pt x="337" y="328" on="0"/>
        <pt x="272" y="328" on="1"/>
        <pt x="124" y="328" on="1"/>
        <pt x="124" y="42" on="1"/>
        <pt x="272" y="42" on="1"/>
      </contour>
    </TTGlyph>
    <TTGlyph name="C" xMin="61" yMin="-8" xMax="366" yMax="696">
      <contour>
        <pt x="320" y="-8" on="0"/>
        <pt x="257" y="-8" on="1"/>
        <pt x="168" y="-8" on="0"/>
        <pt x="89" y="41" on="0"/>
        <pt x="61" y="184" on="0"/>
        <pt x="61" y="344" on="1"/>
        <pt x="61" y="502" on="0"/>
        <pt x="89" y="645" on="0"/>
        <pt x="169" y="696" on="0"/>
        <pt x="257" y="696" on="1"/>
        <pt x="285" y="696" on="0"/>
        <pt x="345" y="689" on="0"/>
        <pt x="363" y="683" on="1"/>
        <pt x="363" y="644" on="1"/>
        <pt x="316" y="654" on="0"/>
        <pt x="267" y="654" on="1"/>
        <pt x="190" y="654" on="0"/>
        <pt x="126" y="614" on="0"/>
        <pt x="106" y="492" on="0"/>
        <pt x="106" y="344" on="1"/>
        <pt x="106" y="196" on="0"/>
        <pt x="126" y="74" on="0"/>
        <pt x="190" y="34" on="0"/>
        <pt x="267" y="34" on="1"/>
        <pt x="321" y="34" on="0"/>
        <pt x="366" y="44" on="1"/>
        <pt x="366" y="3" on="1"/>
      </contour>
    </TTGlyph>
    <TTGlyph name="Cacute" xMin="61" yMin="-8" xMax="366" yMax="888">
      <component glyphName="C" x="0" y="0" flags="0x0"/>
      <component glyphName="acutecomb.case" x="294" y="0" flags="0x0"/>
    </TTGlyph>
    <TTGlyph name="Cacute.loclPLK" xMin="61" yMin="-8" xMax="366" yMax="888">
      <component glyphName="C" x="0" y="0" flags="0x0"/>
      <component glyphName="acute.case.loclPLK" x="174" y="0" flags="0x0"/>
    </TTGlyph>
    <TTGlyph name="Ccaron" xMin="61" yMin="-8" xMax="366" yMax="888">
      <component glyphName="C" x="0" y="0" flags="0x0"/>
      <component glyphName="uni030C.case" x="314" y="0" flags="0x0"/>
    </TTGlyph>
    <TTGlyph name="Ccedilla" xMin="61" yMin="-190" xMax="366" yMax="696">
      <contour>
        <pt x="321" y="34" on="0"/>
        <pt x="366" y="44" on="1"/>
        <pt x="366" y="3" on="1"/>
        <pt x="320" y="-8" on="0"/>
        <pt x="257" y="-8" on="1"/>
        <pt x="228" y="-8" on="0"/>
        <pt x="215" y="-7" on="1"/>
        <pt x="174" y="-190" on="1"/>
        <pt x="126" y="-190" on="1"/>
        <pt x="126" y="-185" on="1"/>
        <pt x="182" y="-3" on="1"/>
        <pt x="130" y="6" on="0"/>
        <pt x="79" y="72" on="0"/>
        <pt x="61" y="210" on="0"/>
        <pt x="61" y="344" on="1"/>
        <pt x="61" y="502" on="0"/>
        <pt x="89" y="645" on="0"/>
        <pt x="169" y="696" on="0"/>
        <pt x="257" y="696" on="1"/>
        <pt x="285" y="696" on="0"/>
        <pt x="345" y="689" on="0"/>
        <pt x="363" y="683" on="1"/>
        <pt x="363" y="644" on="1"/>
        <pt x="316" y="654" on="0"/>
        <pt x="267" y="654" on="1"/>
        <pt x="190" y="654" on="0"/>
        <pt x="126" y="614" on="0"/>
        <pt x="106" y="492" on="0"/>
        <pt x="106" y="344" on="1"/>
        <pt x="106" y="196" on="0"/>
        <pt x="126" y="74" on="0"/>
        <pt x="190" y="34" on="0"/>
        <pt x="267" y="34" on="1"/>
      </contour>
    </TTGlyph>
    <TTGlyph name="Ccircumflex" xMin="61" yMin="-8" xMax="366" yMax="888">
      <component glyphName="C" x="0" y="0" flags="0x0"/>
      <component glyphName="uni0302.case" x="314" y="0" flags="0x0"/>
    </TTGlyph>
    <TTGlyph name="Cdotaccent" xMin="61" yMin="-8" xMax="366" yMax="875">
      <component glyphName="C" x="0" y="0" flags="0x0"/>
      <component glyphName="uni0307.case" x="244" y="0" flags="0x0"/>
    </TTGlyph>
    <TTGlyph name="D" xMin="78" yMin="0" xMax="439" yMax="688">
      <contour>
        <pt x="78" y="688" on="1"/>
        <pt x="234" y="688" on="1"/>
        <pt x="332" y="688" on="0"/>
        <pt x="414" y="639" on="0"/>
        <pt x="439" y="505" on="0"/>
        <pt x="439" y="344" on="1"/>
        <pt x="439" y="183" on="0"/>
        <pt x="414" y="49" on="0"/>
        <pt x="332" y="0" on="0"/>
        <pt x="234" y="0" on="1"/>
        <pt x="78" y="0" on="1"/>
      </contour>
      <contour>
        <pt x="229" y="42" on="1"/>
        <pt x="311" y="42" on="0"/>
        <pt x="373" y="74" on="0"/>
        <pt x="394" y="192" on="0"/>
        <pt x="394" y="344" on="1"/>
        <pt x="394" y="496" on="0"/>
        <pt x="373" y="614" on="0"/>
        <pt x="310" y="646" on="0"/>
        <pt x="229" y="646" on="1"/>
        <pt x="124" y="646" on="1"/>
        <pt x="124" y="42" on="1"/>
      </contour>
    </TTGlyph>
    <TTGlyph name="Dcaron" xMin="78" yMin="0" xMax="439" yMax="888">
      <component glyphName="D" x="0" y="0" flags="0x0"/>
      <component glyphName="uni030C.case" x="363" y="0" flags="0x0"/>
    </TTGlyph>
    <TTGlyph name="Dcroat" xMin="20" yMin="0" xMax="439" yMax="688">
      <component glyphName="Eth" x="0" y="0" flags="0x0"/>
    </TTGlyph>
    <TTGlyph name="E" xMin="78" yMin="0" xMax="394" yMax="688">
      <contour>
        <pt x="78" y="688" on="1"/>
        <pt x="394" y="688" on="1"/>
        <pt x="394" y="646" on="1"/>
        <pt x="125" y="646" on="1"/>
        <pt x="125" y="369" on="1"/>
        <pt x="360" y="369" on="1"/>
        <pt x="360" y="327" on="1"/>
        <pt x="125" y="327" on="1"/>
        <pt x="125" y="42" on="1"/>
        <pt x="394" y="42" on="1"/>
        <pt x="394" y="0" on="1"/>
        <pt x="78" y="0" on="1"/>
      </contour>
    </TTGlyph>
    <TTGlyph name="Eacute" xMin="78" yMin="0" xMax="394" yMax="889">
      <component glyphName="E" x="0" y="0" flags="0x0"/>
      <component glyphName="acute" x="213" y="146" flags="0x4"/>
    </TTGlyph>
    <TTGlyph name="Ebreve" xMin="78" yMin="0" xMax="394" yMax="888">
      <component glyphName="E" x="0" y="0" flags="0x0"/>
      <component glyphName="uni0306.case" x="348" y="0" flags="0x0"/>
    </TTGlyph>
    <TTGlyph name="Ecaron" xMin="78" yMin="0" xMax="394" yMax="888">
      <component glyphName="E" x="0" y="0" flags="0x0"/>
      <component glyphName="uni030C.case" x="349" y="0" flags="0x0"/>
    </TTGlyph>
    <TTGlyph name="Ecircumflex" xMin="78" yMin="0" xMax="394" yMax="888">
      <component glyphName="E" x="0" y="0" flags="0x0"/>
      <component glyphName="circumflex" x="124" y="145" flags="0x4"/>
    </TTGlyph>
    <TTGlyph name="Edieresis" xMin="78" yMin="0" xMax="394" yMax="836">
      <component glyphName="E" x="0" y="0" flags="0x0"/>
      <component glyphName="dieresis" x="104" y="106" flags="0x4"/>
    </TTGlyph>
    <TTGlyph name="Edotaccent" xMin="78" yMin="0" xMax="394" yMax="875">
      <component glyphName="E" x="0" y="0" flags="0x0"/>
      <component glyphName="uni0307.case" x="279" y="0" flags="0x0"/>
    </TTGlyph>
    <TTGlyph name="Egrave" xMin="78" yMin="0" xMax="394" yMax="889">
      <component glyphName="E" x="0" y="0" flags="0x0"/>
      <component glyphName="grave" x="152" y="146" flags="0x4"/>
    </TTGlyph>
    <TTGlyph name="Emacron" xMin="78" yMin="0" xMax="394" yMax="888">
      <component glyphName="E" x="0" y="0" flags="0x0"/>
      <component glyphName="uni0304.case" x="389" y="0" flags="0x0"/>
    </TTGlyph>
    <TTGlyph name="Eng" xMin="79" yMin="-193" xMax="454" yMax="688">
      <contour>
        <pt x="454" y="688" on="1"/>
        <pt x="454" y="-87" on="1"/>
        <pt x="454" y="-136" on="0"/>
        <pt x="431" y="-181" on="0"/>
        <pt x="384" y="-193" on="0"/>
        <pt x="337" y="-193" on="1"/>
        <pt x="337" y="-156" on="1"/>
        <pt x="371" y="-156" on="0"/>
        <pt x="401" y="-146" on="0"/>
        <pt x="410" y="-124" on="0"/>
        <pt x="410" y="-100" on="1"/>
        <pt x="410" y="0" on="1"/>
        <pt x="127" y="585" on="1"/>
        <pt x="123" y="585" on="1"/>
        <pt x="123" y="0" on="1"/>
        <pt x="79" y="0" on="1"/>
        <pt x="79" y="688" on="1"/>
        <pt x="129" y="688" on="1"/>
        <pt x="406" y="110" on="1"/>
        <pt x="410" y="110" on="1"/>
        <pt x="410" y="688" on="1"/>
      </contour>
    </TTGlyph>
    <TTGlyph name="Eogonek" xMin="79" yMin="-196" xMax="394" yMax="688">
      <contour>
        <pt x="323" y="-196" on="0"/>
        <pt x="285" y="-157" on="0"/>
        <pt x="285" y="-126" on="1"/>
        <pt x="285" y="-94" on="0"/>
        <pt x="322" y="-27" on="0"/>
        <pt x="352" y="0" on="1"/>
        <pt x="79" y="0" on="1"/>
        <pt x="79" y="688" on="1"/>
        <pt x="394" y="688" on="1"/>
        <pt x="394" y="646" on="1"/>
        <pt x="125" y="646" on="1"/>
        <pt x="125" y="369" on="1"/>
        <pt x="360" y="369" on="1"/>
        <pt x="360" y="327" on="1"/>
        <pt x="125" y="327" on="1"/>
        <pt x="125" y="42" on="1"/>
        <pt x="394" y="42" on="1"/>
        <pt x="394" y="0" on="1"/>
        <pt x="369" y="-18" on="0"/>
        <pt x="326" y="-87" on="0"/>
        <pt x="326" y="-116" on="1"/>
        <pt x="326" y="-135" on="0"/>
        <pt x="348" y="-160" on="0"/>
        <pt x="372" y="-160" on="1"/>
        <pt x="381" y="-160" on="0"/>
        <pt x="389" y="-159" on="1"/>
        <pt x="389" y="-195" on="1"/>
        <pt x="380" y="-196" on="0"/>
        <pt x="364" y="-196" on="1"/>
      </contour>
    </TTGlyph>
    <TTGlyph name="Eth" xMin="20" yMin="0" xMax="439" yMax="688">
      <contour>
        <pt x="78" y="327" on="1"/>
        <pt x="20" y="327" on="1"/>
        <pt x="20" y="370" on="1"/>
        <pt x="78" y="370" on="1"/>
        <pt x="78" y="688" on="1"/>
        <pt x="234" y="688" on="1"/>
        <pt x="332" y="688" on="0"/>
        <pt x="414" y="639" on="0"/>
        <pt x="439" y="505" on="0"/>
        <pt x="439" y="344" on="1"/>
        <pt x="439" y="183" on="0"/>
        <pt x="414" y="49" on="0"/>
        <pt x="332" y="0" on="0"/>
        <pt x="234" y="0" on="1"/>
        <pt x="78" y="0" on="1"/>
      </contour>
      <contour>
        <pt x="311" y="42" on="0"/>
        <pt x="373" y="74" on="0"/>
        <pt x="394" y="192" on="0"/>
        <pt x="394" y="344" on="1"/>
        <pt x="394" y="496" on="0"/>
        <pt x="373" y="614" on="0"/>
        <pt x="310" y="646" on="0"/>
        <pt x="229" y="646" on="1"/>
        <pt x="124" y="646" on="1"/>
        <pt x="124" y="370" on="1"/>
        <pt x="240" y="370" on="1"/>
        <pt x="240" y="327" on="1"/>
        <pt x="124" y="327" on="1"/>
        <pt x="124" y="42" on="1"/>
        <pt x="229" y="42" on="1"/>
      </contour>
    </TTGlyph>
    <TTGlyph name="Euro" xMin="39" yMin="-8" xMax="403" yMax="696">
      <contour>
        <pt x="215" y="-8" on="0"/>
        <pt x="137" y="29" on="0"/>
        <pt x="103" y="137" on="0"/>
        <pt x="99" y="250" on="1"/>
        <pt x="39" y="250" on="1"/>
        <pt x="39" y="288" on="1"/>
        <pt x="98" y="288" on="1"/>
        <pt x="98" y="403" on="1"/>
        <pt x="39" y="403" on="1"/>
        <pt x="39" y="441" on="1"/>
        <pt x="99" y="441" on="1"/>
        <pt x="103" y="551" on="0"/>
        <pt x="138" y="658" on="0"/>
        <pt x="216" y="696" on="0"/>
        <pt x="294" y="696" on="1"/>
        <pt x="322" y="696" on="0"/>
        <pt x="382" y="688" on="0"/>
        <pt x="400" y="683" on="1"/>
        <pt x="400" y="644" on="1"/>
        <pt x="357" y="654" on="0"/>
        <pt x="304" y="654" on="1"/>
        <pt x="236" y="654" on="0"/>
        <pt x="173" y="625" on="0"/>
        <pt x="147" y="538" on="0"/>
        <pt x="144" y="441" on="1"/>
        <pt x="361" y="441" on="1"/>
        <pt x="361" y="403" on="1"/>
        <pt x="144" y="403" on="1"/>
        <pt x="144" y="288" on="1"/>
        <pt x="361" y="288" on="1"/>
        <pt x="361" y="250" on="1"/>
        <pt x="144" y="250" on="1"/>
        <pt x="147" y="152" on="0"/>
        <pt x="173" y="63" on="0"/>
        <pt x="236" y="34" on="0"/>
        <pt x="304" y="34" on="1"/>
        <pt x="361" y="34" on="0"/>
        <pt x="403" y="44" on="1"/>
        <pt x="403" y="3" on="1"/>
        <pt x="354" y="-8" on="0"/>
        <pt x="294" y="-8" on="1"/>
      </contour>
    </TTGlyph>
    <TTGlyph name="F" xMin="78" yMin="0" xMax="379" yMax="688">
      <contour>
        <pt x="78" y="688" on="1"/>
        <pt x="379" y="688" on="1"/>
        <pt x="379" y="646" on="1"/>
        <pt x="125" y="646" on="1"/>
        <pt x="125" y="355" on="1"/>
        <pt x="352" y="355" on="1"/>
        <pt x="352" y="313" on="1"/>
        <pt x="125" y="313" on="1"/>
        <pt x="125" y="0" on="1"/>
        <pt x="78" y="0" on="1"/>
      </contour>
    </TTGlyph>
    <TTGlyph name="G" xMin="61" yMin="-8" xMax="424" yMax="696">
      <contour>
        <pt x="254" y="312" on="1"/>
        <pt x="254" y="353" on="1"/>
        <pt x="424" y="353" on="1"/>
        <pt x="424" y="9" on="1"/>
        <pt x="389" y="1" on="0"/>
        <pt x="302" y="-8" on="0"/>
        <pt x="268" y="-8" on="1"/>
        <pt x="178" y="-8" on="0"/>
        <pt x="94" y="43" on="0"/>
        <pt x="61" y="188" on="0"/>
        <pt x="61" y="344" on="1"/>
        <pt x="61" y="499" on="0"/>
        <pt x="93" y="644" on="0"/>
        <pt x="178" y="696" on="0"/>
        <pt x="269" y="696" on="1"/>
        <pt x="306" y="696" on="0"/>
        <pt x="393" y="686" on="0"/>
        <pt x="422" y="678" on="1"/>
        <pt x="422" y="638" on="1"/>
        <pt x="392" y="645" on="0"/>
        <pt x="317" y="654" on="0"/>
        <pt x="293" y="654" on="1"/>
        <pt x="206" y="654" on="0"/>
        <pt x="135" y="622" on="0"/>
        <pt x="106" y="496" on="0"/>
        <pt x="106" y="344" on="1"/>
        <pt x="106" y="204" on="0"/>
        <pt x="128" y="79" on="0"/>
        <pt x="193" y="34" on="0"/>
        <pt x="268" y="34" on="1"/>
        <pt x="293" y="34" on="0"/>
        <pt x="359" y="40" on="0"/>
        <pt x="379" y="45" on="1"/>
        <pt x="379" y="312" on="1"/>
      </contour>
    </TTGlyph>
    <TTGlyph name="G.ss01" xMin="61" yMin="-8" xMax="446" yMax="696">
      <contour>
        <pt x="176" y="-8" on="0"/>
        <pt x="92" y="43" on="0"/>
        <pt x="61" y="187" on="0"/>
        <pt x="61" y="344" on="1"/>
        <pt x="61" y="501" on="0"/>
        <pt x="94" y="646" on="0"/>
        <pt x="181" y="696" on="0"/>
        <pt x="275" y="696" on="1"/>
        <pt x="312" y="696" on="0"/>
        <pt x="399" y="686" on="0"/>
        <pt x="430" y="678" on="1"/>
        <pt x="430" y="638" on="1"/>
        <pt x="396" y="645" on="0"/>
        <pt x="321" y="654" on="0"/>
        <pt x="296" y="654" on="1"/>
        <pt x="207" y="654" on="0"/>
        <pt x="135" y="621" on="0"/>
        <pt x="106" y="496" on="0"/>
        <pt x="106" y="344" on="1"/>
        <pt x="106" y="200" on="0"/>
        <pt x="127" y="76" on="0"/>
        <pt x="192" y="34" on="0"/>
        <pt x="267" y="34" on="1"/>
        <pt x="334" y="34" on="0"/>
        <pt x="386" y="67" on="0"/>
        <pt x="401" y="166" on="0"/>
        <pt x="401" y="296" on="1"/>
        <pt x="401" y="321" on="1"/>
        <pt x="271" y="321" on="1"/>
        <pt x="271" y="362" on="1"/>
        <pt x="446" y="362" on="1"/>
        <pt x="446" y="298" on="1"/>
        <pt x="446" y="156" on="0"/>
        <pt x="427" y="39" on="0"/>
        <pt x="355" y="-8" on="0"/>
        <pt x="268" y="-8" on="1"/>
      </contour>
    </TTGlyph>
    <TTGlyph name="G_tilde.loclGUA" xMin="61" yMin="-8" xMax="424" yMax="888">
      <component glyphName="G" x="0" y="0" flags="0x0"/>
      <component glyphName="tildecomb.case" x="384" y="0" flags="0x0"/>
    </TTGlyph>
    <TTGlyph name="Gbreve" xMin="61" yMin="-8" xMax="424" yMax="888">
      <component glyphName="G" x="0" y="0" flags="0x0"/>
      <component glyphName="uni0306.case" x="355" y="0" flags="0x0"/>
    </TTGlyph>
    <TTGlyph name="Gbreve.ss01" xMin="61" yMin="-8" xMax="446" yMax="888">
      <component glyphName="G.ss01" x="0" y="0" flags="0x0"/>
      <component glyphName="uni0306.case" x="364" y="0" flags="0x0"/>
    </TTGlyph>
    <TTGlyph name="Gcaron" xMin="61" yMin="-8" xMax="424" yMax="888">
      <component glyphName="G" x="0" y="0" flags="0x0"/>
      <component glyphName="uni030C.case" x="356" y="0" flags="0x0"/>
    </TTGlyph>
    <TTGlyph name="Gcaron.ss01" xMin="61" yMin="-8" xMax="446" yMax="888">
      <component glyphName="G.ss01" x="0" y="0" flags="0x0"/>
      <component glyphName="uni030C.case" x="365" y="0" flags="0x0"/>
    </TTGlyph>
    <TTGlyph name="Gcircumflex" xMin="61" yMin="-8" xMax="424" yMax="888">
      <component glyphName="G" x="0" y="0" flags="0x0"/>
      <component glyphName="uni0302.case" x="356" y="0" flags="0x0"/>
    </TTGlyph>
    <TTGlyph name="Gcircumflex.ss01" xMin="61" yMin="-8" xMax="446" yMax="888">
      <component glyphName="G.ss01" x="0" y="0" flags="0x0"/>
      <component glyphName="uni0302.case" x="365" y="0" flags="0x0"/>
    </TTGlyph>
    <TTGlyph name="Gcommaaccent" xMin="61" yMin="-235" xMax="424" yMax="696">
      <component glyphName="G" x="0" y="0" flags="0x0"/>
      <component glyphName="uni0326" x="327" y="0" flags="0x0"/>
    </TTGlyph>
    <TTGlyph name="Gcommaaccent.ss01" xMin="61" yMin="-235" xMax="446" yMax="696">
      <component glyphName="G.ss01" x="0" y="0" flags="0x0"/>
      <component glyphName="uni0326" x="336" y="0" flags="0x0"/>
    </TTGlyph>
    <TTGlyph name="Gdotaccent" xMin="61" yMin="-8" xMax="424" yMax="875">
      <component glyphName="G" x="0" y="0" flags="0x0"/>
      <component glyphName="uni0307.case" x="286" y="0" flags="0x0"/>
    </TTGlyph>
    <TTGlyph name="Gdotaccent.ss01" xMin="61" yMin="-8" xMax="446" yMax="875">
      <component glyphName="G.ss01" x="0" y="0" flags="0x0"/>
      <component glyphName="uni0307.case" x="295" y="0" flags="0x0"/>
    </TTGlyph>
    <TTGlyph name="Gtilde.loclGUA.ss01" xMin="61" yMin="-8" xMax="446" yMax="888">
      <component glyphName="G.ss01" x="0" y="0" flags="0x0"/>
      <component glyphName="tildecomb.case" x="393" y="0" flags="0x0"/>
    </TTGlyph>
    <TTGlyph name="H" xMin="79" yMin="0" xMax="454" yMax="688">
      <contour>
        <pt x="408" y="326" on="1"/>
        <pt x="124" y="326" on="1"/>
        <pt x="124" y="0" on="1"/>
        <pt x="79" y="0" on="1"/>
        <pt x="79" y="688" on="1"/>
        <pt x="124" y="688" on="1"/>
        <pt x="124" y="369" on="1"/>
        <pt x="408" y="369" on="1"/>
        <pt x="408" y="688" on="1"/>
        <pt x="454" y="688" on="1"/>
        <pt x="454" y="0" on="1"/>
        <pt x="408" y="0" on="1"/>
      </contour>
    </TTGlyph>
    <TTGlyph name="Hbar" xMin="79" yMin="0" xMax="454" yMax="688">
      <contour>
        <pt x="454" y="688" on="1"/>
        <pt x="454" y="0" on="1"/>
        <pt x="408" y="0" on="1"/>
        <pt x="408" y="304" on="1"/>
        <pt x="124" y="304" on="1"/>
        <pt x="124" y="0" on="1"/>
        <pt x="79" y="0" on="1"/>
        <pt x="79" y="688" on="1"/>
        <pt x="124" y="688" on="1"/>
        <pt x="124" y="535" on="1"/>
        <pt x="408" y="535" on="1"/>
        <pt x="408" y="688" on="1"/>
      </contour>
      <contour>
        <pt x="408" y="347" on="1"/>
        <pt x="408" y="491" on="1"/>
        <pt x="124" y="491" on="1"/>
        <pt x="124" y="347" on="1"/>
      </contour>
    </TTGlyph>
    <TTGlyph name="Hcircumflex" xMin="79" yMin="0" xMax="454" yMax="888">
      <component glyphName="H" x="0" y="0" flags="0x0"/>
      <component glyphName="uni0302.case" x="379" y="0" flags="0x0"/>
    </TTGlyph>
    <TTGlyph name="I" xMin="82" yMin="0" xMax="128" yMax="688">
      <contour>
        <pt x="82" y="688" on="1"/>
        <pt x="128" y="688" on="1"/>
        <pt x="128" y="0" on="1"/>
        <pt x="82" y="0" on="1"/>
      </contour>
    </TTGlyph>
    <TTGlyph name="IJ" xMin="82" yMin="0" xMax="368" yMax="688">
      <component glyphName="I" x="0" y="0" flags="0x0"/>
      <component glyphName="J" x="209" y="0" flags="0x0"/>
    </TTGlyph>
    <TTGlyph name="Iacute" xMin="81" yMin="0" xMax="187" yMax="889">
      <component glyphName="I" x="0" y="0" flags="0x0"/>
      <component glyphName="acute" x="74" y="146" flags="0x4"/>
    </TTGlyph>
    <TTGlyph name="Iacute_J.loclNLD" xMin="82" yMin="0" xMax="431" yMax="888">
      <component glyphName="I" x="0" y="0" flags="0x0"/>
      <component glyphName="acutecomb.case" x="198" y="0" flags="0x0"/>
      <component glyphName="J" x="209" y="0" flags="0x0"/>
      <component glyphName="acutecomb.case" x="438" y="0" flags="0x0"/>
    </TTGlyph>
    <TTGlyph name="Ibreve" xMin="-1" yMin="0" xMax="210" yMax="888">
      <component glyphName="I" x="0" y="0" flags="0x0"/>
      <component glyphName="uni0306.case" x="217" y="0" flags="0x0"/>
    </TTGlyph>
    <TTGlyph name="Icircumflex" xMin="-1" yMin="0" xMax="211" yMax="888">
      <component glyphName="I" x="0" y="0" flags="0x0"/>
      <component glyphName="circumflex" x="-8" y="145" flags="0x4"/>
    </TTGlyph>
    <TTGlyph name="Idieresis" xMin="-7" yMin="0" xMax="216" yMax="836">
      <component glyphName="I" x="0" y="0" flags="0x0"/>
      <component glyphName="dieresis" x="-30" y="106" flags="0x4"/>
    </TTGlyph>
    <TTGlyph name="Idotaccent" xMin="80" yMin="0" xMax="128" yMax="875">
      <component glyphName="I" x="0" y="0" flags="0x0"/>
      <component glyphName="uni0307.case" x="148" y="0" flags="0x0"/>
    </TTGlyph>
    <TTGlyph name="Igrave" xMin="24" yMin="0" xMax="130" yMax="889">
      <component glyphName="I" x="0" y="0" flags="0x0"/>
      <component glyphName="grave" x="17" y="146" flags="0x4"/>
    </TTGlyph>
    <TTGlyph name="Imacron" xMin="10" yMin="0" xMax="198" yMax="888">
      <component glyphName="I" x="0" y="0" flags="0x0"/>
      <component glyphName="uni0304.case" x="258" y="0" flags="0x0"/>
    </TTGlyph>
    <TTGlyph name="Iogonek" xMin="24" yMin="-196" xMax="129" yMax="688">
      <contour>
        <pt x="62" y="-196" on="0"/>
        <pt x="24" y="-156" on="0"/>
        <pt x="24" y="-123" on="1"/>
        <pt x="24" y="-94" on="0"/>
        <pt x="58" y="-27" on="0"/>
        <pt x="86" y="0" on="1"/>
        <pt x="82" y="0" on="1"/>
        <pt x="82" y="688" on="1"/>
        <pt x="128" y="688" on="1"/>
        <pt x="128" y="0" on="1"/>
        <pt x="106" y="-18" on="0"/>
        <pt x="65" y="-88" on="0"/>
        <pt x="65" y="-115" on="1"/>
        <pt x="65" y="-160" on="0"/>
        <pt x="112" y="-160" on="1"/>
        <pt x="129" y="-159" on="1"/>
        <pt x="129" y="-195" on="1"/>
        <pt x="119" y="-196" on="0"/>
        <pt x="103" y="-196" on="1"/>
      </contour>
    </TTGlyph>
    <TTGlyph name="Itilde" xMin="-30" yMin="0" xMax="240" yMax="888">
      <component glyphName="I" x="0" y="0" flags="0x0"/>
      <component glyphName="tildecomb.case" x="246" y="0" flags="0x0"/>
    </TTGlyph>
    <TTGlyph name="J" xMin="19" yMin="0" xMax="159" yMax="688">
      <contour>
        <pt x="70" y="43" on="0"/>
        <pt x="105" y="63" on="0"/>
        <pt x="114" y="132" on="0"/>
        <pt x="114" y="234" on="1"/>
        <pt x="114" y="688" on="1"/>
        <pt x="159" y="688" on="1"/>
        <pt x="159" y="242" on="1"/>
        <pt x="159" y="118" on="0"/>
        <pt x="144" y="28" on="0"/>
        <pt x="92" y="2" on="0"/>
        <pt x="19" y="0" on="1"/>
        <pt x="19" y="41" on="1"/>
      </contour>
    </TTGlyph>
    <TTGlyph name="Jcircumflex" xMin="19" yMin="0" xMax="242" yMax="888">
      <component glyphName="J" x="0" y="0" flags="0x0"/>
      <component glyphName="uni0302.case" x="249" y="0" flags="0x0"/>
    </TTGlyph>
    <TTGlyph name="K" xMin="78" yMin="0" xMax="458" yMax="688">
      <contour>
        <pt x="228" y="328" on="1"/>
        <pt x="124" y="328" on="1"/>
        <pt x="124" y="0" on="1"/>
        <pt x="78" y="0" on="1"/>
        <pt x="78" y="688" on="1"/>
        <pt x="124" y="688" on="1"/>
        <pt x="124" y="370" on="1"/>
        <pt x="228" y="370" on="1"/>
        <pt x="406" y="688" on="1"/>
        <pt x="455" y="688" on="1"/>
        <pt x="267" y="350" on="1"/>
        <pt x="458" y="0" on="1"/>
        <pt x="406" y="0" on="1"/>
      </contour>
    </TTGlyph>
    <TTGlyph name="Kcommaaccent" xMin="78" yMin="-235" xMax="458" yMax="688">
      <component glyphName="K" x="0" y="0" flags="0x0"/>
      <component glyphName="uni0326" x="323" y="0" flags="0x0"/>
    </TTGlyph>
    <TTGlyph name="L" xMin="78" yMin="0" xMax="365" yMax="688">
      <contour>
        <pt x="78" y="688" on="1"/>
        <pt x="125" y="688" on="1"/>
        <pt x="125" y="42" on="1"/>
        <pt x="365" y="42" on="1"/>
        <pt x="365" y="0" on="1"/>
        <pt x="78" y="0" on="1"/>
      </contour>
    </TTGlyph>
    <TTGlyph name="Lacute" xMin="78" yMin="0" xMax="365" yMax="888">
      <component glyphName="L" x="0" y="0" flags="0x0"/>
      <component glyphName="acutecomb.case" x="198" y="0" flags="0x0"/>
    </TTGlyph>
    <TTGlyph name="Lcaron" xMin="78" yMin="0" xMax="365" yMax="693">
      <component glyphName="L" x="0" y="0" flags="0x0"/>
      <component glyphName="caron.loclCSY" x="198" y="5" flags="0x4"/>
    </TTGlyph>
    <TTGlyph name="Lcommaaccent" xMin="78" yMin="-235" xMax="365" yMax="688">
      <component glyphName="L" x="0" y="0" flags="0x0"/>
      <component glyphName="uni0326" x="286" y="0" flags="0x0"/>
    </TTGlyph>
    <TTGlyph name="Ldot" xMin="78" yMin="0" xMax="365" yMax="688">
      <component glyphName="L" x="0" y="0" flags="0x0"/>
      <component glyphName="periodcentered" x="219" y="60" flags="0x4"/>
    </TTGlyph>
    <TTGlyph name="Lslash" xMin="27" yMin="0" xMax="365" yMax="688">
      <contour>
        <pt x="365" y="42" on="1"/>
        <pt x="365" y="0" on="1"/>
        <pt x="78" y="0" on="1"/>
        <pt x="78" y="293" on="1"/>
        <pt x="27" y="274" on="1"/>
        <pt x="27" y="315" on="1"/>
        <pt x="78" y="334" on="1"/>
        <pt x="78" y="688" on="1"/>
        <pt x="125" y="688" on="1"/>
        <pt x="125" y="351" on="1"/>
        <pt x="278" y="407" on="1"/>
        <pt x="278" y="366" on="1"/>
        <pt x="125" y="310" on="1"/>
        <pt x="125" y="42" on="1"/>
      </contour>
    </TTGlyph>
    <TTGlyph name="M" xMin="79" yMin="0" xMax="586" yMax="688">
      <contour>
        <pt x="541" y="591" on="1"/>
        <pt x="536" y="591" on="1"/>
        <pt x="354" y="0" on="1"/>
        <pt x="308" y="0" on="1"/>
        <pt x="127" y="591" on="1"/>
        <pt x="123" y="591" on="1"/>
        <pt x="123" y="0" on="1"/>
        <pt x="79" y="0" on="1"/>
        <pt x="79" y="688" on="1"/>
        <pt x="143" y="688" on="1"/>
        <pt x="330" y="82" on="1"/>
        <pt x="335" y="82" on="1"/>
        <pt x="522" y="688" on="1"/>
        <pt x="586" y="688" on="1"/>
        <pt x="586" y="0" on="1"/>
        <pt x="541" y="0" on="1"/>
      </contour>
    </TTGlyph>
    <TTGlyph name="N" xMin="79" yMin="0" xMax="454" yMax="688">
      <contour>
        <pt x="127" y="585" on="1"/>
        <pt x="123" y="585" on="1"/>
        <pt x="123" y="0" on="1"/>
        <pt x="79" y="0" on="1"/>
        <pt x="79" y="688" on="1"/>
        <pt x="129" y="688" on="1"/>
        <pt x="406" y="105" on="1"/>
        <pt x="410" y="105" on="1"/>
        <pt x="410" y="688" on="1"/>
        <pt x="454" y="688" on="1"/>
        <pt x="454" y="0" on="1"/>
        <pt x="405" y="0" on="1"/>
      </contour>
    </TTGlyph>
    <TTGlyph name="Nacute" xMin="79" yMin="0" xMax="454" yMax="888">
      <component glyphName="N" x="0" y="0" flags="0x0"/>
      <component glyphName="acutecomb.case" x="359" y="0" flags="0x0"/>
    </TTGlyph>
    <TTGlyph name="Nacute.loclPLK" xMin="79" yMin="0" xMax="454" yMax="888">
      <component glyphName="N" x="0" y="0" flags="0x0"/>
      <component glyphName="acute.case.loclPLK" x="239" y="0" flags="0x0"/>
    </TTGlyph>
    <TTGlyph name="Ncaron" xMin="79" yMin="0" xMax="454" yMax="888">
      <component glyphName="N" x="0" y="0" flags="0x0"/>
      <component glyphName="uni030C.case" x="379" y="0" flags="0x0"/>
    </TTGlyph>
    <TTGlyph name="Ncommaaccent" xMin="79" yMin="-235" xMax="454" yMax="688">
      <component glyphName="N" x="0" y="0" flags="0x0"/>
      <component glyphName="uni0326" x="350" y="0" flags="0x0"/>
    </TTGlyph>
    <TTGlyph name="Ntilde" xMin="79" yMin="0" xMax="454" yMax="860">
      <component glyphName="N" x="0" y="0" flags="0x0"/>
      <component glyphName="tilde" x="127" y="117" flags="0x4"/>
    </TTGlyph>
    <TTGlyph name="O" xMin="61" yMin="-8" xMax="463" yMax="696">
      <contour>
        <pt x="166" y="-8" on="0"/>
        <pt x="85" y="42" on="0"/>
        <pt x="61" y="180" on="0"/>
        <pt x="61" y="344" on="1"/>
        <pt x="61" y="508" on="0"/>
        <pt x="85" y="646" on="0"/>
        <pt x="166" y="696" on="0"/>
        <pt x="262" y="696" on="1"/>
        <pt x="358" y="696" on="0"/>
        <pt x="439" y="646" on="0"/>
        <pt x="463" y="508" on="0"/>
        <pt x="463" y="344" on="1"/>
        <pt x="463" y="180" on="0"/>
        <pt x="439" y="42" on="0"/>
        <pt x="358" y="-8" on="0"/>
        <pt x="262" y="-8" on="1"/>
      </contour>
      <contour>
        <pt x="338" y="34" on="0"/>
        <pt x="397" y="67" on="0"/>
        <pt x="417" y="188" on="0"/>
        <pt x="417" y="344" on="1"/>
        <pt x="417" y="500" on="0"/>
        <pt x="397" y="621" on="0"/>
        <pt x="338" y="654" on="0"/>
        <pt x="262" y="654" on="1"/>
        <pt x="186" y="654" on="0"/>
        <pt x="127" y="621" on="0"/>
        <pt x="106" y="499" on="0"/>
        <pt x="106" y="344" on="1"/>
        <pt x="106" y="189" on="0"/>
        <pt x="127" y="67" on="0"/>
        <pt x="186" y="34" on="0"/>
        <pt x="262" y="34" on="1"/>
      </contour>
    </TTGlyph>
    <TTGlyph name="OE" xMin="61" yMin="0" xMax="717" yMax="688">
      <contour>
        <pt x="166" y="0" on="0"/>
        <pt x="85" y="49" on="0"/>
        <pt x="61" y="184" on="0"/>
        <pt x="61" y="344" on="1"/>
        <pt x="61" y="504" on="0"/>
        <pt x="85" y="639" on="0"/>
        <pt x="166" y="688" on="0"/>
        <pt x="262" y="688" on="1"/>
        <pt x="717" y="688" on="1"/>
        <pt x="717" y="646" on="1"/>
        <pt x="467" y="646" on="1"/>
        <pt x="434" y="646" on="0"/>
        <pt x="408" y="650" on="1"/>
        <pt x="441" y="624" on="0"/>
        <pt x="462" y="498" on="0"/>
        <pt x="463" y="369" on="1"/>
        <pt x="683" y="369" on="1"/>
        <pt x="683" y="327" on="1"/>
        <pt x="463" y="327" on="1"/>
        <pt x="462" y="193" on="0"/>
        <pt x="441" y="64" on="0"/>
        <pt x="408" y="38" on="1"/>
        <pt x="434" y="42" on="0"/>
        <pt x="467" y="42" on="1"/>
        <pt x="717" y="42" on="1"/>
        <pt x="717" y="0" on="1"/>
        <pt x="262" y="0" on="1"/>
      </contour>
      <contour>
        <pt x="338" y="42" on="0"/>
        <pt x="397" y="74" on="0"/>
        <pt x="417" y="193" on="0"/>
        <pt x="417" y="344" on="1"/>
        <pt x="417" y="495" on="0"/>
        <pt x="397" y="614" on="0"/>
        <pt x="338" y="646" on="0"/>
        <pt x="262" y="646" on="1"/>
        <pt x="186" y="646" on="0"/>
        <pt x="127" y="614" on="0"/>
        <pt x="106" y="495" on="0"/>
        <pt x="106" y="344" on="1"/>
        <pt x="106" y="193" on="0"/>
        <pt x="127" y="74" on="0"/>
        <pt x="186" y="42" on="0"/>
        <pt x="262" y="42" on="1"/>
      </contour>
    </TTGlyph>
    <TTGlyph name="Oacute" xMin="61" yMin="-8" xMax="463" yMax="889">
      <component glyphName="O" x="0" y="0" flags="0x0"/>
      <component glyphName="acute" x="234" y="146" flags="0x4"/>
    </TTGlyph>
    <TTGlyph name="Oacute.loclPLK" xMin="61" yMin="-8" xMax="463" yMax="888">
      <component glyphName="O" x="0" y="0" flags="0x0"/>
      <component glyphName="acute.case.loclPLK" x="235" y="0" flags="0x0"/>
    </TTGlyph>
    <TTGlyph name="Obreve" xMin="61" yMin="-8" xMax="463" yMax="888">
      <component glyphName="O" x="0" y="0" flags="0x0"/>
      <component glyphName="uni0306.case" x="374" y="0" flags="0x0"/>
    </TTGlyph>
    <TTGlyph name="Ocircumflex" xMin="61" yMin="-8" xMax="463" yMax="888">
      <component glyphName="O" x="0" y="0" flags="0x0"/>
      <component glyphName="circumflex" x="149" y="145" flags="0x4"/>
    </TTGlyph>
    <TTGlyph name="Odieresis" xMin="61" yMin="-8" xMax="463" yMax="836">
      <component glyphName="O" x="0" y="0" flags="0x0"/>
      <component glyphName="dieresis" x="127" y="106" flags="0x4"/>
    </TTGlyph>
    <TTGlyph name="Ograve" xMin="61" yMin="-8" xMax="463" yMax="889">
      <component glyphName="O" x="0" y="0" flags="0x0"/>
      <component glyphName="grave" x="169" y="146" flags="0x4"/>
    </TTGlyph>
    <TTGlyph name="Ohorn" xMin="61" yMin="-8" xMax="485" yMax="786">
      <contour>
        <pt x="485" y="786" on="1"/>
        <pt x="485" y="753" on="1"/>
        <pt x="485" y="716" on="0"/>
        <pt x="473" y="677" on="0"/>
        <pt x="443" y="660" on="0"/>
        <pt x="414" y="658" on="1"/>
        <pt x="444" y="628" on="0"/>
        <pt x="463" y="491" on="0"/>
        <pt x="463" y="344" on="1"/>
        <pt x="463" y="180" on="0"/>
        <pt x="439" y="42" on="0"/>
        <pt x="358" y="-8" on="0"/>
        <pt x="262" y="-8" on="1"/>
        <pt x="166" y="-8" on="0"/>
        <pt x="85" y="42" on="0"/>
        <pt x="61" y="180" on="0"/>
        <pt x="61" y="344" on="1"/>
        <pt x="61" y="508" on="0"/>
        <pt x="85" y="646" on="0"/>
        <pt x="166" y="696" on="0"/>
        <pt x="262" y="696" on="1"/>
        <pt x="323" y="696" on="0"/>
        <pt x="356" y="688" on="1"/>
        <pt x="400" y="688" on="1"/>
        <pt x="432" y="688" on="0"/>
        <pt x="449" y="711" on="0"/>
        <pt x="449" y="745" on="1"/>
        <pt x="449" y="786" on="1"/>
      </contour>
      <contour>
        <pt x="417" y="500" on="0"/>
        <pt x="397" y="621" on="0"/>
        <pt x="338" y="654" on="0"/>
        <pt x="262" y="654" on="1"/>
        <pt x="186" y="654" on="0"/>
        <pt x="127" y="621" on="0"/>
        <pt x="106" y="499" on="0"/>
        <pt x="106" y="344" on="1"/>
        <pt x="106" y="189" on="0"/>
        <pt x="127" y="67" on="0"/>
        <pt x="186" y="34" on="0"/>
        <pt x="262" y="34" on="1"/>
        <pt x="338" y="34" on="0"/>
        <pt x="397" y="67" on="0"/>
        <pt x="417" y="188" on="0"/>
        <pt x="417" y="344" on="1"/>
      </contour>
    </TTGlyph>
    <TTGlyph name="Ohungarumlaut" xMin="61" yMin="-8" xMax="463" yMax="879">
      <component glyphName="O" x="0" y="0" flags="0x0"/>
      <component glyphName="uni030B.case" x="438" y="0" flags="0x0"/>
    </TTGlyph>
    <TTGlyph name="Omacron" xMin="61" yMin="-8" xMax="463" yMax="888">
      <component glyphName="O" x="0" y="0" flags="0x0"/>
      <component glyphName="uni0304.case" x="415" y="0" flags="0x0"/>
    </TTGlyph>
    <TTGlyph name="Oslash" xMin="61" yMin="-55" xMax="463" yMax="743">
      <contour>
        <pt x="421" y="650" on="1"/>
        <pt x="447" y="618" on="0"/>
        <pt x="463" y="483" on="0"/>
        <pt x="463" y="344" on="1"/>
        <pt x="463" y="180" on="0"/>
        <pt x="439" y="42" on="0"/>
        <pt x="358" y="-8" on="0"/>
        <pt x="262" y="-8" on="1"/>
        <pt x="174" y="-8" on="0"/>
        <pt x="134" y="12" on="1"/>
        <pt x="104" y="-55" on="1"/>
        <pt x="61" y="-55" on="1"/>
        <pt x="103" y="38" on="1"/>
        <pt x="77" y="70" on="0"/>
        <pt x="61" y="205" on="0"/>
        <pt x="61" y="344" on="1"/>
        <pt x="61" y="508" on="0"/>
        <pt x="85" y="646" on="0"/>
        <pt x="166" y="696" on="0"/>
        <pt x="262" y="696" on="1"/>
        <pt x="350" y="696" on="0"/>
        <pt x="390" y="676" on="1"/>
        <pt x="420" y="743" on="1"/>
        <pt x="463" y="743" on="1"/>
      </contour>
      <contour>
        <pt x="106" y="229" on="0"/>
        <pt x="113" y="116" on="0"/>
        <pt x="125" y="86" on="1"/>
        <pt x="373" y="637" on="1"/>
        <pt x="356" y="648" on="0"/>
        <pt x="308" y="654" on="0"/>
        <pt x="262" y="654" on="1"/>
        <pt x="186" y="654" on="0"/>
        <pt x="127" y="621" on="0"/>
        <pt x="106" y="499" on="0"/>
        <pt x="106" y="344" on="1"/>
      </contour>
      <contour>
        <pt x="417" y="458" on="0"/>
        <pt x="410" y="571" on="0"/>
        <pt x="399" y="601" on="1"/>
        <pt x="151" y="50" on="1"/>
        <pt x="167" y="40" on="0"/>
        <pt x="216" y="34" on="0"/>
        <pt x="262" y="34" on="1"/>
        <pt x="338" y="34" on="0"/>
        <pt x="397" y="67" on="0"/>
        <pt x="417" y="188" on="0"/>
        <pt x="417" y="344" on="1"/>
      </contour>
    </TTGlyph>
    <TTGlyph name="Oslashacute" xMin="61" yMin="-55" xMax="463" yMax="888">
      <component glyphName="Oslash" x="0" y="0" flags="0x0"/>
      <component glyphName="acutecomb.case" x="355" y="0" flags="0x0"/>
    </TTGlyph>
    <TTGlyph name="Otilde" xMin="61" yMin="-8" xMax="463" yMax="860">
      <component glyphName="O" x="0" y="0" flags="0x0"/>
      <component glyphName="tilde" x="121" y="117" flags="0x4"/>
    </TTGlyph>
    <TTGlyph name="P" xMin="78" yMin="0" xMax="430" yMax="688">
      <contour>
        <pt x="78" y="688" on="1"/>
        <pt x="276" y="688" on="1"/>
        <pt x="345" y="688" on="0"/>
        <pt x="412" y="633" on="0"/>
        <pt x="430" y="548" on="0"/>
        <pt x="430" y="479" on="1"/>
        <pt x="430" y="412" on="0"/>
        <pt x="411" y="325" on="0"/>
        <pt x="343" y="270" on="0"/>
        <pt x="275" y="270" on="1"/>
        <pt x="124" y="270" on="1"/>
        <pt x="124" y="0" on="1"/>
        <pt x="78" y="0" on="1"/>
      </contour>
      <contour>
        <pt x="270" y="312" on="1"/>
        <pt x="321" y="312" on="0"/>
        <pt x="371" y="350" on="0"/>
        <pt x="385" y="418" on="0"/>
        <pt x="385" y="479" on="1"/>
        <pt x="385" y="540" on="0"/>
        <pt x="371" y="608" on="0"/>
        <pt x="322" y="646" on="0"/>
        <pt x="270" y="646" on="1"/>
        <pt x="124" y="646" on="1"/>
        <pt x="124" y="312" on="1"/>
      </contour>
    </TTGlyph>
    <TTGlyph name="Q" xMin="61" yMin="-115" xMax="474" yMax="696">
      <contour>
        <pt x="474" y="-113" on="1"/>
        <pt x="474" y="-115" on="1"/>
        <pt x="424" y="-115" on="1"/>
        <pt x="359" y="1" on="1"/>
        <pt x="326" y="-8" on="0"/>
        <pt x="262" y="-8" on="1"/>
        <pt x="166" y="-8" on="0"/>
        <pt x="85" y="42" on="0"/>
        <pt x="61" y="180" on="0"/>
        <pt x="61" y="344" on="1"/>
        <pt x="61" y="508" on="0"/>
        <pt x="85" y="646" on="0"/>
        <pt x="166" y="696" on="0"/>
        <pt x="262" y="696" on="1"/>
        <pt x="358" y="696" on="0"/>
        <pt x="439" y="646" on="0"/>
        <pt x="463" y="508" on="0"/>
        <pt x="463" y="344" on="1"/>
        <pt x="463" y="235" on="0"/>
        <pt x="454" y="113" on="0"/>
        <pt x="427" y="37" on="0"/>
        <pt x="399" y="18" on="1"/>
      </contour>
      <contour>
        <pt x="318" y="34" on="0"/>
        <pt x="338" y="38" on="1"/>
        <pt x="237" y="218" on="1"/>
        <pt x="286" y="218" on="1"/>
        <pt x="378" y="57" on="1"/>
        <pt x="402" y="79" on="0"/>
        <pt x="417" y="202" on="0"/>
        <pt x="417" y="344" on="1"/>
        <pt x="417" y="500" on="0"/>
        <pt x="397" y="621" on="0"/>
        <pt x="338" y="654" on="0"/>
        <pt x="262" y="654" on="1"/>
        <pt x="186" y="654" on="0"/>
        <pt x="127" y="621" on="0"/>
        <pt x="106" y="499" on="0"/>
        <pt x="106" y="344" on="1"/>
        <pt x="106" y="189" on="0"/>
        <pt x="127" y="67" on="0"/>
        <pt x="186" y="34" on="0"/>
        <pt x="262" y="34" on="1"/>
      </contour>
    </TTGlyph>
    <TTGlyph name="R" xMin="78" yMin="0" xMax="446" yMax="688">
      <contour>
        <pt x="397" y="0" on="1"/>
        <pt x="305" y="291" on="1"/>
        <pt x="296" y="290" on="0"/>
        <pt x="279" y="290" on="1"/>
        <pt x="124" y="290" on="1"/>
        <pt x="124" y="0" on="1"/>
        <pt x="78" y="0" on="1"/>
        <pt x="78" y="688" on="1"/>
        <pt x="284" y="688" on="1"/>
        <pt x="353" y="688" on="0"/>
        <pt x="419" y="636" on="0"/>
        <pt x="437" y="554" on="0"/>
        <pt x="437" y="489" on="1"/>
        <pt x="437" y="412" on="0"/>
        <pt x="404" y="318" on="0"/>
        <pt x="350" y="300" on="1"/>
        <pt x="446" y="0" on="1"/>
      </contour>
      <contour>
        <pt x="327" y="332" on="0"/>
        <pt x="377" y="368" on="0"/>
        <pt x="391" y="432" on="0"/>
        <pt x="391" y="489" on="1"/>
        <pt x="391" y="546" on="0"/>
        <pt x="377" y="610" on="0"/>
        <pt x="329" y="646" on="0"/>
        <pt x="278" y="646" on="1"/>
        <pt x="124" y="646" on="1"/>
        <pt x="124" y="332" on="1"/>
        <pt x="275" y="332" on="1"/>
      </contour>
    </TTGlyph>
    <TTGlyph name="R.ss01" xMin="79" yMin="0" xMax="440" yMax="688">
      <contour>
        <pt x="440" y="0" on="1"/>
        <pt x="395" y="0" on="1"/>
        <pt x="388" y="152" on="1"/>
        <pt x="385" y="200" on="0"/>
        <pt x="373" y="254" on="0"/>
        <pt x="326" y="293" on="0"/>
        <pt x="278" y="293" on="1"/>
        <pt x="124" y="293" on="1"/>
        <pt x="124" y="0" on="1"/>
        <pt x="79" y="0" on="1"/>
        <pt x="79" y="688" on="1"/>
        <pt x="285" y="688" on="1"/>
        <pt x="344" y="688" on="0"/>
        <pt x="411" y="647" on="0"/>
        <pt x="437" y="567" on="0"/>
        <pt x="437" y="502" on="1"/>
        <pt x="437" y="413" on="0"/>
        <pt x="392" y="333" on="0"/>
        <pt x="344" y="320" on="1"/>
        <pt x="344" y="316" on="1"/>
        <pt x="389" y="304" on="0"/>
        <pt x="429" y="244" on="0"/>
        <pt x="432" y="171" on="1"/>
      </contour>
      <contour>
        <pt x="345" y="335" on="0"/>
        <pt x="391" y="413" on="0"/>
        <pt x="391" y="491" on="1"/>
        <pt x="391" y="546" on="0"/>
        <pt x="378" y="609" on="0"/>
        <pt x="329" y="646" on="0"/>
        <pt x="278" y="646" on="1"/>
        <pt x="124" y="646" on="1"/>
        <pt x="124" y="335" on="1"/>
        <pt x="276" y="335" on="1"/>
      </contour>
    </TTGlyph>
    <TTGlyph name="Racute" xMin="78" yMin="0" xMax="446" yMax="888">
      <component glyphName="R" x="0" y="0" flags="0x0"/>
      <component glyphName="acutecomb.case" x="341" y="0" flags="0x0"/>
    </TTGlyph>
    <TTGlyph name="Racute.ss01" xMin="79" yMin="0" xMax="440" yMax="888">
      <component glyphName="R.ss01" x="0" y="0" flags="0x0"/>
      <component glyphName="acutecomb.case" x="343" y="0" flags="0x0"/>
    </TTGlyph>
    <TTGlyph name="Rcaron" xMin="78" yMin="0" xMax="446" yMax="888">
      <component glyphName="R" x="0" y="0" flags="0x0"/>
      <component glyphName="uni030C.case" x="361" y="0" flags="0x0"/>
    </TTGlyph>
    <TTGlyph name="Rcaron.ss01" xMin="79" yMin="0" xMax="440" yMax="888">
      <component glyphName="R.ss01" x="0" y="0" flags="0x0"/>
      <component glyphName="uni030C.case" x="363" y="0" flags="0x0"/>
    </TTGlyph>
    <TTGlyph name="Rcommaaccent" xMin="78" yMin="-235" xMax="446" yMax="688">
      <component glyphName="R" x="0" y="0" flags="0x0"/>
      <component glyphName="uni0326" x="332" y="0" flags="0x0"/>
    </TTGlyph>
    <TTGlyph name="Rcommaaccent.ss01" xMin="79" yMin="-235" xMax="440" yMax="688">
      <component glyphName="R.ss01" x="0" y="0" flags="0x0"/>
      <component glyphName="uni0326" x="334" y="0" flags="0x0"/>
    </TTGlyph>
    <TTGlyph name="S" xMin="47" yMin="-8" xMax="399" yMax="696">
      <contour>
        <pt x="188" y="-8" on="0"/>
        <pt x="96" y="-1" on="0"/>
        <pt x="62" y="4" on="1"/>
        <pt x="62" y="47" on="1"/>
        <pt x="97" y="42" on="0"/>
        <pt x="184" y="34" on="0"/>
        <pt x="213" y="34" on="1"/>
        <pt x="254" y="34" on="0"/>
        <pt x="305" y="46" on="0"/>
        <pt x="324" y="61" on="1"/>
        <pt x="342" y="75" on="0"/>
        <pt x="353" y="134" on="0"/>
        <pt x="353" y="184" on="1"/>
        <pt x="353" y="250" on="0"/>
        <pt x="344" y="299" on="0"/>
        <pt x="311" y="319" on="0"/>
        <pt x="266" y="326" on="1"/>
        <pt x="138" y="346" on="1"/>
        <pt x="96" y="352" on="0"/>
        <pt x="57" y="393" on="0"/>
        <pt x="47" y="455" on="0"/>
        <pt x="47" y="513" on="1"/>
        <pt x="47" y="612" on="0"/>
        <pt x="129" y="696" on="0"/>
        <pt x="227" y="696" on="1"/>
        <pt x="270" y="696" on="0"/>
        <pt x="351" y="689" on="0"/>
        <pt x="374" y="682" on="1"/>
        <pt x="374" y="642" on="1"/>
        <pt x="345" y="647" on="0"/>
        <pt x="268" y="654" on="0"/>
        <pt x="236" y="654" on="1"/>
        <pt x="188" y="654" on="0"/>
        <pt x="132" y="637" on="0"/>
        <pt x="118" y="619" on="1"/>
        <pt x="103" y="602" on="0"/>
        <pt x="93" y="551" on="0"/>
        <pt x="93" y="511" on="1"/>
        <pt x="93" y="459" on="0"/>
        <pt x="103" y="412" on="0"/>
        <pt x="130" y="393" on="0"/>
        <pt x="161" y="388" on="1"/>
        <pt x="280" y="370" on="1"/>
        <pt x="329" y="362" on="0"/>
        <pt x="379" y="335" on="0"/>
        <pt x="391" y="300" on="1"/>
        <pt x="396" y="285" on="0"/>
        <pt x="399" y="235" on="0"/>
        <pt x="399" y="190" on="1"/>
        <pt x="399" y="116" on="0"/>
        <pt x="368" y="31" on="0"/>
        <pt x="294" y="-8" on="0"/>
        <pt x="227" y="-8" on="1"/>
      </contour>
    </TTGlyph>
    <TTGlyph name="Sacute" xMin="47" yMin="-8" xMax="399" yMax="888">
      <component glyphName="S" x="0" y="0" flags="0x0"/>
      <component glyphName="acutecomb.case" x="316" y="0" flags="0x0"/>
    </TTGlyph>
    <TTGlyph name="Sacute.loclPLK" xMin="47" yMin="-8" xMax="399" yMax="888">
      <component glyphName="S" x="0" y="0" flags="0x0"/>
      <component glyphName="acute.case.loclPLK" x="196" y="0" flags="0x0"/>
    </TTGlyph>
    <TTGlyph name="Scaron" xMin="47" yMin="-8" xMax="399" yMax="888">
      <component glyphName="S" x="0" y="0" flags="0x0"/>
      <component glyphName="caron" x="115" y="145" flags="0x4"/>
    </TTGlyph>
    <TTGlyph name="Scedilla" xMin="47" yMin="-190" xMax="399" yMax="696">
      <contour>
        <pt x="399" y="118" on="0"/>
        <pt x="370" y="34" on="0"/>
        <pt x="300" y="-6" on="0"/>
        <pt x="237" y="-8" on="1"/>
        <pt x="196" y="-190" on="1"/>
        <pt x="148" y="-190" on="1"/>
        <pt x="148" y="-185" on="1"/>
        <pt x="202" y="-8" on="1"/>
        <pt x="114" y="-4" on="0"/>
        <pt x="62" y="4" on="1"/>
        <pt x="62" y="47" on="1"/>
        <pt x="97" y="42" on="0"/>
        <pt x="184" y="34" on="0"/>
        <pt x="213" y="34" on="1"/>
        <pt x="254" y="34" on="0"/>
        <pt x="305" y="46" on="0"/>
        <pt x="324" y="61" on="1"/>
        <pt x="342" y="75" on="0"/>
        <pt x="353" y="134" on="0"/>
        <pt x="353" y="184" on="1"/>
        <pt x="353" y="250" on="0"/>
        <pt x="344" y="299" on="0"/>
        <pt x="311" y="319" on="0"/>
        <pt x="266" y="326" on="1"/>
        <pt x="138" y="346" on="1"/>
        <pt x="96" y="352" on="0"/>
        <pt x="57" y="393" on="0"/>
        <pt x="47" y="455" on="0"/>
        <pt x="47" y="513" on="1"/>
        <pt x="47" y="612" on="0"/>
        <pt x="129" y="696" on="0"/>
        <pt x="227" y="696" on="1"/>
        <pt x="270" y="696" on="0"/>
        <pt x="351" y="689" on="0"/>
        <pt x="374" y="682" on="1"/>
        <pt x="374" y="642" on="1"/>
        <pt x="345" y="647" on="0"/>
        <pt x="268" y="654" on="0"/>
        <pt x="236" y="654" on="1"/>
        <pt x="188" y="654" on="0"/>
        <pt x="132" y="637" on="0"/>
        <pt x="118" y="619" on="1"/>
        <pt x="103" y="602" on="0"/>
        <pt x="93" y="551" on="0"/>
        <pt x="93" y="511" on="1"/>
        <pt x="93" y="459" on="0"/>
        <pt x="103" y="412" on="0"/>
        <pt x="130" y="393" on="0"/>
        <pt x="161" y="388" on="1"/>
        <pt x="280" y="370" on="1"/>
        <pt x="329" y="362" on="0"/>
        <pt x="379" y="335" on="0"/>
        <pt x="391" y="300" on="1"/>
        <pt x="396" y="285" on="0"/>
        <pt x="399" y="235" on="0"/>
        <pt x="399" y="190" on="1"/>
      </contour>
    </TTGlyph>
    <TTGlyph name="Scircumflex" xMin="47" yMin="-8" xMax="399" yMax="888">
      <component glyphName="S" x="0" y="0" flags="0x0"/>
      <component glyphName="uni0302.case" x="336" y="0" flags="0x0"/>
    </TTGlyph>
    <TTGlyph name="Scommaaccent" xMin="47" yMin="-235" xMax="399" yMax="696">
      <component glyphName="S" x="0" y="0" flags="0x0"/>
      <component glyphName="uni0326" x="307" y="0" flags="0x0"/>
    </TTGlyph>
    <TTGlyph name="T" xMin="21" yMin="0" xMax="392" yMax="688">
      <contour>
        <pt x="184" y="646" on="1"/>
        <pt x="21" y="646" on="1"/>
        <pt x="21" y="688" on="1"/>
        <pt x="392" y="688" on="1"/>
        <pt x="392" y="646" on="1"/>
        <pt x="230" y="646" on="1"/>
        <pt x="230" y="0" on="1"/>
        <pt x="184" y="0" on="1"/>
      </contour>
    </TTGlyph>
    <TTGlyph name="Tbar" xMin="21" yMin="0" xMax="392" yMax="688">
      <contour>
        <pt x="230" y="646" on="1"/>
        <pt x="230" y="368" on="1"/>
        <pt x="363" y="368" on="1"/>
        <pt x="363" y="329" on="1"/>
        <pt x="230" y="329" on="1"/>
        <pt x="230" y="0" on="1"/>
        <pt x="184" y="0" on="1"/>
        <pt x="184" y="329" on="1"/>
        <pt x="51" y="329" on="1"/>
        <pt x="51" y="368" on="1"/>
        <pt x="184" y="368" on="1"/>
        <pt x="184" y="646" on="1"/>
        <pt x="21" y="646" on="1"/>
        <pt x="21" y="688" on="1"/>
        <pt x="392" y="688" on="1"/>
        <pt x="392" y="646" on="1"/>
      </contour>
    </TTGlyph>
    <TTGlyph name="Tcaron" xMin="21" yMin="0" xMax="392" yMax="888">
      <component glyphName="T" x="0" y="0" flags="0x0"/>
      <component glyphName="uni030C.case" x="320" y="0" flags="0x0"/>
    </TTGlyph>
    <TTGlyph name="Thorn" xMin="78" yMin="0" xMax="430" yMax="688">
      <contour>
        <pt x="78" y="688" on="1"/>
        <pt x="124" y="688" on="1"/>
        <pt x="124" y="559" on="1"/>
        <pt x="276" y="559" on="1"/>
        <pt x="345" y="559" on="0"/>
        <pt x="412" y="504" on="0"/>
        <pt x="430" y="419" on="0"/>
        <pt x="430" y="350" on="1"/>
        <pt x="430" y="283" on="0"/>
        <pt x="411" y="196" on="0"/>
        <pt x="343" y="141" on="0"/>
        <pt x="275" y="141" on="1"/>
        <pt x="124" y="141" on="1"/>
        <pt x="124" y="0" on="1"/>
        <pt x="78" y="0" on="1"/>
      </contour>
      <contour>
        <pt x="270" y="183" on="1"/>
        <pt x="321" y="183" on="0"/>
        <pt x="371" y="221" on="0"/>
        <pt x="385" y="289" on="0"/>
        <pt x="385" y="350" on="1"/>
        <pt x="385" y="411" on="0"/>
        <pt x="371" y="479" on="0"/>
        <pt x="322" y="517" on="0"/>
        <pt x="270" y="517" on="1"/>
        <pt x="124" y="517" on="1"/>
        <pt x="124" y="183" on="1"/>
      </contour>
    </TTGlyph>
    <TTGlyph name="U" xMin="72" yMin="-8" xMax="447" yMax="688">
      <contour>
        <pt x="447" y="688" on="1"/>
        <pt x="447" y="295" on="1"/>
        <pt x="447" y="163" on="0"/>
        <pt x="424" y="43" on="0"/>
        <pt x="347" y="-8" on="0"/>
        <pt x="260" y="-8" on="1"/>
        <pt x="173" y="-8" on="0"/>
        <pt x="95" y="43" on="0"/>
        <pt x="72" y="163" on="0"/>
        <pt x="72" y="295" on="1"/>
        <pt x="72" y="688" on="1"/>
        <pt x="118" y="688" on="1"/>
        <pt x="118" y="264" on="1"/>
        <pt x="118" y="161" on="0"/>
        <pt x="135" y="71" on="0"/>
        <pt x="193" y="34" on="0"/>
        <pt x="260" y="34" on="1"/>
        <pt x="327" y="34" on="0"/>
        <pt x="385" y="71" on="0"/>
        <pt x="401" y="161" on="0"/>
        <pt x="401" y="264" on="1"/>
        <pt x="401" y="688" on="1"/>
      </contour>
    </TTGlyph>
    <TTGlyph name="Uacute" xMin="72" yMin="-8" xMax="447" yMax="889">
      <component glyphName="U" x="0" y="0" flags="0x0"/>
      <component glyphName="acute" x="234" y="146" flags="0x4"/>
    </TTGlyph>
    <TTGlyph name="Ubreve" xMin="72" yMin="-8" xMax="447" yMax="888">
      <component glyphName="U" x="0" y="0" flags="0x0"/>
      <component glyphName="uni0306.case" x="372" y="0" flags="0x0"/>
    </TTGlyph>
    <TTGlyph name="Ucircumflex" xMin="72" yMin="-8" xMax="447" yMax="888">
      <component glyphName="U" x="0" y="0" flags="0x0"/>
      <component glyphName="circumflex" x="147" y="145" flags="0x4"/>
    </TTGlyph>
    <TTGlyph name="Udieresis" xMin="72" yMin="-8" xMax="447" yMax="836">
      <component glyphName="U" x="0" y="0" flags="0x0"/>
      <component glyphName="dieresis" x="125" y="106" flags="0x4"/>
    </TTGlyph>
    <TTGlyph name="Ugrave" xMin="72" yMin="-8" xMax="447" yMax="889">
      <component glyphName="U" x="0" y="0" flags="0x0"/>
      <component glyphName="grave" x="177" y="146" flags="0x4"/>
    </TTGlyph>
    <TTGlyph name="Uhorn" xMin="72" yMin="-8" xMax="537" yMax="786">
      <contour>
        <pt x="537" y="786" on="1"/>
        <pt x="537" y="753" on="1"/>
        <pt x="537" y="714" on="0"/>
        <pt x="523" y="674" on="0"/>
        <pt x="488" y="658" on="0"/>
        <pt x="452" y="658" on="1"/>
        <pt x="447" y="658" on="1"/>
        <pt x="447" y="295" on="1"/>
        <pt x="447" y="163" on="0"/>
        <pt x="424" y="43" on="0"/>
        <pt x="347" y="-8" on="0"/>
        <pt x="260" y="-8" on="1"/>
        <pt x="173" y="-8" on="0"/>
        <pt x="95" y="43" on="0"/>
        <pt x="72" y="163" on="0"/>
        <pt x="72" y="295" on="1"/>
        <pt x="72" y="688" on="1"/>
        <pt x="118" y="688" on="1"/>
        <pt x="118" y="264" on="1"/>
        <pt x="118" y="161" on="0"/>
        <pt x="135" y="71" on="0"/>
        <pt x="193" y="34" on="0"/>
        <pt x="260" y="34" on="1"/>
        <pt x="327" y="34" on="0"/>
        <pt x="385" y="71" on="0"/>
        <pt x="401" y="161" on="0"/>
        <pt x="401" y="264" on="1"/>
        <pt x="401" y="688" on="1"/>
        <pt x="452" y="688" on="1"/>
        <pt x="484" y="688" on="0"/>
        <pt x="501" y="711" on="0"/>
        <pt x="501" y="745" on="1"/>
        <pt x="501" y="786" on="1"/>
      </contour>
    </TTGlyph>
    <TTGlyph name="Uhungarumlaut" xMin="72" yMin="-8" xMax="447" yMax="879">
      <component glyphName="U" x="0" y="0" flags="0x0"/>
      <component glyphName="uni030B.case" x="436" y="0" flags="0x0"/>
    </TTGlyph>
    <TTGlyph name="Umacron" xMin="72" yMin="-8" xMax="447" yMax="888">
      <component glyphName="U" x="0" y="0" flags="0x0"/>
      <component glyphName="uni0304.case" x="413" y="0" flags="0x0"/>
    </TTGlyph>
    <TTGlyph name="Uogonek" xMin="72" yMin="-196" xMax="447" yMax="688">
      <contour>
        <pt x="447" y="688" on="1"/>
        <pt x="447" y="295" on="1"/>
        <pt x="447" y="205" on="0"/>
        <pt x="438" y="101" on="0"/>
        <pt x="412" y="34" on="0"/>
        <pt x="385" y="16" on="1"/>
        <pt x="352" y="-5" on="0"/>
        <pt x="306" y="-79" on="0"/>
        <pt x="306" y="-115" on="1"/>
        <pt x="306" y="-160" on="0"/>
        <pt x="352" y="-160" on="1"/>
        <pt x="361" y="-160" on="0"/>
        <pt x="369" y="-159" on="1"/>
        <pt x="369" y="-195" on="1"/>
        <pt x="359" y="-196" on="0"/>
        <pt x="344" y="-196" on="1"/>
        <pt x="303" y="-196" on="0"/>
        <pt x="265" y="-156" on="0"/>
        <pt x="265" y="-123" on="1"/>
        <pt x="265" y="-96" on="0"/>
        <pt x="296" y="-32" on="0"/>
        <pt x="323" y="-3" on="1"/>
        <pt x="301" y="-8" on="0"/>
        <pt x="260" y="-8" on="1"/>
        <pt x="173" y="-8" on="0"/>
        <pt x="95" y="43" on="0"/>
        <pt x="72" y="163" on="0"/>
        <pt x="72" y="295" on="1"/>
        <pt x="72" y="688" on="1"/>
        <pt x="118" y="688" on="1"/>
        <pt x="118" y="264" on="1"/>
        <pt x="118" y="161" on="0"/>
        <pt x="135" y="71" on="0"/>
        <pt x="193" y="34" on="0"/>
        <pt x="260" y="34" on="1"/>
        <pt x="327" y="34" on="0"/>
        <pt x="385" y="71" on="0"/>
        <pt x="401" y="161" on="0"/>
        <pt x="401" y="264" on="1"/>
        <pt x="401" y="688" on="1"/>
      </contour>
    </TTGlyph>
    <TTGlyph name="Uring" xMin="72" yMin="-8" xMax="447" yMax="912">
      <component glyphName="U" x="0" y="0" flags="0x0"/>
      <component glyphName="uni030A.case" x="362" y="0" flags="0x0"/>
    </TTGlyph>
    <TTGlyph name="Utilde" xMin="72" yMin="-8" xMax="447" yMax="888">
      <component glyphName="U" x="0" y="0" flags="0x0"/>
      <component glyphName="tildecomb.case" x="401" y="0" flags="0x0"/>
    </TTGlyph>
    <TTGlyph name="V" xMin="15" yMin="0" xMax="445" yMax="688">
      <contour>
        <pt x="15" y="688" on="1"/>
        <pt x="63" y="688" on="1"/>
        <pt x="228" y="74" on="1"/>
        <pt x="233" y="74" on="1"/>
        <pt x="399" y="688" on="1"/>
        <pt x="445" y="688" on="1"/>
        <pt x="257" y="0" on="1"/>
        <pt x="203" y="0" on="1"/>
      </contour>
    </TTGlyph>
    <TTGlyph name="W" xMin="19" yMin="0" xMax="668" yMax="688">
      <contour>
        <pt x="345" y="600" on="1"/>
        <pt x="341" y="600" on="1"/>
        <pt x="211" y="0" on="1"/>
        <pt x="158" y="0" on="1"/>
        <pt x="19" y="688" on="1"/>
        <pt x="67" y="688" on="1"/>
        <pt x="183" y="83" on="1"/>
        <pt x="189" y="83" on="1"/>
        <pt x="318" y="688" on="1"/>
        <pt x="370" y="688" on="1"/>
        <pt x="500" y="83" on="1"/>
        <pt x="506" y="83" on="1"/>
        <pt x="622" y="688" on="1"/>
        <pt x="668" y="688" on="1"/>
        <pt x="529" y="0" on="1"/>
        <pt x="477" y="0" on="1"/>
      </contour>
    </TTGlyph>
    <TTGlyph name="Wacute" xMin="19" yMin="0" xMax="668" yMax="888">
      <component glyphName="W" x="0" y="0" flags="0x0"/>
      <component glyphName="acutecomb.case" x="437" y="0" flags="0x0"/>
    </TTGlyph>
    <TTGlyph name="Wcircumflex" xMin="19" yMin="0" xMax="668" yMax="888">
      <component glyphName="W" x="0" y="0" flags="0x0"/>
      <component glyphName="uni0302.case" x="457" y="0" flags="0x0"/>
    </TTGlyph>
    <TTGlyph name="Wdieresis" xMin="19" yMin="0" xMax="668" yMax="875">
      <component glyphName="W" x="0" y="0" flags="0x0"/>
      <component glyphName="uni0308.case" x="478" y="0" flags="0x0"/>
    </TTGlyph>
    <TTGlyph name="Wgrave" xMin="19" yMin="0" xMax="668" yMax="888">
      <component glyphName="W" x="0" y="0" flags="0x0"/>
      <component glyphName="gravecomb.case" x="372" y="0" flags="0x0"/>
    </TTGlyph>
    <TTGlyph name="X" xMin="22" yMin="0" xMax="460" yMax="688">
      <contour>
        <pt x="243" y="302" on="1"/>
        <pt x="237" y="302" on="1"/>
        <pt x="72" y="0" on="1"/>
        <pt x="22" y="0" on="1"/>
        <pt x="212" y="346" on="1"/>
        <pt x="24" y="688" on="1"/>
        <pt x="76" y="688" on="1"/>
        <pt x="239" y="389" on="1"/>
        <pt x="244" y="389" on="1"/>
        <pt x="407" y="688" on="1"/>
        <pt x="458" y="688" on="1"/>
        <pt x="270" y="347" on="1"/>
        <pt x="460" y="0" on="1"/>
        <pt x="408" y="0" on="1"/>
      </contour>
    </TTGlyph>
    <TTGlyph name="Y" xMin="5" yMin="0" xMax="419" yMax="688">
      <contour>
        <pt x="189" y="277" on="1"/>
        <pt x="5" y="688" on="1"/>
        <pt x="55" y="688" on="1"/>
        <pt x="210" y="335" on="1"/>
        <pt x="216" y="335" on="1"/>
        <pt x="372" y="688" on="1"/>
        <pt x="419" y="688" on="1"/>
        <pt x="235" y="277" on="1"/>
        <pt x="235" y="0" on="1"/>
        <pt x="189" y="0" on="1"/>
      </contour>
    </TTGlyph>
    <TTGlyph name="Y.loclGUA" xMin="25" yMin="0" xMax="400" yMax="688">
      <contour>
        <pt x="400" y="688" on="1"/>
        <pt x="400" y="504" on="1"/>
        <pt x="400" y="378" on="0"/>
        <pt x="379" y="258" on="0"/>
        <pt x="311" y="204" on="0"/>
        <pt x="235" y="201" on="1"/>
        <pt x="235" y="0" on="1"/>
        <pt x="189" y="0" on="1"/>
        <pt x="189" y="201" on="1"/>
        <pt x="114" y="204" on="0"/>
        <pt x="46" y="258" on="0"/>
        <pt x="25" y="378" on="0"/>
        <pt x="25" y="504" on="1"/>
        <pt x="25" y="688" on="1"/>
        <pt x="70" y="688" on="1"/>
        <pt x="70" y="473" on="1"/>
        <pt x="70" y="370" on="0"/>
        <pt x="87" y="280" on="0"/>
        <pt x="145" y="243" on="0"/>
        <pt x="212" y="243" on="1"/>
        <pt x="280" y="243" on="0"/>
        <pt x="338" y="280" on="0"/>
        <pt x="354" y="370" on="0"/>
        <pt x="354" y="473" on="1"/>
        <pt x="354" y="688" on="1"/>
      </contour>
    </TTGlyph>
    <TTGlyph name="Yacute" xMin="5" yMin="0" xMax="419" yMax="889">
      <component glyphName="Y" x="0" y="0" flags="0x0"/>
      <component glyphName="acute" x="191" y="146" flags="0x4"/>
    </TTGlyph>
    <TTGlyph name="Yacute.loclGUA" xMin="25" yMin="0" xMax="400" yMax="888">
      <component glyphName="Y.loclGUA" x="0" y="0" flags="0x0"/>
      <component glyphName="acutecomb.case" x="305" y="0" flags="0x0"/>
    </TTGlyph>
    <TTGlyph name="Ycircumflex" xMin="5" yMin="0" xMax="419" yMax="888">
      <component glyphName="Y" x="0" y="0" flags="0x0"/>
      <component glyphName="uni0302.case" x="326" y="0" flags="0x0"/>
    </TTGlyph>
    <TTGlyph name="Ycircumflex.loclGUA" xMin="25" yMin="0" xMax="400" yMax="888">
      <component glyphName="Y.loclGUA" x="0" y="0" flags="0x0"/>
      <component glyphName="uni0302.case" x="325" y="0" flags="0x0"/>
    </TTGlyph>
    <TTGlyph name="Ydieresis" xMin="5" yMin="0" xMax="419" yMax="836">
      <component glyphName="Y" x="0" y="0" flags="0x0"/>
      <component glyphName="dieresis" x="79" y="106" flags="0x4"/>
    </TTGlyph>
    <TTGlyph name="Ydieresis.loclGUA" xMin="25" yMin="0" xMax="400" yMax="875">
      <component glyphName="Y.loclGUA" x="0" y="0" flags="0x0"/>
      <component glyphName="uni0308.case" x="346" y="0" flags="0x0"/>
    </TTGlyph>
    <TTGlyph name="Ygrave" xMin="5" yMin="0" xMax="419" yMax="888">
      <component glyphName="Y" x="0" y="0" flags="0x0"/>
      <component glyphName="gravecomb.case" x="241" y="0" flags="0x0"/>
    </TTGlyph>
    <TTGlyph name="Ygrave.loclGUA" xMin="25" yMin="0" xMax="400" yMax="888">
      <component glyphName="Y.loclGUA" x="0" y="0" flags="0x0"/>
      <component glyphName="gravecomb.case" x="240" y="0" flags="0x0"/>
    </TTGlyph>
    <TTGlyph name="Z" xMin="32" yMin="0" xMax="391" yMax="688">
      <contour>
        <pt x="32" y="40" on="1"/>
        <pt x="332" y="646" on="1"/>
        <pt x="40" y="646" on="1"/>
        <pt x="40" y="688" on="1"/>
        <pt x="385" y="688" on="1"/>
        <pt x="385" y="649" on="1"/>
        <pt x="86" y="42" on="1"/>
        <pt x="391" y="42" on="1"/>
        <pt x="391" y="0" on="1"/>
        <pt x="32" y="0" on="1"/>
      </contour>
    </TTGlyph>
    <TTGlyph name="Zacute" xMin="32" yMin="0" xMax="391" yMax="888">
      <component glyphName="Z" x="0" y="0" flags="0x0"/>
      <component glyphName="acutecomb.case" x="304" y="0" flags="0x0"/>
    </TTGlyph>
    <TTGlyph name="Zacute.loclPLK" xMin="32" yMin="0" xMax="391" yMax="888">
      <component glyphName="Z" x="0" y="0" flags="0x0"/>
      <component glyphName="acute.case.loclPLK" x="184" y="0" flags="0x0"/>
    </TTGlyph>
    <TTGlyph name="Zcaron" xMin="32" yMin="0" xMax="391" yMax="888">
      <component glyphName="Z" x="0" y="0" flags="0x0"/>
      <component glyphName="caron" x="104" y="145" flags="0x4"/>
    </TTGlyph>
    <TTGlyph name="Zdotaccent" xMin="32" yMin="0" xMax="391" yMax="875">
      <component glyphName="Z" x="0" y="0" flags="0x0"/>
      <component glyphName="uni0307.case" x="254" y="0" flags="0x0"/>
    </TTGlyph>
    <TTGlyph name="a" xMin="40" yMin="-8" xMax="361" yMax="518">
      <contour>
        <pt x="129" y="-8" on="0"/>
        <pt x="69" y="16" on="0"/>
        <pt x="40" y="79" on="0"/>
        <pt x="40" y="139" on="1"/>
        <pt x="40" y="196" on="0"/>
        <pt x="62" y="258" on="0"/>
        <pt x="116" y="285" on="0"/>
        <pt x="165" y="285" on="1"/>
        <pt x="197" y="285" on="0"/>
        <pt x="317" y="280" on="1"/>
        <pt x="317" y="324" on="1"/>
        <pt x="317" y="396" on="0"/>
        <pt x="298" y="459" on="0"/>
        <pt x="248" y="479" on="0"/>
        <pt x="190" y="479" on="1"/>
        <pt x="165" y="479" on="0"/>
        <pt x="90" y="471" on="0"/>
        <pt x="65" y="466" on="1"/>
        <pt x="65" y="506" on="1"/>
        <pt x="131" y="518" on="0"/>
        <pt x="202" y="518" on="1"/>
        <pt x="269" y="518" on="0"/>
        <pt x="335" y="486" on="0"/>
        <pt x="361" y="407" on="0"/>
        <pt x="361" y="328" on="1"/>
        <pt x="361" y="0" on="1"/>
        <pt x="324" y="0" on="1"/>
        <pt x="321" y="76" on="1"/>
        <pt x="316" y="76" on="1"/>
        <pt x="302" y="25" on="0"/>
        <pt x="230" y="-8" on="0"/>
        <pt x="180" y="-8" on="1"/>
      </contour>
      <contour>
        <pt x="231" y="31" on="0"/>
        <pt x="287" y="53" on="0"/>
        <pt x="300" y="88" on="1"/>
        <pt x="309" y="115" on="0"/>
        <pt x="317" y="171" on="0"/>
        <pt x="317" y="209" on="1"/>
        <pt x="317" y="248" on="1"/>
        <pt x="175" y="248" on="1"/>
        <pt x="136" y="248" on="0"/>
        <pt x="99" y="232" on="0"/>
        <pt x="84" y="187" on="0"/>
        <pt x="84" y="140" on="1"/>
        <pt x="84" y="94" on="0"/>
        <pt x="101" y="49" on="0"/>
        <pt x="143" y="31" on="0"/>
        <pt x="186" y="31" on="1"/>
      </contour>
    </TTGlyph>
    <TTGlyph name="aacute" xMin="40" yMin="-8" xMax="361" yMax="743">
      <component glyphName="a" x="0" y="0" flags="0x0"/>
      <component glyphName="acute" x="182" y="0" flags="0x0"/>
    </TTGlyph>
    <TTGlyph name="abreve" xMin="40" yMin="-8" xMax="361" yMax="743">
      <component glyphName="a" x="0" y="0" flags="0x0"/>
      <component glyphName="uni0306" x="327" y="0" flags="0x0"/>
    </TTGlyph>
    <TTGlyph name="acircumflex" xMin="40" yMin="-8" xMax="361" yMax="743">
      <component glyphName="a" x="0" y="0" flags="0x0"/>
      <component glyphName="circumflex" x="103" y="0" flags="0x0"/>
    </TTGlyph>
    <TTGlyph name="acute" xMin="7" yMin="604" xMax="113" yMax="743">
      <contour>
        <pt x="7" y="609" on="1"/>
        <pt x="63" y="743" on="1"/>
        <pt x="113" y="743" on="1"/>
        <pt x="113" y="738" on="1"/>
        <pt x="38" y="604" on="1"/>
        <pt x="7" y="604" on="1"/>
      </contour>
    </TTGlyph>
    <TTGlyph name="acute.case.loclPLK" xMin="7" yMin="749" xMax="83" yMax="888">
      <contour>
        <pt x="7" y="754" on="1"/>
        <pt x="33" y="888" on="1"/>
        <pt x="83" y="888" on="1"/>
        <pt x="83" y="883" on="1"/>
        <pt x="38" y="749" on="1"/>
        <pt x="7" y="749" on="1"/>
      </contour>
    </TTGlyph>
    <TTGlyph name="acute.loclPLK" xMin="7" yMin="604" xMax="83" yMax="743">
      <contour>
        <pt x="7" y="609" on="1"/>
        <pt x="33" y="743" on="1"/>
        <pt x="83" y="743" on="1"/>
        <pt x="83" y="738" on="1"/>
        <pt x="38" y="604" on="1"/>
        <pt x="7" y="604" on="1"/>
      </contour>
    </TTGlyph>
    <TTGlyph name="acutecomb" xMin="-113" yMin="604" xMax="-7" yMax="743">
      <contour>
        <pt x="-113" y="609" on="1"/>
        <pt x="-57" y="743" on="1"/>
        <pt x="-7" y="743" on="1"/>
        <pt x="-7" y="738" on="1"/>
        <pt x="-82" y="604" on="1"/>
        <pt x="-113" y="604" on="1"/>
      </contour>
    </TTGlyph>
    <TTGlyph name="acutecomb.case" xMin="-113" yMin="749" xMax="-7" yMax="888">
      <contour>
        <pt x="-113" y="754" on="1"/>
        <pt x="-57" y="888" on="1"/>
        <pt x="-7" y="888" on="1"/>
        <pt x="-7" y="883" on="1"/>
        <pt x="-82" y="749" on="1"/>
        <pt x="-113" y="749" on="1"/>
      </contour>
    </TTGlyph>
    <TTGlyph name="adieresis" xMin="40" yMin="-8" xMax="361" yMax="729">
      <component glyphName="a" x="0" y="0" flags="0x0"/>
      <component glyphName="dieresis" x="81" y="-1" flags="0x4"/>
    </TTGlyph>
    <TTGlyph name="ae" xMin="40" yMin="-8" xMax="641" yMax="518">
      <contour>
        <pt x="641" y="244" on="1"/>
        <pt x="361" y="244" on="1"/>
        <pt x="361" y="150" on="0"/>
        <pt x="378" y="65" on="0"/>
        <pt x="433" y="31" on="0"/>
        <pt x="495" y="31" on="1"/>
        <pt x="525" y="31" on="0"/>
        <pt x="599" y="39" on="0"/>
        <pt x="626" y="45" on="1"/>
        <pt x="626" y="5" on="1"/>
        <pt x="603" y="0" on="0"/>
        <pt x="525" y="-8" on="0"/>
        <pt x="489" y="-8" on="1"/>
        <pt x="419" y="-8" on="0"/>
        <pt x="349" y="31" on="0"/>
        <pt x="334" y="81" on="1"/>
        <pt x="315" y="26" on="0"/>
        <pt x="238" y="-8" on="0"/>
        <pt x="183" y="-8" on="1"/>
        <pt x="130" y="-8" on="0"/>
        <pt x="70" y="16" on="0"/>
        <pt x="40" y="79" on="0"/>
        <pt x="40" y="139" on="1"/>
        <pt x="40" y="195" on="0"/>
        <pt x="62" y="256" on="0"/>
        <pt x="116" y="282" on="0"/>
        <pt x="165" y="282" on="1"/>
        <pt x="317" y="281" on="1"/>
        <pt x="317" y="323" on="1"/>
        <pt x="317" y="395" on="0"/>
        <pt x="298" y="459" on="0"/>
        <pt x="248" y="479" on="0"/>
        <pt x="190" y="479" on="1"/>
        <pt x="164" y="479" on="0"/>
        <pt x="89" y="471" on="0"/>
        <pt x="65" y="466" on="1"/>
        <pt x="65" y="506" on="1"/>
        <pt x="131" y="518" on="0"/>
        <pt x="202" y="518" on="1"/>
        <pt x="262" y="518" on="0"/>
        <pt x="326" y="490" on="0"/>
        <pt x="341" y="453" on="1"/>
        <pt x="358" y="488" on="0"/>
        <pt x="426" y="518" on="0"/>
        <pt x="488" y="518" on="1"/>
        <pt x="560" y="518" on="0"/>
        <pt x="623" y="472" on="0"/>
        <pt x="641" y="370" on="0"/>
        <pt x="641" y="259" on="1"/>
      </contour>
      <contour>
        <pt x="427" y="479" on="0"/>
        <pt x="377" y="451" on="0"/>
        <pt x="361" y="373" on="0"/>
        <pt x="361" y="281" on="1"/>
        <pt x="597" y="281" on="1"/>
        <pt x="597" y="296" on="1"/>
        <pt x="597" y="379" on="0"/>
        <pt x="578" y="455" on="0"/>
        <pt x="533" y="479" on="0"/>
        <pt x="486" y="479" on="1"/>
      </contour>
      <contour>
        <pt x="317" y="244" on="1"/>
        <pt x="175" y="244" on="1"/>
        <pt x="136" y="244" on="0"/>
        <pt x="99" y="229" on="0"/>
        <pt x="83" y="186" on="0"/>
        <pt x="83" y="140" on="1"/>
        <pt x="83" y="94" on="0"/>
        <pt x="100" y="49" on="0"/>
        <pt x="143" y="31" on="0"/>
        <pt x="186" y="31" on="1"/>
        <pt x="231" y="31" on="0"/>
        <pt x="288" y="54" on="0"/>
        <pt x="301" y="91" on="1"/>
        <pt x="317" y="138" on="0"/>
        <pt x="317" y="209" on="1"/>
      </contour>
    </TTGlyph>
    <TTGlyph name="aeacute" xMin="40" yMin="-8" xMax="641" yMax="743">
      <component glyphName="ae" x="0" y="0" flags="0x0"/>
      <component glyphName="acutecomb" x="441" y="0" flags="0x0"/>
    </TTGlyph>
    <TTGlyph name="agrave" xMin="40" yMin="-8" xMax="361" yMax="743">
      <component glyphName="a" x="0" y="0" flags="0x0"/>
      <component glyphName="grave" x="127" y="0" flags="0x0"/>
    </TTGlyph>
    <TTGlyph name="amacron" xMin="40" yMin="-8" xMax="361" yMax="743">
      <component glyphName="a" x="0" y="0" flags="0x0"/>
      <component glyphName="uni0304" x="368" y="0" flags="0x0"/>
    </TTGlyph>
    <TTGlyph name="ampersand" xMin="54" yMin="-8" xMax="506" yMax="696">
      <contour>
        <pt x="506" y="369" on="1"/>
        <pt x="506" y="328" on="1"/>
        <pt x="417" y="328" on="1"/>
        <pt x="417" y="8" on="1"/>
        <pt x="393" y="2" on="0"/>
        <pt x="305" y="-8" on="0"/>
        <pt x="265" y="-8" on="1"/>
        <pt x="176" y="-8" on="0"/>
        <pt x="85" y="35" on="0"/>
        <pt x="54" y="116" on="0"/>
        <pt x="54" y="184" on="1"/>
        <pt x="54" y="263" on="0"/>
        <pt x="100" y="334" on="0"/>
        <pt x="149" y="349" on="1"/>
        <pt x="149" y="353" on="1"/>
        <pt x="102" y="368" on="0"/>
        <pt x="59" y="442" on="0"/>
        <pt x="59" y="515" on="1"/>
        <pt x="59" y="577" on="0"/>
        <pt x="92" y="654" on="0"/>
        <pt x="181" y="696" on="0"/>
        <pt x="264" y="696" on="1"/>
        <pt x="297" y="696" on="0"/>
        <pt x="383" y="687" on="0"/>
        <pt x="415" y="680" on="1"/>
        <pt x="415" y="641" on="1"/>
        <pt x="383" y="648" on="0"/>
        <pt x="307" y="656" on="0"/>
        <pt x="281" y="656" on="1"/>
        <pt x="204" y="656" on="0"/>
        <pt x="128" y="627" on="0"/>
        <pt x="103" y="567" on="0"/>
        <pt x="103" y="511" on="1"/>
        <pt x="103" y="449" on="0"/>
        <pt x="146" y="369" on="0"/>
        <pt x="217" y="369" on="1"/>
        <pt x="293" y="369" on="1"/>
        <pt x="293" y="328" on="1"/>
        <pt x="217" y="328" on="1"/>
        <pt x="165" y="328" on="0"/>
        <pt x="114" y="293" on="0"/>
        <pt x="98" y="231" on="0"/>
        <pt x="98" y="179" on="1"/>
        <pt x="98" y="117" on="0"/>
        <pt x="134" y="54" on="0"/>
        <pt x="205" y="31" on="0"/>
        <pt x="266" y="31" on="1"/>
        <pt x="331" y="31" on="0"/>
        <pt x="373" y="42" on="1"/>
        <pt x="373" y="369" on="1"/>
      </contour>
    </TTGlyph>
    <TTGlyph name="aogonek" xMin="40" yMin="-196" xMax="364" yMax="518">
      <contour>
        <pt x="364" y="-159" on="1"/>
        <pt x="364" y="-195" on="1"/>
        <pt x="354" y="-196" on="0"/>
        <pt x="339" y="-196" on="1"/>
        <pt x="298" y="-196" on="0"/>
        <pt x="260" y="-156" on="0"/>
        <pt x="260" y="-124" on="1"/>
        <pt x="260" y="-93" on="0"/>
        <pt x="295" y="-25" on="0"/>
        <pt x="324" y="3" on="1"/>
        <pt x="321" y="76" on="1"/>
        <pt x="316" y="76" on="1"/>
        <pt x="302" y="25" on="0"/>
        <pt x="230" y="-8" on="0"/>
        <pt x="180" y="-8" on="1"/>
        <pt x="129" y="-8" on="0"/>
        <pt x="69" y="16" on="0"/>
        <pt x="40" y="79" on="0"/>
        <pt x="40" y="139" on="1"/>
        <pt x="40" y="196" on="0"/>
        <pt x="62" y="258" on="0"/>
        <pt x="116" y="285" on="0"/>
        <pt x="165" y="285" on="1"/>
        <pt x="197" y="285" on="0"/>
        <pt x="317" y="280" on="1"/>
        <pt x="317" y="324" on="1"/>
        <pt x="317" y="396" on="0"/>
        <pt x="298" y="459" on="0"/>
        <pt x="248" y="479" on="0"/>
        <pt x="190" y="479" on="1"/>
        <pt x="165" y="479" on="0"/>
        <pt x="90" y="471" on="0"/>
        <pt x="65" y="466" on="1"/>
        <pt x="65" y="506" on="1"/>
        <pt x="131" y="518" on="0"/>
        <pt x="202" y="518" on="1"/>
        <pt x="269" y="518" on="0"/>
        <pt x="335" y="486" on="0"/>
        <pt x="361" y="407" on="0"/>
        <pt x="361" y="328" on="1"/>
        <pt x="361" y="0" on="1"/>
        <pt x="340" y="-18" on="0"/>
        <pt x="301" y="-87" on="0"/>
        <pt x="301" y="-116" on="1"/>
        <pt x="301" y="-136" on="0"/>
        <pt x="323" y="-160" on="0"/>
        <pt x="348" y="-160" on="1"/>
      </contour>
      <contour>
        <pt x="317" y="248" on="1"/>
        <pt x="175" y="248" on="1"/>
        <pt x="136" y="248" on="0"/>
        <pt x="99" y="232" on="0"/>
        <pt x="84" y="187" on="0"/>
        <pt x="84" y="140" on="1"/>
        <pt x="84" y="94" on="0"/>
        <pt x="101" y="49" on="0"/>
        <pt x="143" y="31" on="0"/>
        <pt x="186" y="31" on="1"/>
        <pt x="231" y="31" on="0"/>
        <pt x="287" y="53" on="0"/>
        <pt x="300" y="88" on="1"/>
        <pt x="309" y="115" on="0"/>
        <pt x="317" y="171" on="0"/>
        <pt x="317" y="209" on="1"/>
      </contour>
    </TTGlyph>
    <TTGlyph name="approxequal" xMin="64" yMin="111" xMax="371" yMax="397">
      <contour>
        <pt x="64" y="343" on="0"/>
        <pt x="89" y="386" on="0"/>
        <pt x="128" y="386" on="1"/>
        <pt x="146" y="386" on="0"/>
        <pt x="183" y="376" on="0"/>
        <pt x="219" y="362" on="0"/>
        <pt x="227" y="359" on="1"/>
        <pt x="233" y="357" on="0"/>
        <pt x="267" y="343" on="0"/>
        <pt x="295" y="336" on="0"/>
        <pt x="306" y="336" on="1"/>
        <pt x="327" y="336" on="0"/>
        <pt x="340" y="362" on="0"/>
        <pt x="340" y="397" on="1"/>
        <pt x="371" y="397" on="1"/>
        <pt x="371" y="340" on="0"/>
        <pt x="347" y="298" on="0"/>
        <pt x="307" y="298" on="1"/>
        <pt x="285" y="298" on="0"/>
        <pt x="240" y="312" on="0"/>
        <pt x="209" y="325" on="1"/>
        <pt x="157" y="347" on="0"/>
        <pt x="129" y="347" on="1"/>
        <pt x="108" y="347" on="0"/>
        <pt x="95" y="322" on="0"/>
        <pt x="95" y="287" on="1"/>
        <pt x="64" y="287" on="1"/>
      </contour>
      <contour>
        <pt x="64" y="167" on="0"/>
        <pt x="89" y="210" on="0"/>
        <pt x="128" y="210" on="1"/>
        <pt x="147" y="210" on="0"/>
        <pt x="186" y="198" on="0"/>
        <pt x="221" y="184" on="0"/>
        <pt x="227" y="182" on="1"/>
        <pt x="235" y="179" on="0"/>
        <pt x="268" y="167" on="0"/>
        <pt x="295" y="160" on="0"/>
        <pt x="306" y="160" on="1"/>
        <pt x="327" y="160" on="0"/>
        <pt x="340" y="186" on="0"/>
        <pt x="340" y="221" on="1"/>
        <pt x="371" y="221" on="1"/>
        <pt x="371" y="164" on="0"/>
        <pt x="347" y="122" on="0"/>
        <pt x="307" y="122" on="1"/>
        <pt x="285" y="122" on="0"/>
        <pt x="240" y="136" on="0"/>
        <pt x="208" y="149" on="1"/>
        <pt x="158" y="171" on="0"/>
        <pt x="129" y="171" on="1"/>
        <pt x="108" y="171" on="0"/>
        <pt x="95" y="146" on="0"/>
        <pt x="95" y="111" on="1"/>
        <pt x="64" y="111" on="1"/>
      </contour>
    </TTGlyph>
    <TTGlyph name="aring" xMin="40" yMin="-8" xMax="361" yMax="795">
      <component glyphName="a" x="0" y="0" flags="0x0"/>
      <component glyphName="ring" x="111" y="-2" flags="0x4"/>
    </TTGlyph>
    <TTGlyph name="aringacute" xMin="40" yMin="-8" xMax="361" yMax="970">
      <component glyphName="a" x="0" y="0" flags="0x0"/>
      <component glyphName="uni030A" x="317" y="0" flags="0x0"/>
      <component glyphName="acutecomb" x="311" y="227" flags="0x4"/>
    </TTGlyph>
    <TTGlyph name="arrowboth" xMin="55" yMin="189" xMax="828" yMax="420">
      <contour>
        <pt x="55" y="304" on="1"/>
        <pt x="313" y="420" on="1"/>
        <pt x="272" y="324" on="1"/>
        <pt x="610" y="324" on="1"/>
        <pt x="570" y="420" on="1"/>
        <pt x="828" y="304" on="1"/>
        <pt x="570" y="189" on="1"/>
        <pt x="610" y="284" on="1"/>
        <pt x="272" y="284" on="1"/>
        <pt x="313" y="189" on="1"/>
      </contour>
    </TTGlyph>
    <TTGlyph name="arrowdown" xMin="82" yMin="-85" xMax="313" yMax="688">
      <contour>
        <pt x="82" y="173" on="1"/>
        <pt x="178" y="132" on="1"/>
        <pt x="178" y="688" on="1"/>
        <pt x="218" y="688" on="1"/>
        <pt x="218" y="132" on="1"/>
        <pt x="313" y="173" on="1"/>
        <pt x="198" y="-85" on="1"/>
      </contour>
    </TTGlyph>
    <TTGlyph name="arrowdown.ss01" xMin="30" yMin="171" xMax="315" yMax="456">
      <contour>
        <pt x="30" y="456" on="1"/>
        <pt x="315" y="456" on="1"/>
        <pt x="173" y="171" on="1"/>
      </contour>
    </TTGlyph>
    <TTGlyph name="arrowleft" xMin="55" yMin="189" xMax="828" yMax="420">
      <contour>
        <pt x="305" y="189" on="1"/>
        <pt x="55" y="304" on="1"/>
        <pt x="305" y="420" on="1"/>
        <pt x="263" y="324" on="1"/>
        <pt x="828" y="324" on="1"/>
        <pt x="828" y="284" on="1"/>
        <pt x="263" y="284" on="1"/>
      </contour>
    </TTGlyph>
    <TTGlyph name="arrowleft.ss01" xMin="30" yMin="201" xMax="315" yMax="486">
      <contour>
        <pt x="30" y="343" on="1"/>
        <pt x="315" y="486" on="1"/>
        <pt x="315" y="201" on="1"/>
      </contour>
    </TTGlyph>
    <TTGlyph name="arrowright" xMin="55" yMin="189" xMax="828" yMax="420">
      <contour>
        <pt x="610" y="284" on="1"/>
        <pt x="55" y="284" on="1"/>
        <pt x="55" y="324" on="1"/>
        <pt x="610" y="324" on="1"/>
        <pt x="570" y="420" on="1"/>
        <pt x="828" y="304" on="1"/>
        <pt x="570" y="189" on="1"/>
      </contour>
    </TTGlyph>
    <TTGlyph name="arrowright.ss01" xMin="48" yMin="201" xMax="333" yMax="486">
      <contour>
        <pt x="48" y="486" on="1"/>
        <pt x="333" y="343" on="1"/>
        <pt x="48" y="201" on="1"/>
      </contour>
    </TTGlyph>
    <TTGlyph name="arrowup" xMin="82" yMin="-81" xMax="313" yMax="691">
      <contour>
        <pt x="178" y="473" on="1"/>
        <pt x="82" y="433" on="1"/>
        <pt x="198" y="691" on="1"/>
        <pt x="313" y="433" on="1"/>
        <pt x="218" y="473" on="1"/>
        <pt x="218" y="-81" on="1"/>
        <pt x="178" y="-81" on="1"/>
      </contour>
    </TTGlyph>
    <TTGlyph name="arrowup.ss01" xMin="30" yMin="231" xMax="315" yMax="516">
      <contour>
        <pt x="173" y="516" on="1"/>
        <pt x="315" y="231" on="1"/>
        <pt x="30" y="231" on="1"/>
      </contour>
    </TTGlyph>
    <TTGlyph name="arrowupdn" xMin="82" yMin="-85" xMax="313" yMax="696">
      <contour>
        <pt x="82" y="173" on="1"/>
        <pt x="178" y="132" on="1"/>
        <pt x="178" y="478" on="1"/>
        <pt x="82" y="438" on="1"/>
        <pt x="198" y="696" on="1"/>
        <pt x="313" y="438" on="1"/>
        <pt x="218" y="478" on="1"/>
        <pt x="218" y="132" on="1"/>
        <pt x="313" y="173" on="1"/>
        <pt x="198" y="-85" on="1"/>
      </contour>
    </TTGlyph>
    <TTGlyph name="arrowupdnbse" xMin="55" yMin="-167" xMax="340" yMax="696">
      <contour>
        <pt x="82" y="173" on="1"/>
        <pt x="178" y="132" on="1"/>
        <pt x="178" y="478" on="1"/>
        <pt x="82" y="438" on="1"/>
        <pt x="198" y="696" on="1"/>
        <pt x="313" y="438" on="1"/>
        <pt x="218" y="478" on="1"/>
        <pt x="218" y="132" on="1"/>
        <pt x="313" y="173" on="1"/>
        <pt x="198" y="-85" on="1"/>
      </contour>
      <contour>
        <pt x="55" y="-128" on="1"/>
        <pt x="340" y="-128" on="1"/>
        <pt x="340" y="-167" on="1"/>
        <pt x="55" y="-167" on="1"/>
      </contour>
    </TTGlyph>
    <TTGlyph name="asciicircum" xMin="59" yMin="476" xMax="361" yMax="750">
      <contour>
        <pt x="210" y="715" on="1"/>
        <pt x="102" y="476" on="1"/>
        <pt x="59" y="476" on="1"/>
        <pt x="184" y="750" on="1"/>
        <pt x="236" y="750" on="1"/>
        <pt x="361" y="476" on="1"/>
        <pt x="318" y="476" on="1"/>
      </contour>
    </TTGlyph>
    <TTGlyph name="asciitilde" xMin="64" yMin="247" xMax="371" yMax="357">
      <contour>
        <pt x="371" y="300" on="0"/>
        <pt x="347" y="258" on="0"/>
        <pt x="307" y="258" on="1"/>
        <pt x="285" y="258" on="0"/>
        <pt x="241" y="271" on="0"/>
        <pt x="208" y="285" on="1"/>
        <pt x="180" y="296" on="0"/>
        <pt x="146" y="307" on="0"/>
        <pt x="129" y="307" on="1"/>
        <pt x="108" y="307" on="0"/>
        <pt x="95" y="282" on="0"/>
        <pt x="95" y="247" on="1"/>
        <pt x="64" y="247" on="1"/>
        <pt x="64" y="304" on="0"/>
        <pt x="88" y="346" on="0"/>
        <pt x="128" y="346" on="1"/>
        <pt x="147" y="346" on="0"/>
        <pt x="185" y="335" on="0"/>
        <pt x="220" y="321" on="0"/>
        <pt x="228" y="318" on="1"/>
        <pt x="253" y="308" on="0"/>
        <pt x="289" y="297" on="0"/>
        <pt x="306" y="297" on="1"/>
        <pt x="327" y="297" on="0"/>
        <pt x="340" y="322" on="0"/>
        <pt x="340" y="357" on="1"/>
        <pt x="371" y="357" on="1"/>
      </contour>
    </TTGlyph>
    <TTGlyph name="asterisk" xMin="48" yMin="358" xMax="355" yMax="688">
      <contour>
        <pt x="223" y="358" on="1"/>
        <pt x="181" y="358" on="1"/>
        <pt x="187" y="498" on="1"/>
        <pt x="69" y="422" on="1"/>
        <pt x="49" y="458" on="1"/>
        <pt x="173" y="522" on="1"/>
        <pt x="48" y="588" on="1"/>
        <pt x="69" y="623" on="1"/>
        <pt x="187" y="547" on="1"/>
        <pt x="181" y="688" on="1"/>
        <pt x="223" y="688" on="1"/>
        <pt x="215" y="547" on="1"/>
        <pt x="334" y="624" on="1"/>
        <pt x="355" y="588" on="1"/>
        <pt x="230" y="523" on="1"/>
        <pt x="355" y="458" on="1"/>
        <pt x="334" y="423" on="1"/>
        <pt x="216" y="498" on="1"/>
      </contour>
    </TTGlyph>
    <TTGlyph name="asterisk.ss02" xMin="35" yMin="-14" xMax="782" yMax="705">
      <contour>
        <pt x="269" y="262" on="1"/>
        <pt x="35" y="436" on="1"/>
        <pt x="322" y="436" on="1"/>
        <pt x="409" y="705" on="1"/>
        <pt x="494" y="436" on="1"/>
        <pt x="782" y="436" on="1"/>
        <pt x="550" y="262" on="1"/>
        <pt x="640" y="-14" on="1"/>
        <pt x="409" y="156" on="1"/>
        <pt x="178" y="-14" on="1"/>
      </contour>
    </TTGlyph>
    <TTGlyph name="at" xMin="65" yMin="-108" xMax="613" yMax="696">
      <contour>
        <pt x="200" y="-108" on="0"/>
        <pt x="92" y="-52" on="0"/>
        <pt x="65" y="97" on="0"/>
        <pt x="65" y="294" on="1"/>
        <pt x="65" y="491" on="0"/>
        <pt x="92" y="640" on="0"/>
        <pt x="200" y="696" on="0"/>
        <pt x="339" y="696" on="1"/>
        <pt x="478" y="696" on="0"/>
        <pt x="586" y="641" on="0"/>
        <pt x="613" y="492" on="0"/>
        <pt x="613" y="294" on="1"/>
        <pt x="613" y="190" on="0"/>
        <pt x="596" y="99" on="0"/>
        <pt x="561" y="75" on="0"/>
        <pt x="522" y="75" on="1"/>
        <pt x="434" y="75" on="1"/>
        <pt x="430" y="138" on="1"/>
        <pt x="425" y="138" on="1"/>
        <pt x="415" y="96" on="0"/>
        <pt x="360" y="68" on="0"/>
        <pt x="322" y="68" on="1"/>
        <pt x="281" y="68" on="0"/>
        <pt x="233" y="89" on="0"/>
        <pt x="209" y="143" on="0"/>
        <pt x="209" y="194" on="1"/>
        <pt x="209" y="242" on="0"/>
        <pt x="227" y="296" on="0"/>
        <pt x="270" y="320" on="0"/>
        <pt x="309" y="320" on="1"/>
        <pt x="350" y="320" on="0"/>
        <pt x="426" y="316" on="1"/>
        <pt x="426" y="352" on="1"/>
        <pt x="426" y="412" on="0"/>
        <pt x="413" y="463" on="0"/>
        <pt x="375" y="480" on="0"/>
        <pt x="332" y="480" on="1"/>
        <pt x="310" y="480" on="0"/>
        <pt x="248" y="474" on="0"/>
        <pt x="231" y="470" on="1"/>
        <pt x="231" y="508" on="1"/>
        <pt x="278" y="518" on="0"/>
        <pt x="343" y="518" on="1"/>
        <pt x="397" y="518" on="0"/>
        <pt x="449" y="490" on="0"/>
        <pt x="468" y="423" on="0"/>
        <pt x="468" y="356" on="1"/>
        <pt x="468" y="108" on="1"/>
        <pt x="530" y="108" on="1"/>
        <pt x="549" y="108" on="0"/>
        <pt x="567" y="126" on="0"/>
        <pt x="577" y="205" on="0"/>
        <pt x="577" y="294" on="1"/>
        <pt x="577" y="453" on="0"/>
        <pt x="565" y="586" on="0"/>
        <pt x="515" y="649" on="0"/>
        <pt x="455" y="657" on="1"/>
        <pt x="415" y="663" on="0"/>
        <pt x="338" y="663" on="1"/>
        <pt x="277" y="663" on="0"/>
        <pt x="232" y="659" on="1"/>
        <pt x="168" y="652" on="0"/>
        <pt x="115" y="592" on="0"/>
        <pt x="102" y="458" on="0"/>
        <pt x="102" y="294" on="1"/>
        <pt x="102" y="132" on="0"/>
        <pt x="117" y="-3" on="0"/>
        <pt x="175" y="-64" on="0"/>
        <pt x="245" y="-71" on="1"/>
        <pt x="275" y="-74" on="0"/>
        <pt x="339" y="-74" on="1"/>
        <pt x="438" y="-74" on="0"/>
        <pt x="468" y="-71" on="1"/>
        <pt x="468" y="-106" on="1"/>
        <pt x="443" y="-108" on="0"/>
        <pt x="339" y="-108" on="1"/>
      </contour>
      <contour>
        <pt x="365" y="106" on="0"/>
        <pt x="407" y="131" on="0"/>
        <pt x="426" y="194" on="0"/>
        <pt x="426" y="252" on="1"/>
        <pt x="426" y="284" on="1"/>
        <pt x="318" y="284" on="1"/>
        <pt x="289" y="284" on="0"/>
        <pt x="262" y="272" on="0"/>
        <pt x="251" y="235" on="0"/>
        <pt x="251" y="195" on="1"/>
        <pt x="251" y="157" on="0"/>
        <pt x="263" y="120" on="0"/>
        <pt x="294" y="106" on="0"/>
        <pt x="326" y="106" on="1"/>
      </contour>
    </TTGlyph>
    <TTGlyph name="atilde" xMin="40" yMin="-8" xMax="361" yMax="743">
      <component glyphName="a" x="0" y="0" flags="0x0"/>
      <component glyphName="tilde" x="73" y="0" flags="0x0"/>
    </TTGlyph>
    <TTGlyph name="b" xMin="71" yMin="-8" xMax="401" yMax="743">
      <contour>
        <pt x="195" y="-8" on="0"/>
        <pt x="129" y="26" on="0"/>
        <pt x="115" y="76" on="1"/>
        <pt x="110" y="76" on="1"/>
        <pt x="107" y="0" on="1"/>
        <pt x="71" y="0" on="1"/>
        <pt x="71" y="743" on="1"/>
        <pt x="115" y="743" on="1"/>
        <pt x="115" y="443" on="1"/>
        <pt x="119" y="443" on="1"/>
        <pt x="132" y="483" on="0"/>
        <pt x="194" y="518" on="0"/>
        <pt x="247" y="518" on="1"/>
        <pt x="313" y="518" on="0"/>
        <pt x="377" y="475" on="0"/>
        <pt x="401" y="365" on="0"/>
        <pt x="401" y="255" on="1"/>
        <pt x="401" y="145" on="0"/>
        <pt x="377" y="35" on="0"/>
        <pt x="312" y="-8" on="0"/>
        <pt x="247" y="-8" on="1"/>
      </contour>
      <contour>
        <pt x="291" y="32" on="0"/>
        <pt x="340" y="63" on="0"/>
        <pt x="357" y="152" on="0"/>
        <pt x="357" y="255" on="1"/>
        <pt x="357" y="358" on="0"/>
        <pt x="340" y="447" on="0"/>
        <pt x="291" y="478" on="0"/>
        <pt x="235" y="478" on="1"/>
        <pt x="190" y="478" on="0"/>
        <pt x="137" y="443" on="0"/>
        <pt x="127" y="406" on="1"/>
        <pt x="119" y="376" on="0"/>
        <pt x="115" y="309" on="0"/>
        <pt x="115" y="255" on="1"/>
        <pt x="115" y="199" on="0"/>
        <pt x="119" y="135" on="0"/>
        <pt x="126" y="106" on="1"/>
        <pt x="136" y="68" on="0"/>
        <pt x="189" y="32" on="0"/>
        <pt x="235" y="32" on="1"/>
      </contour>
    </TTGlyph>
    <TTGlyph name="backslash" xMin="19" yMin="-55" xMax="253" yMax="743">
      <contour>
        <pt x="19" y="743" on="1"/>
        <pt x="63" y="743" on="1"/>
        <pt x="253" y="-55" on="1"/>
        <pt x="210" y="-55" on="1"/>
      </contour>
    </TTGlyph>
    <TTGlyph name="bar" xMin="89" yMin="-161" xMax="131" yMax="743">
      <contour>
        <pt x="89" y="743" on="1"/>
        <pt x="131" y="743" on="1"/>
        <pt x="131" y="-161" on="1"/>
        <pt x="89" y="-161" on="1"/>
      </contour>
    </TTGlyph>
    <TTGlyph name="bar.ss02" xMin="-1" yMin="0" xMax="499" yMax="696">
      <contour>
        <pt x="-1" y="696" on="1"/>
        <pt x="499" y="696" on="1"/>
        <pt x="499" y="0" on="1"/>
        <pt x="-1" y="0" on="1"/>
      </contour>
    </TTGlyph>
    <TTGlyph name="braceleft" xMin="23" yMin="-150" xMax="228" yMax="743">
      <contour>
        <pt x="152" y="-127" on="0"/>
        <pt x="102" y="-22" on="0"/>
        <pt x="102" y="36" on="1"/>
        <pt x="102" y="151" on="1"/>
        <pt x="102" y="205" on="0"/>
        <pt x="65" y="280" on="0"/>
        <pt x="23" y="280" on="1"/>
        <pt x="23" y="312" on="1"/>
        <pt x="65" y="313" on="0"/>
        <pt x="102" y="387" on="0"/>
        <pt x="102" y="441" on="1"/>
        <pt x="102" y="557" on="1"/>
        <pt x="102" y="615" on="0"/>
        <pt x="152" y="720" on="0"/>
        <pt x="187" y="743" on="1"/>
        <pt x="228" y="743" on="1"/>
        <pt x="192" y="713" on="0"/>
        <pt x="145" y="616" on="0"/>
        <pt x="145" y="567" on="1"/>
        <pt x="145" y="447" on="1"/>
        <pt x="145" y="386" on="0"/>
        <pt x="113" y="311" on="0"/>
        <pt x="77" y="299" on="1"/>
        <pt x="77" y="294" on="1"/>
        <pt x="113" y="282" on="0"/>
        <pt x="145" y="207" on="0"/>
        <pt x="145" y="146" on="1"/>
        <pt x="145" y="25" on="1"/>
        <pt x="145" y="-23" on="0"/>
        <pt x="192" y="-120" on="0"/>
        <pt x="228" y="-150" on="1"/>
        <pt x="187" y="-150" on="1"/>
      </contour>
    </TTGlyph>
    <TTGlyph name="braceright" xMin="14" yMin="-150" xMax="219" yMax="743">
      <contour>
        <pt x="49" y="-120" on="0"/>
        <pt x="96" y="-23" on="0"/>
        <pt x="96" y="25" on="1"/>
        <pt x="96" y="146" on="1"/>
        <pt x="96" y="270" on="0"/>
        <pt x="164" y="294" on="1"/>
        <pt x="164" y="299" on="1"/>
        <pt x="96" y="323" on="0"/>
        <pt x="96" y="447" on="1"/>
        <pt x="96" y="567" on="1"/>
        <pt x="96" y="615" on="0"/>
        <pt x="49" y="713" on="0"/>
        <pt x="14" y="743" on="1"/>
        <pt x="55" y="743" on="1"/>
        <pt x="90" y="720" on="0"/>
        <pt x="139" y="615" on="0"/>
        <pt x="139" y="557" on="1"/>
        <pt x="139" y="441" on="1"/>
        <pt x="139" y="387" on="0"/>
        <pt x="177" y="313" on="0"/>
        <pt x="219" y="312" on="1"/>
        <pt x="219" y="280" on="1"/>
        <pt x="176" y="280" on="0"/>
        <pt x="139" y="205" on="0"/>
        <pt x="139" y="151" on="1"/>
        <pt x="139" y="36" on="1"/>
        <pt x="139" y="-22" on="0"/>
        <pt x="90" y="-127" on="0"/>
        <pt x="55" y="-150" on="1"/>
        <pt x="14" y="-150" on="1"/>
      </contour>
    </TTGlyph>
    <TTGlyph name="bracketleft" xMin="79" yMin="-150" xMax="207" yMax="743">
      <contour>
        <pt x="79" y="743" on="1"/>
        <pt x="207" y="743" on="1"/>
        <pt x="207" y="705" on="1"/>
        <pt x="122" y="701" on="1"/>
        <pt x="122" y="-108" on="1"/>
        <pt x="207" y="-112" on="1"/>
        <pt x="207" y="-150" on="1"/>
        <pt x="79" y="-150" on="1"/>
      </contour>
    </TTGlyph>
    <TTGlyph name="bracketleft.ss02" xMin="45" yMin="0" xMax="397" yMax="696">
      <contour>
        <pt x="45" y="0" on="1"/>
        <pt x="45" y="348" on="1"/>
        <pt x="45" y="449" on="0"/>
        <pt x="135" y="608" on="0"/>
        <pt x="295" y="696" on="0"/>
        <pt x="397" y="696" on="1"/>
        <pt x="397" y="0" on="1"/>
      </contour>
    </TTGlyph>
    <TTGlyph name="bracketright" xMin="27" yMin="-150" xMax="155" yMax="743">
      <contour>
        <pt x="27" y="-112" on="1"/>
        <pt x="112" y="-108" on="1"/>
        <pt x="112" y="701" on="1"/>
        <pt x="27" y="705" on="1"/>
        <pt x="27" y="743" on="1"/>
        <pt x="155" y="743" on="1"/>
        <pt x="155" y="-150" on="1"/>
        <pt x="27" y="-150" on="1"/>
      </contour>
    </TTGlyph>
    <TTGlyph name="bracketright.ss02" xMin="0" yMin="0" xMax="352" yMax="696">
      <contour>
        <pt x="0" y="696" on="1"/>
        <pt x="102" y="696" on="0"/>
        <pt x="262" y="608" on="0"/>
        <pt x="352" y="449" on="0"/>
        <pt x="352" y="348" on="1"/>
        <pt x="352" y="0" on="1"/>
        <pt x="0" y="0" on="1"/>
      </contour>
    </TTGlyph>
    <TTGlyph name="breve" xMin="7" yMin="602" xMax="218" yMax="743">
      <contour>
        <pt x="218" y="692" on="0"/>
        <pt x="207" y="636" on="0"/>
        <pt x="161" y="602" on="0"/>
        <pt x="112" y="602" on="1"/>
        <pt x="63" y="602" on="0"/>
        <pt x="18" y="636" on="0"/>
        <pt x="7" y="691" on="0"/>
        <pt x="7" y="743" on="1"/>
        <pt x="43" y="743" on="1"/>
        <pt x="43" y="700" on="0"/>
        <pt x="50" y="657" on="0"/>
        <pt x="79" y="634" on="0"/>
        <pt x="112" y="634" on="1"/>
        <pt x="145" y="634" on="0"/>
        <pt x="174" y="657" on="0"/>
        <pt x="181" y="700" on="0"/>
        <pt x="181" y="743" on="1"/>
        <pt x="218" y="743" on="1"/>
      </contour>
    </TTGlyph>
    <TTGlyph name="brokenbar" xMin="89" yMin="-161" xMax="131" yMax="743">
      <contour>
        <pt x="89" y="743" on="1"/>
        <pt x="131" y="743" on="1"/>
        <pt x="131" y="390" on="1"/>
        <pt x="89" y="390" on="1"/>
      </contour>
      <contour>
        <pt x="89" y="192" on="1"/>
        <pt x="131" y="192" on="1"/>
        <pt x="131" y="-161" on="1"/>
        <pt x="89" y="-161" on="1"/>
      </contour>
    </TTGlyph>
    <TTGlyph name="bullet" xMin="61" yMin="257" xMax="233" yMax="430">
      <contour>
        <pt x="233" y="302" on="0"/>
        <pt x="223" y="269" on="0"/>
        <pt x="188" y="257" on="0"/>
        <pt x="145" y="257" on="1"/>
        <pt x="104" y="257" on="0"/>
        <pt x="70" y="269" on="0"/>
        <pt x="61" y="302" on="0"/>
        <pt x="61" y="342" on="1"/>
        <pt x="61" y="383" on="0"/>
        <pt x="70" y="417" on="0"/>
        <pt x="104" y="430" on="0"/>
        <pt x="145" y="430" on="1"/>
        <pt x="188" y="430" on="0"/>
        <pt x="223" y="417" on="0"/>
        <pt x="233" y="384" on="0"/>
        <pt x="233" y="342" on="1"/>
      </contour>
    </TTGlyph>
    <TTGlyph name="bullet.ss02" xMin="40" yMin="-8" xMax="743" yMax="696">
      <contour>
        <pt x="343" y="421" on="0"/>
        <pt x="279" y="480" on="0"/>
        <pt x="279" y="533" on="1"/>
        <pt x="279" y="575" on="0"/>
        <pt x="318" y="650" on="0"/>
        <pt x="373" y="696" on="0"/>
        <pt x="392" y="696" on="1"/>
        <pt x="411" y="696" on="0"/>
        <pt x="465" y="650" on="0"/>
        <pt x="504" y="575" on="0"/>
        <pt x="504" y="533" on="1"/>
        <pt x="504" y="480" on="0"/>
        <pt x="441" y="421" on="0"/>
        <pt x="392" y="421" on="1"/>
      </contour>
      <contour>
        <pt x="415" y="481" on="0"/>
        <pt x="444" y="508" on="0"/>
        <pt x="444" y="533" on="1"/>
        <pt x="444" y="560" on="0"/>
        <pt x="426" y="607" on="0"/>
        <pt x="401" y="636" on="0"/>
        <pt x="392" y="636" on="1"/>
        <pt x="383" y="636" on="0"/>
        <pt x="358" y="607" on="0"/>
        <pt x="339" y="560" on="0"/>
        <pt x="339" y="533" on="1"/>
        <pt x="339" y="508" on="0"/>
        <pt x="369" y="481" on="0"/>
        <pt x="392" y="481" on="1"/>
      </contour>
      <contour>
        <pt x="161" y="231" on="0"/>
        <pt x="86" y="270" on="0"/>
        <pt x="40" y="325" on="0"/>
        <pt x="40" y="344" on="1"/>
        <pt x="40" y="363" on="0"/>
        <pt x="86" y="417" on="0"/>
        <pt x="161" y="456" on="0"/>
        <pt x="203" y="456" on="1"/>
        <pt x="256" y="456" on="0"/>
        <pt x="315" y="393" on="0"/>
        <pt x="315" y="344" on="1"/>
        <pt x="315" y="295" on="0"/>
        <pt x="256" y="231" on="0"/>
        <pt x="203" y="231" on="1"/>
      </contour>
      <contour>
        <pt x="527" y="231" on="0"/>
        <pt x="468" y="295" on="0"/>
        <pt x="468" y="344" on="1"/>
        <pt x="468" y="393" on="0"/>
        <pt x="527" y="456" on="0"/>
        <pt x="581" y="456" on="1"/>
        <pt x="622" y="456" on="0"/>
        <pt x="697" y="417" on="0"/>
        <pt x="743" y="363" on="0"/>
        <pt x="743" y="344" on="1"/>
        <pt x="743" y="325" on="0"/>
        <pt x="697" y="270" on="0"/>
        <pt x="623" y="231" on="0"/>
        <pt x="581" y="231" on="1"/>
      </contour>
      <contour>
        <pt x="228" y="291" on="0"/>
        <pt x="255" y="321" on="0"/>
        <pt x="255" y="344" on="1"/>
        <pt x="255" y="367" on="0"/>
        <pt x="228" y="396" on="0"/>
        <pt x="203" y="396" on="1"/>
        <pt x="176" y="396" on="0"/>
        <pt x="129" y="378" on="0"/>
        <pt x="100" y="353" on="0"/>
        <pt x="100" y="344" on="1"/>
        <pt x="100" y="335" on="0"/>
        <pt x="129" y="310" on="0"/>
        <pt x="176" y="291" on="0"/>
        <pt x="203" y="291" on="1"/>
      </contour>
      <contour>
        <pt x="607" y="291" on="0"/>
        <pt x="654" y="310" on="0"/>
        <pt x="683" y="335" on="0"/>
        <pt x="683" y="344" on="1"/>
        <pt x="683" y="353" on="0"/>
        <pt x="654" y="378" on="0"/>
        <pt x="607" y="396" on="0"/>
        <pt x="581" y="396" on="1"/>
        <pt x="556" y="396" on="0"/>
        <pt x="528" y="367" on="0"/>
        <pt x="528" y="344" on="1"/>
        <pt x="528" y="321" on="0"/>
        <pt x="556" y="291" on="0"/>
        <pt x="581" y="291" on="1"/>
      </contour>
      <contour>
        <pt x="373" y="-8" on="0"/>
        <pt x="318" y="38" on="0"/>
        <pt x="279" y="113" on="0"/>
        <pt x="279" y="155" on="1"/>
        <pt x="279" y="208" on="0"/>
        <pt x="343" y="267" on="0"/>
        <pt x="392" y="267" on="1"/>
        <pt x="441" y="267" on="0"/>
        <pt x="504" y="208" on="0"/>
        <pt x="504" y="155" on="1"/>
        <pt x="504" y="113" on="0"/>
        <pt x="465" y="38" on="0"/>
        <pt x="411" y="-8" on="0"/>
        <pt x="392" y="-8" on="1"/>
      </contour>
      <contour>
        <pt x="401" y="52" on="0"/>
        <pt x="426" y="81" on="0"/>
        <pt x="444" y="128" on="0"/>
        <pt x="444" y="155" on="1"/>
        <pt x="444" y="180" on="0"/>
        <pt x="415" y="207" on="0"/>
        <pt x="392" y="207" on="1"/>
        <pt x="369" y="207" on="0"/>
        <pt x="339" y="180" on="0"/>
        <pt x="339" y="155" on="1"/>
        <pt x="339" y="128" on="0"/>
        <pt x="358" y="81" on="0"/>
        <pt x="383" y="52" on="0"/>
        <pt x="392" y="52" on="1"/>
      </contour>
    </TTGlyph>
    <TTGlyph name="c" xMin="53" yMin="-8" xMax="316" yMax="518">
      <contour>
        <pt x="298" y="-1" on="0"/>
        <pt x="240" y="-8" on="0"/>
        <pt x="213" y="-8" on="1"/>
        <pt x="141" y="-8" on="0"/>
        <pt x="73" y="43" on="0"/>
        <pt x="53" y="148" on="0"/>
        <pt x="53" y="254" on="1"/>
        <pt x="53" y="362" on="0"/>
        <pt x="78" y="473" on="0"/>
        <pt x="144" y="518" on="0"/>
        <pt x="210" y="518" on="1"/>
        <pt x="235" y="518" on="0"/>
        <pt x="294" y="512" on="0"/>
        <pt x="313" y="507" on="1"/>
        <pt x="313" y="467" on="1"/>
        <pt x="265" y="479" on="0"/>
        <pt x="218" y="479" on="1"/>
        <pt x="165" y="479" on="0"/>
        <pt x="115" y="443" on="0"/>
        <pt x="97" y="352" on="0"/>
        <pt x="97" y="256" on="1"/>
        <pt x="97" y="157" on="0"/>
        <pt x="115" y="65" on="0"/>
        <pt x="165" y="31" on="0"/>
        <pt x="220" y="31" on="1"/>
        <pt x="244" y="31" on="0"/>
        <pt x="298" y="38" on="0"/>
        <pt x="316" y="44" on="1"/>
        <pt x="316" y="4" on="1"/>
      </contour>
    </TTGlyph>
    <TTGlyph name="cacute" xMin="53" yMin="-8" xMax="316" yMax="743">
      <component glyphName="c" x="0" y="0" flags="0x0"/>
      <component glyphName="acutecomb" x="270" y="0" flags="0x0"/>
    </TTGlyph>
    <TTGlyph name="cacute.loclPLK" xMin="53" yMin="-8" xMax="316" yMax="743">
      <component glyphName="c" x="0" y="0" flags="0x0"/>
      <component glyphName="acute.loclPLK" x="150" y="0" flags="0x0"/>
    </TTGlyph>
    <TTGlyph name="caron" xMin="6" yMin="605" xMax="219" yMax="743">
      <contour>
        <pt x="6" y="738" on="1"/>
        <pt x="6" y="743" on="1"/>
        <pt x="39" y="743" on="1"/>
        <pt x="113" y="638" on="1"/>
        <pt x="186" y="743" on="1"/>
        <pt x="219" y="743" on="1"/>
        <pt x="219" y="738" on="1"/>
        <pt x="140" y="605" on="1"/>
        <pt x="86" y="605" on="1"/>
      </contour>
    </TTGlyph>
    <TTGlyph name="caron.loclCSY" xMin="36" yMin="452" xMax="95" yMax="688">
      <contour>
        <pt x="48" y="602" on="1"/>
        <pt x="48" y="688" on="1"/>
        <pt x="95" y="688" on="1"/>
        <pt x="95" y="602" on="1"/>
        <pt x="65" y="452" on="1"/>
        <pt x="36" y="452" on="1"/>
      </contour>
    </TTGlyph>
    <TTGlyph name="ccaron" xMin="53" yMin="-8" xMax="316" yMax="743">
      <component glyphName="c" x="0" y="0" flags="0x0"/>
      <component glyphName="uni030C" x="289" y="0" flags="0x0"/>
    </TTGlyph>
    <TTGlyph name="ccedilla" xMin="53" yMin="-190" xMax="316" yMax="518">
      <contour>
        <pt x="244" y="31" on="0"/>
        <pt x="298" y="38" on="0"/>
        <pt x="316" y="44" on="1"/>
        <pt x="316" y="4" on="1"/>
        <pt x="298" y="-1" on="0"/>
        <pt x="240" y="-8" on="0"/>
        <pt x="213" y="-8" on="1"/>
        <pt x="197" y="-8" on="0"/>
        <pt x="190" y="-7" on="1"/>
        <pt x="149" y="-190" on="1"/>
        <pt x="101" y="-190" on="1"/>
        <pt x="101" y="-185" on="1"/>
        <pt x="157" y="-3" on="1"/>
        <pt x="111" y="6" on="0"/>
        <pt x="66" y="64" on="0"/>
        <pt x="53" y="163" on="0"/>
        <pt x="53" y="254" on="1"/>
        <pt x="53" y="362" on="0"/>
        <pt x="78" y="473" on="0"/>
        <pt x="144" y="518" on="0"/>
        <pt x="210" y="518" on="1"/>
        <pt x="235" y="518" on="0"/>
        <pt x="294" y="512" on="0"/>
        <pt x="313" y="507" on="1"/>
        <pt x="313" y="467" on="1"/>
        <pt x="265" y="479" on="0"/>
        <pt x="218" y="479" on="1"/>
        <pt x="165" y="479" on="0"/>
        <pt x="115" y="443" on="0"/>
        <pt x="97" y="352" on="0"/>
        <pt x="97" y="256" on="1"/>
        <pt x="97" y="157" on="0"/>
        <pt x="115" y="65" on="0"/>
        <pt x="165" y="31" on="0"/>
        <pt x="220" y="31" on="1"/>
      </contour>
    </TTGlyph>
    <TTGlyph name="ccircumflex" xMin="53" yMin="-8" xMax="316" yMax="743">
      <component glyphName="c" x="0" y="0" flags="0x0"/>
      <component glyphName="uni0302" x="289" y="0" flags="0x0"/>
    </TTGlyph>
    <TTGlyph name="cdotaccent" xMin="53" yMin="-8" xMax="316" yMax="730">
      <component glyphName="c" x="0" y="0" flags="0x0"/>
      <component glyphName="uni0307" x="219" y="0" flags="0x0"/>
    </TTGlyph>
    <TTGlyph name="cedilla" xMin="19" yMin="-190" xMax="110" yMax="8">
      <contour>
        <pt x="19" y="-185" on="1"/>
        <pt x="78" y="8" on="1"/>
        <pt x="110" y="8" on="1"/>
        <pt x="110" y="3" on="1"/>
        <pt x="67" y="-190" on="1"/>
        <pt x="19" y="-190" on="1"/>
      </contour>
    </TTGlyph>
    <TTGlyph name="cent" xMin="56" yMin="-8" xMax="329" yMax="696">
      <contour>
        <pt x="329" y="80" on="1"/>
        <pt x="287" y="69" on="0"/>
        <pt x="242" y="67" on="1"/>
        <pt x="242" y="-8" on="1"/>
        <pt x="202" y="-8" on="1"/>
        <pt x="202" y="67" on="1"/>
        <pt x="139" y="70" on="0"/>
        <pt x="77" y="125" on="0"/>
        <pt x="56" y="236" on="0"/>
        <pt x="56" y="342" on="1"/>
        <pt x="56" y="452" on="0"/>
        <pt x="82" y="568" on="0"/>
        <pt x="144" y="616" on="0"/>
        <pt x="202" y="619" on="1"/>
        <pt x="202" y="696" on="1"/>
        <pt x="242" y="696" on="1"/>
        <pt x="242" y="619" on="1"/>
        <pt x="289" y="618" on="0"/>
        <pt x="326" y="607" on="1"/>
        <pt x="326" y="566" on="1"/>
        <pt x="282" y="577" on="0"/>
        <pt x="242" y="577" on="1"/>
        <pt x="242" y="108" on="1"/>
        <pt x="294" y="111" on="0"/>
        <pt x="329" y="122" on="1"/>
      </contour>
      <contour>
        <pt x="103" y="249" on="0"/>
        <pt x="118" y="154" on="0"/>
        <pt x="159" y="113" on="0"/>
        <pt x="202" y="109" on="1"/>
        <pt x="202" y="576" on="1"/>
        <pt x="160" y="572" on="0"/>
        <pt x="118" y="532" on="0"/>
        <pt x="103" y="438" on="0"/>
        <pt x="103" y="344" on="1"/>
      </contour>
    </TTGlyph>
    <TTGlyph name="circumflex" xMin="7" yMin="605" xMax="219" yMax="743">
      <contour>
        <pt x="7" y="610" on="1"/>
        <pt x="86" y="743" on="1"/>
        <pt x="140" y="743" on="1"/>
        <pt x="219" y="610" on="1"/>
        <pt x="219" y="605" on="1"/>
        <pt x="186" y="605" on="1"/>
        <pt x="113" y="710" on="1"/>
        <pt x="39" y="605" on="1"/>
        <pt x="7" y="605" on="1"/>
      </contour>
    </TTGlyph>
    <TTGlyph name="colon" xMin="57" yMin="0" xMax="112" yMax="510">
      <contour>
        <pt x="57" y="510" on="1"/>
        <pt x="112" y="510" on="1"/>
        <pt x="112" y="439" on="1"/>
        <pt x="57" y="439" on="1"/>
      </contour>
      <contour>
        <pt x="57" y="71" on="1"/>
        <pt x="112" y="71" on="1"/>
        <pt x="112" y="0" on="1"/>
        <pt x="57" y="0" on="1"/>
      </contour>
    </TTGlyph>
    <TTGlyph name="comma" xMin="32" yMin="-105" xMax="112" yMax="71">
      <contour>
        <pt x="54" y="-81" on="0"/>
        <pt x="73" y="-70" on="0"/>
        <pt x="79" y="-44" on="0"/>
        <pt x="79" y="-17" on="1"/>
        <pt x="79" y="0" on="1"/>
        <pt x="56" y="0" on="1"/>
        <pt x="56" y="71" on="1"/>
        <pt x="112" y="71" on="1"/>
        <pt x="112" y="-5" on="1"/>
        <pt x="112" y="-47" on="0"/>
        <pt x="99" y="-88" on="0"/>
        <pt x="66" y="-105" on="0"/>
        <pt x="32" y="-105" on="1"/>
        <pt x="32" y="-81" on="1"/>
      </contour>
    </TTGlyph>
    <TTGlyph name="copyright" xMin="75" yMin="-8" xMax="493" yMax="696">
      <contour>
        <pt x="180" y="-8" on="0"/>
        <pt x="97" y="40" on="0"/>
        <pt x="75" y="174" on="0"/>
        <pt x="75" y="344" on="1"/>
        <pt x="75" y="514" on="0"/>
        <pt x="97" y="648" on="0"/>
        <pt x="180" y="696" on="0"/>
        <pt x="284" y="696" on="1"/>
        <pt x="388" y="696" on="0"/>
        <pt x="471" y="648" on="0"/>
        <pt x="493" y="515" on="0"/>
        <pt x="493" y="344" on="1"/>
        <pt x="493" y="173" on="0"/>
        <pt x="471" y="40" on="0"/>
        <pt x="388" y="-8" on="0"/>
        <pt x="284" y="-8" on="1"/>
      </contour>
      <contour>
        <pt x="375" y="21" on="0"/>
        <pt x="443" y="59" on="0"/>
        <pt x="462" y="181" on="0"/>
        <pt x="462" y="344" on="1"/>
        <pt x="462" y="507" on="0"/>
        <pt x="443" y="629" on="0"/>
        <pt x="375" y="667" on="0"/>
        <pt x="284" y="667" on="1"/>
        <pt x="194" y="667" on="0"/>
        <pt x="125" y="629" on="0"/>
        <pt x="106" y="506" on="0"/>
        <pt x="106" y="344" on="1"/>
        <pt x="106" y="182" on="0"/>
        <pt x="125" y="59" on="0"/>
        <pt x="194" y="21" on="0"/>
        <pt x="284" y="21" on="1"/>
      </contour>
      <contour>
        <pt x="254" y="154" on="0"/>
        <pt x="210" y="180" on="0"/>
        <pt x="195" y="257" on="0"/>
        <pt x="195" y="344" on="1"/>
        <pt x="195" y="429" on="0"/>
        <pt x="210" y="506" on="0"/>
        <pt x="254" y="534" on="0"/>
        <pt x="302" y="534" on="1"/>
        <pt x="341" y="534" on="0"/>
        <pt x="360" y="527" on="1"/>
        <pt x="360" y="496" on="1"/>
        <pt x="337" y="501" on="0"/>
        <pt x="308" y="501" on="1"/>
        <pt x="271" y="501" on="0"/>
        <pt x="240" y="481" on="0"/>
        <pt x="230" y="419" on="0"/>
        <pt x="230" y="344" on="1"/>
        <pt x="230" y="269" on="0"/>
        <pt x="240" y="207" on="0"/>
        <pt x="271" y="187" on="0"/>
        <pt x="308" y="187" on="1"/>
        <pt x="337" y="187" on="0"/>
        <pt x="362" y="192" on="1"/>
        <pt x="362" y="159" on="1"/>
        <pt x="337" y="154" on="0"/>
        <pt x="302" y="154" on="1"/>
      </contour>
    </TTGlyph>
    <TTGlyph name="currency" xMin="53" yMin="-6" xMax="532" yMax="695">
      <contour>
        <pt x="54" y="21" on="1"/>
        <pt x="153" y="120" on="1"/>
        <pt x="135" y="147" on="0"/>
        <pt x="124" y="249" on="0"/>
        <pt x="124" y="346" on="1"/>
        <pt x="124" y="440" on="0"/>
        <pt x="135" y="540" on="0"/>
        <pt x="152" y="568" on="1"/>
        <pt x="53" y="667" on="1"/>
        <pt x="81" y="695" on="1"/>
        <pt x="180" y="595" on="1"/>
        <pt x="214" y="617" on="0"/>
        <pt x="292" y="617" on="1"/>
        <pt x="333" y="617" on="0"/>
        <pt x="387" y="606" on="0"/>
        <pt x="405" y="594" on="1"/>
        <pt x="505" y="694" on="1"/>
        <pt x="532" y="666" on="1"/>
        <pt x="433" y="567" on="1"/>
        <pt x="450" y="539" on="0"/>
        <pt x="461" y="439" on="0"/>
        <pt x="461" y="346" on="1"/>
        <pt x="461" y="250" on="0"/>
        <pt x="450" y="148" on="0"/>
        <pt x="433" y="120" on="1"/>
        <pt x="532" y="22" on="1"/>
        <pt x="504" y="-6" on="1"/>
        <pt x="405" y="94" on="1"/>
        <pt x="388" y="82" on="0"/>
        <pt x="334" y="72" on="0"/>
        <pt x="292" y="72" on="1"/>
        <pt x="251" y="72" on="0"/>
        <pt x="198" y="81" on="0"/>
        <pt x="181" y="93" on="1"/>
        <pt x="81" y="-6" on="1"/>
      </contour>
      <contour>
        <pt x="354" y="111" on="0"/>
        <pt x="404" y="145" on="0"/>
        <pt x="416" y="233" on="0"/>
        <pt x="416" y="346" on="1"/>
        <pt x="416" y="456" on="0"/>
        <pt x="403" y="543" on="0"/>
        <pt x="354" y="577" on="0"/>
        <pt x="292" y="577" on="1"/>
        <pt x="231" y="577" on="0"/>
        <pt x="181" y="543" on="0"/>
        <pt x="168" y="456" on="0"/>
        <pt x="168" y="346" on="1"/>
        <pt x="168" y="234" on="0"/>
        <pt x="181" y="145" on="0"/>
        <pt x="231" y="111" on="0"/>
        <pt x="292" y="111" on="1"/>
      </contour>
    </TTGlyph>
    <TTGlyph name="d" xMin="53" yMin="-8" xMax="383" yMax="743">
      <contour>
        <pt x="142" y="-8" on="0"/>
        <pt x="77" y="35" on="0"/>
        <pt x="53" y="145" on="0"/>
        <pt x="53" y="255" on="1"/>
        <pt x="53" y="365" on="0"/>
        <pt x="77" y="475" on="0"/>
        <pt x="141" y="518" on="0"/>
        <pt x="207" y="518" on="1"/>
        <pt x="260" y="518" on="0"/>
        <pt x="322" y="483" on="0"/>
        <pt x="335" y="443" on="1"/>
        <pt x="339" y="443" on="1"/>
        <pt x="339" y="743" on="1"/>
        <pt x="383" y="743" on="1"/>
        <pt x="383" y="0" on="1"/>
        <pt x="347" y="0" on="1"/>
        <pt x="343" y="76" on="1"/>
        <pt x="339" y="76" on="1"/>
        <pt x="325" y="26" on="0"/>
        <pt x="258" y="-8" on="0"/>
        <pt x="207" y="-8" on="1"/>
      </contour>
      <contour>
        <pt x="265" y="32" on="0"/>
        <pt x="318" y="67" on="0"/>
        <pt x="327" y="104" on="1"/>
        <pt x="335" y="135" on="0"/>
        <pt x="339" y="206" on="0"/>
        <pt x="339" y="267" on="1"/>
        <pt x="339" y="352" on="0"/>
        <pt x="329" y="396" on="1"/>
        <pt x="319" y="440" on="0"/>
        <pt x="264" y="478" on="0"/>
        <pt x="215" y="478" on="1"/>
        <pt x="161" y="478" on="0"/>
        <pt x="114" y="447" on="0"/>
        <pt x="97" y="357" on="0"/>
        <pt x="97" y="255" on="1"/>
        <pt x="97" y="152" on="0"/>
        <pt x="114" y="63" on="0"/>
        <pt x="163" y="32" on="0"/>
        <pt x="219" y="32" on="1"/>
      </contour>
    </TTGlyph>
    <TTGlyph name="dagger" xMin="44" yMin="0" xMax="282" yMax="688">
      <contour>
        <pt x="139" y="462" on="1"/>
        <pt x="44" y="468" on="1"/>
        <pt x="44" y="498" on="1"/>
        <pt x="139" y="505" on="1"/>
        <pt x="145" y="688" on="1"/>
        <pt x="176" y="688" on="1"/>
        <pt x="182" y="505" on="1"/>
        <pt x="282" y="498" on="1"/>
        <pt x="282" y="468" on="1"/>
        <pt x="182" y="462" on="1"/>
        <pt x="176" y="0" on="1"/>
        <pt x="145" y="0" on="1"/>
      </contour>
    </TTGlyph>
    <TTGlyph name="daggerdbl" xMin="44" yMin="0" xMax="282" yMax="688">
      <contour>
        <pt x="139" y="183" on="1"/>
        <pt x="44" y="190" on="1"/>
        <pt x="44" y="219" on="1"/>
        <pt x="139" y="226" on="1"/>
        <pt x="139" y="462" on="1"/>
        <pt x="44" y="468" on="1"/>
        <pt x="44" y="498" on="1"/>
        <pt x="139" y="505" on="1"/>
        <pt x="145" y="688" on="1"/>
        <pt x="176" y="688" on="1"/>
        <pt x="182" y="505" on="1"/>
        <pt x="282" y="498" on="1"/>
        <pt x="282" y="468" on="1"/>
        <pt x="182" y="462" on="1"/>
        <pt x="182" y="226" on="1"/>
        <pt x="282" y="219" on="1"/>
        <pt x="282" y="190" on="1"/>
        <pt x="182" y="183" on="1"/>
        <pt x="176" y="0" on="1"/>
        <pt x="145" y="0" on="1"/>
      </contour>
    </TTGlyph>
    <TTGlyph name="dcaron" xMin="53" yMin="-8" xMax="479" yMax="743">
      <component glyphName="d" x="0" y="0" flags="0x0"/>
      <component glyphName="caron.loclCSY" x="384" y="0" flags="0x0"/>
    </TTGlyph>
    <TTGlyph name="dcroat" xMin="53" yMin="-8" xMax="441" yMax="743">
      <contour>
        <pt x="441" y="649" on="1"/>
        <pt x="383" y="649" on="1"/>
        <pt x="383" y="0" on="1"/>
        <pt x="347" y="0" on="1"/>
        <pt x="343" y="76" on="1"/>
        <pt x="339" y="76" on="1"/>
        <pt x="325" y="26" on="0"/>
        <pt x="258" y="-8" on="0"/>
        <pt x="207" y="-8" on="1"/>
        <pt x="142" y="-8" on="0"/>
        <pt x="77" y="35" on="0"/>
        <pt x="53" y="145" on="0"/>
        <pt x="53" y="255" on="1"/>
        <pt x="53" y="365" on="0"/>
        <pt x="77" y="475" on="0"/>
        <pt x="141" y="518" on="0"/>
        <pt x="207" y="518" on="1"/>
        <pt x="260" y="518" on="0"/>
        <pt x="322" y="483" on="0"/>
        <pt x="335" y="443" on="1"/>
        <pt x="339" y="443" on="1"/>
        <pt x="339" y="649" on="1"/>
        <pt x="215" y="649" on="1"/>
        <pt x="215" y="688" on="1"/>
        <pt x="339" y="688" on="1"/>
        <pt x="339" y="743" on="1"/>
        <pt x="383" y="743" on="1"/>
        <pt x="383" y="688" on="1"/>
        <pt x="441" y="688" on="1"/>
      </contour>
      <contour>
        <pt x="335" y="135" on="0"/>
        <pt x="339" y="206" on="0"/>
        <pt x="339" y="267" on="1"/>
        <pt x="339" y="352" on="0"/>
        <pt x="329" y="396" on="1"/>
        <pt x="319" y="440" on="0"/>
        <pt x="264" y="478" on="0"/>
        <pt x="215" y="478" on="1"/>
        <pt x="161" y="478" on="0"/>
        <pt x="114" y="447" on="0"/>
        <pt x="97" y="357" on="0"/>
        <pt x="97" y="255" on="1"/>
        <pt x="97" y="152" on="0"/>
        <pt x="114" y="63" on="0"/>
        <pt x="163" y="32" on="0"/>
        <pt x="219" y="32" on="1"/>
        <pt x="265" y="32" on="0"/>
        <pt x="318" y="67" on="0"/>
        <pt x="327" y="104" on="1"/>
      </contour>
    </TTGlyph>
    <TTGlyph name="degree" xMin="55" yMin="397" xMax="257" yMax="696">
      <contour>
        <pt x="108" y="397" on="0"/>
        <pt x="67" y="422" on="0"/>
        <pt x="55" y="480" on="0"/>
        <pt x="55" y="546" on="1"/>
        <pt x="55" y="612" on="0"/>
        <pt x="67" y="671" on="0"/>
        <pt x="108" y="696" on="0"/>
        <pt x="156" y="696" on="1"/>
        <pt x="204" y="696" on="0"/>
        <pt x="245" y="671" on="0"/>
        <pt x="257" y="612" on="0"/>
        <pt x="257" y="546" on="1"/>
        <pt x="257" y="480" on="0"/>
        <pt x="245" y="422" on="0"/>
        <pt x="204" y="397" on="0"/>
        <pt x="156" y="397" on="1"/>
      </contour>
      <contour>
        <pt x="187" y="431" on="0"/>
        <pt x="212" y="449" on="0"/>
        <pt x="218" y="492" on="0"/>
        <pt x="218" y="546" on="1"/>
        <pt x="218" y="600" on="0"/>
        <pt x="212" y="643" on="0"/>
        <pt x="187" y="662" on="0"/>
        <pt x="156" y="662" on="1"/>
        <pt x="125" y="662" on="0"/>
        <pt x="100" y="643" on="0"/>
        <pt x="94" y="600" on="0"/>
        <pt x="94" y="546" on="1"/>
        <pt x="94" y="492" on="0"/>
        <pt x="100" y="449" on="0"/>
        <pt x="125" y="431" on="0"/>
        <pt x="156" y="431" on="1"/>
      </contour>
    </TTGlyph>
    <TTGlyph name="dialog" xMin="59" yMin="-212" xMax="746" yMax="688">
      <contour>
        <pt x="306" y="-127" on="1"/>
        <pt x="494" y="60" on="1"/>
        <pt x="686" y="60" on="1"/>
        <pt x="686" y="628" on="1"/>
        <pt x="119" y="628" on="1"/>
        <pt x="119" y="60" on="1"/>
        <pt x="306" y="60" on="1"/>
        <pt x="306" y="0" on="1"/>
        <pt x="59" y="0" on="1"/>
        <pt x="59" y="688" on="1"/>
        <pt x="746" y="688" on="1"/>
        <pt x="746" y="0" on="1"/>
        <pt x="519" y="0" on="1"/>
        <pt x="306" y="-212" on="1"/>
      </contour>
    </TTGlyph>
    <TTGlyph name="dieresis" xMin="23" yMin="665" xMax="246" yMax="730">
      <contour>
        <pt x="23" y="730" on="1"/>
        <pt x="72" y="730" on="1"/>
        <pt x="72" y="665" on="1"/>
        <pt x="23" y="665" on="1"/>
      </contour>
      <contour>
        <pt x="198" y="730" on="1"/>
        <pt x="246" y="730" on="1"/>
        <pt x="246" y="665" on="1"/>
        <pt x="198" y="665" on="1"/>
      </contour>
    </TTGlyph>
    <TTGlyph name="divide" xMin="63" yMin="53" xMax="423" yMax="453">
      <contour>
        <pt x="219" y="453" on="1"/>
        <pt x="267" y="453" on="1"/>
        <pt x="267" y="394" on="1"/>
        <pt x="219" y="394" on="1"/>
      </contour>
      <contour>
        <pt x="63" y="272" on="1"/>
        <pt x="423" y="272" on="1"/>
        <pt x="423" y="233" on="1"/>
        <pt x="63" y="233" on="1"/>
      </contour>
      <contour>
        <pt x="219" y="111" on="1"/>
        <pt x="267" y="111" on="1"/>
        <pt x="267" y="53" on="1"/>
        <pt x="219" y="53" on="1"/>
      </contour>
    </TTGlyph>
    <TTGlyph name="dollar" xMin="58" yMin="-8" xMax="362" yMax="696">
      <contour>
        <pt x="362" y="138" on="0"/>
        <pt x="302" y="73" on="0"/>
        <pt x="234" y="68" on="1"/>
        <pt x="234" y="-8" on="1"/>
        <pt x="194" y="-8" on="1"/>
        <pt x="194" y="67" on="1"/>
        <pt x="109" y="71" on="0"/>
        <pt x="70" y="80" on="1"/>
        <pt x="70" y="120" on="1"/>
        <pt x="129" y="109" on="0"/>
        <pt x="194" y="108" on="1"/>
        <pt x="194" y="328" on="1"/>
        <pt x="148" y="335" on="1"/>
        <pt x="96" y="342" on="0"/>
        <pt x="58" y="400" on="0"/>
        <pt x="58" y="467" on="1"/>
        <pt x="58" y="548" on="0"/>
        <pt x="122" y="615" on="0"/>
        <pt x="194" y="619" on="1"/>
        <pt x="194" y="696" on="1"/>
        <pt x="234" y="696" on="1"/>
        <pt x="234" y="620" on="1"/>
        <pt x="301" y="618" on="0"/>
        <pt x="341" y="606" on="1"/>
        <pt x="341" y="566" on="1"/>
        <pt x="296" y="575" on="0"/>
        <pt x="234" y="577" on="1"/>
        <pt x="234" y="366" on="1"/>
        <pt x="273" y="361" on="1"/>
        <pt x="309" y="356" on="0"/>
        <pt x="346" y="331" on="0"/>
        <pt x="362" y="273" on="0"/>
        <pt x="362" y="217" on="1"/>
      </contour>
      <contour>
        <pt x="194" y="372" on="1"/>
        <pt x="194" y="578" on="1"/>
        <pt x="148" y="576" on="0"/>
        <pt x="103" y="532" on="0"/>
        <pt x="103" y="474" on="1"/>
        <pt x="103" y="433" on="0"/>
        <pt x="113" y="394" on="0"/>
        <pt x="137" y="379" on="0"/>
        <pt x="161" y="376" on="1"/>
      </contour>
      <contour>
        <pt x="280" y="112" on="0"/>
        <pt x="317" y="160" on="0"/>
        <pt x="317" y="217" on="1"/>
        <pt x="317" y="261" on="0"/>
        <pt x="307" y="302" on="0"/>
        <pt x="285" y="316" on="0"/>
        <pt x="261" y="319" on="1"/>
        <pt x="234" y="323" on="1"/>
        <pt x="234" y="109" on="1"/>
      </contour>
    </TTGlyph>
    <TTGlyph name="dotaccent" xMin="20" yMin="665" xMax="68" yMax="730">
      <contour>
        <pt x="20" y="730" on="1"/>
        <pt x="68" y="730" on="1"/>
        <pt x="68" y="665" on="1"/>
        <pt x="20" y="665" on="1"/>
      </contour>
    </TTGlyph>
    <TTGlyph name="dotbelowcomb" xMin="-111" yMin="-133" xMax="-56" yMax="-62">
      <contour>
        <pt x="-111" y="-62" on="1"/>
        <pt x="-56" y="-62" on="1"/>
        <pt x="-56" y="-133" on="1"/>
        <pt x="-111" y="-133" on="1"/>
      </contour>
    </TTGlyph>
    <TTGlyph name="dotlessi" xMin="71" yMin="0" xMax="115" yMax="510">
      <contour>
        <pt x="71" y="510" on="1"/>
        <pt x="115" y="510" on="1"/>
        <pt x="115" y="0" on="1"/>
        <pt x="71" y="0" on="1"/>
      </contour>
    </TTGlyph>
    <TTGlyph name="e" xMin="53" yMin="-8" xMax="377" yMax="518">
      <contour>
        <pt x="377" y="240" on="1"/>
        <pt x="97" y="240" on="1"/>
        <pt x="97" y="148" on="0"/>
        <pt x="114" y="64" on="0"/>
        <pt x="170" y="31" on="0"/>
        <pt x="232" y="31" on="1"/>
        <pt x="262" y="31" on="0"/>
        <pt x="335" y="39" on="0"/>
        <pt x="362" y="45" on="1"/>
        <pt x="362" y="5" on="1"/>
        <pt x="339" y="0" on="0"/>
        <pt x="262" y="-8" on="0"/>
        <pt x="226" y="-8" on="1"/>
        <pt x="149" y="-8" on="0"/>
        <pt x="77" y="36" on="0"/>
        <pt x="53" y="143" on="0"/>
        <pt x="53" y="254" on="1"/>
        <pt x="53" y="367" on="0"/>
        <pt x="72" y="469" on="0"/>
        <pt x="143" y="518" on="0"/>
        <pt x="224" y="518" on="1"/>
        <pt x="296" y="518" on="0"/>
        <pt x="359" y="472" on="0"/>
        <pt x="377" y="369" on="0"/>
        <pt x="377" y="256" on="1"/>
      </contour>
      <contour>
        <pt x="164" y="479" on="0"/>
        <pt x="113" y="451" on="0"/>
        <pt x="97" y="371" on="0"/>
        <pt x="97" y="278" on="1"/>
        <pt x="333" y="278" on="1"/>
        <pt x="333" y="296" on="1"/>
        <pt x="333" y="379" on="0"/>
        <pt x="314" y="455" on="0"/>
        <pt x="269" y="479" on="0"/>
        <pt x="222" y="479" on="1"/>
      </contour>
    </TTGlyph>
    <TTGlyph name="eacute" xMin="53" yMin="-8" xMax="377" yMax="743">
      <component glyphName="e" x="0" y="0" flags="0x0"/>
      <component glyphName="acute" x="195" y="0" flags="0x0"/>
    </TTGlyph>
    <TTGlyph name="ebreve" xMin="53" yMin="-8" xMax="377" yMax="743">
      <component glyphName="e" x="0" y="0" flags="0x0"/>
      <component glyphName="uni0306" x="327" y="0" flags="0x0"/>
    </TTGlyph>
    <TTGlyph name="ecaron" xMin="53" yMin="-8" xMax="377" yMax="743">
      <component glyphName="e" x="0" y="0" flags="0x0"/>
      <component glyphName="uni030C" x="328" y="0" flags="0x0"/>
    </TTGlyph>
    <TTGlyph name="ecircumflex" xMin="53" yMin="-8" xMax="377" yMax="743">
      <component glyphName="e" x="0" y="0" flags="0x0"/>
      <component glyphName="circumflex" x="104" y="0" flags="0x0"/>
    </TTGlyph>
    <TTGlyph name="edieresis" xMin="53" yMin="-8" xMax="377" yMax="729">
      <component glyphName="e" x="0" y="0" flags="0x0"/>
      <component glyphName="dieresis" x="84" y="-1" flags="0x4"/>
    </TTGlyph>
    <TTGlyph name="edotaccent" xMin="53" yMin="-8" xMax="377" yMax="730">
      <component glyphName="e" x="0" y="0" flags="0x0"/>
      <component glyphName="uni0307" x="258" y="0" flags="0x0"/>
    </TTGlyph>
    <TTGlyph name="egrave" xMin="53" yMin="-8" xMax="377" yMax="743">
      <component glyphName="e" x="0" y="0" flags="0x0"/>
      <component glyphName="grave" x="129" y="0" flags="0x0"/>
    </TTGlyph>
    <TTGlyph name="eight" xMin="56" yMin="-8" xMax="435" yMax="696">
      <contour>
        <pt x="167" y="-8" on="0"/>
        <pt x="85" y="33" on="0"/>
        <pt x="56" y="114" on="0"/>
        <pt x="56" y="184" on="1"/>
        <pt x="56" y="242" on="0"/>
        <pt x="76" y="308" on="0"/>
        <pt x="115" y="340" on="0"/>
        <pt x="148" y="349" on="1"/>
        <pt x="148" y="353" on="1"/>
        <pt x="103" y="364" on="0"/>
        <pt x="61" y="440" on="0"/>
        <pt x="61" y="515" on="1"/>
        <pt x="61" y="582" on="0"/>
        <pt x="93" y="659" on="0"/>
        <pt x="173" y="696" on="0"/>
        <pt x="246" y="696" on="1"/>
        <pt x="319" y="696" on="0"/>
        <pt x="398" y="659" on="0"/>
        <pt x="430" y="582" on="0"/>
        <pt x="430" y="515" on="1"/>
        <pt x="430" y="440" on="0"/>
        <pt x="389" y="364" on="0"/>
        <pt x="343" y="353" on="1"/>
        <pt x="343" y="349" on="1"/>
        <pt x="376" y="340" on="0"/>
        <pt x="415" y="308" on="0"/>
        <pt x="435" y="242" on="0"/>
        <pt x="435" y="184" on="1"/>
        <pt x="435" y="114" on="0"/>
        <pt x="406" y="33" on="0"/>
        <pt x="325" y="-8" on="0"/>
        <pt x="246" y="-8" on="1"/>
      </contour>
      <contour>
        <pt x="303" y="369" on="0"/>
        <pt x="361" y="394" on="0"/>
        <pt x="385" y="454" on="0"/>
        <pt x="385" y="511" on="1"/>
        <pt x="385" y="569" on="0"/>
        <pt x="363" y="629" on="0"/>
        <pt x="304" y="654" on="0"/>
        <pt x="246" y="654" on="1"/>
        <pt x="187" y="654" on="0"/>
        <pt x="129" y="629" on="0"/>
        <pt x="107" y="569" on="0"/>
        <pt x="107" y="511" on="1"/>
        <pt x="107" y="454" on="0"/>
        <pt x="130" y="394" on="0"/>
        <pt x="189" y="369" on="0"/>
        <pt x="246" y="369" on="1"/>
      </contour>
      <contour>
        <pt x="303" y="34" on="0"/>
        <pt x="363" y="57" on="0"/>
        <pt x="389" y="118" on="0"/>
        <pt x="389" y="179" on="1"/>
        <pt x="389" y="244" on="0"/>
        <pt x="366" y="305" on="0"/>
        <pt x="307" y="327" on="0"/>
        <pt x="246" y="327" on="1"/>
        <pt x="184" y="327" on="0"/>
        <pt x="125" y="305" on="0"/>
        <pt x="102" y="244" on="0"/>
        <pt x="102" y="179" on="1"/>
        <pt x="102" y="118" on="0"/>
        <pt x="128" y="57" on="0"/>
        <pt x="188" y="34" on="0"/>
        <pt x="246" y="34" on="1"/>
      </contour>
    </TTGlyph>
    <TTGlyph name="eight.dnom" xMin="34" yMin="-4" xMax="263" yMax="382">
      <contour>
        <pt x="102" y="-4" on="0"/>
        <pt x="53" y="18" on="0"/>
        <pt x="34" y="63" on="0"/>
        <pt x="34" y="101" on="1"/>
        <pt x="34" y="147" on="0"/>
        <pt x="60" y="184" on="0"/>
        <pt x="89" y="192" on="1"/>
        <pt x="89" y="194" on="1"/>
        <pt x="62" y="200" on="0"/>
        <pt x="37" y="242" on="0"/>
        <pt x="37" y="283" on="1"/>
        <pt x="37" y="337" on="0"/>
        <pt x="85" y="382" on="0"/>
        <pt x="149" y="382" on="1"/>
        <pt x="212" y="382" on="0"/>
        <pt x="261" y="337" on="0"/>
        <pt x="261" y="283" on="1"/>
        <pt x="261" y="242" on="0"/>
        <pt x="235" y="200" on="0"/>
        <pt x="208" y="194" on="1"/>
        <pt x="208" y="192" on="1"/>
        <pt x="238" y="184" on="0"/>
        <pt x="263" y="147" on="0"/>
        <pt x="263" y="101" on="1"/>
        <pt x="263" y="63" on="0"/>
        <pt x="245" y="18" on="0"/>
        <pt x="196" y="-4" on="0"/>
        <pt x="149" y="-4" on="1"/>
      </contour>
      <contour>
        <pt x="180" y="208" on="0"/>
        <pt x="210" y="219" on="0"/>
        <pt x="222" y="249" on="0"/>
        <pt x="222" y="278" on="1"/>
        <pt x="222" y="307" on="0"/>
        <pt x="211" y="336" on="0"/>
        <pt x="180" y="348" on="0"/>
        <pt x="149" y="348" on="1"/>
        <pt x="118" y="348" on="0"/>
        <pt x="87" y="336" on="0"/>
        <pt x="75" y="307" on="0"/>
        <pt x="75" y="278" on="1"/>
        <pt x="75" y="249" on="0"/>
        <pt x="87" y="219" on="0"/>
        <pt x="118" y="208" on="0"/>
        <pt x="149" y="208" on="1"/>
      </contour>
      <contour>
        <pt x="180" y="29" on="0"/>
        <pt x="212" y="40" on="0"/>
        <pt x="226" y="70" on="0"/>
        <pt x="226" y="101" on="1"/>
        <pt x="226" y="133" on="0"/>
        <pt x="213" y="163" on="0"/>
        <pt x="182" y="174" on="0"/>
        <pt x="149" y="174" on="1"/>
        <pt x="116" y="174" on="0"/>
        <pt x="85" y="163" on="0"/>
        <pt x="72" y="133" on="0"/>
        <pt x="72" y="101" on="1"/>
        <pt x="72" y="70" on="0"/>
        <pt x="86" y="40" on="0"/>
        <pt x="118" y="29" on="0"/>
        <pt x="149" y="29" on="1"/>
      </contour>
    </TTGlyph>
    <TTGlyph name="eight.numr" xMin="34" yMin="304" xMax="263" yMax="690">
      <component glyphName="eight.dnom" x="0" y="308" flags="0x4"/>
    </TTGlyph>
    <TTGlyph name="eight.tnum" xMin="53" yMin="-8" xMax="432" yMax="696">
      <contour>
        <pt x="164" y="-8" on="0"/>
        <pt x="82" y="33" on="0"/>
        <pt x="53" y="114" on="0"/>
        <pt x="53" y="184" on="1"/>
        <pt x="53" y="242" on="0"/>
        <pt x="73" y="308" on="0"/>
        <pt x="112" y="340" on="0"/>
        <pt x="145" y="349" on="1"/>
        <pt x="145" y="353" on="1"/>
        <pt x="100" y="364" on="0"/>
        <pt x="58" y="440" on="0"/>
        <pt x="58" y="515" on="1"/>
        <pt x="58" y="582" on="0"/>
        <pt x="90" y="659" on="0"/>
        <pt x="170" y="696" on="0"/>
        <pt x="243" y="696" on="1"/>
        <pt x="316" y="696" on="0"/>
        <pt x="395" y="659" on="0"/>
        <pt x="427" y="582" on="0"/>
        <pt x="427" y="515" on="1"/>
        <pt x="427" y="440" on="0"/>
        <pt x="385" y="364" on="0"/>
        <pt x="340" y="353" on="1"/>
        <pt x="340" y="349" on="1"/>
        <pt x="373" y="340" on="0"/>
        <pt x="412" y="308" on="0"/>
        <pt x="432" y="242" on="0"/>
        <pt x="432" y="184" on="1"/>
        <pt x="432" y="114" on="0"/>
        <pt x="403" y="33" on="0"/>
        <pt x="322" y="-8" on="0"/>
        <pt x="243" y="-8" on="1"/>
      </contour>
      <contour>
        <pt x="300" y="369" on="0"/>
        <pt x="358" y="394" on="0"/>
        <pt x="381" y="454" on="0"/>
        <pt x="381" y="511" on="1"/>
        <pt x="381" y="569" on="0"/>
        <pt x="359" y="629" on="0"/>
        <pt x="301" y="654" on="0"/>
        <pt x="243" y="654" on="1"/>
        <pt x="184" y="654" on="0"/>
        <pt x="126" y="629" on="0"/>
        <pt x="104" y="569" on="0"/>
        <pt x="104" y="511" on="1"/>
        <pt x="104" y="454" on="0"/>
        <pt x="127" y="394" on="0"/>
        <pt x="186" y="369" on="0"/>
        <pt x="243" y="369" on="1"/>
      </contour>
      <contour>
        <pt x="300" y="34" on="0"/>
        <pt x="360" y="57" on="0"/>
        <pt x="386" y="118" on="0"/>
        <pt x="386" y="179" on="1"/>
        <pt x="386" y="244" on="0"/>
        <pt x="363" y="305" on="0"/>
        <pt x="304" y="327" on="0"/>
        <pt x="243" y="327" on="1"/>
        <pt x="181" y="327" on="0"/>
        <pt x="122" y="305" on="0"/>
        <pt x="99" y="244" on="0"/>
        <pt x="99" y="179" on="1"/>
        <pt x="99" y="118" on="0"/>
        <pt x="125" y="57" on="0"/>
        <pt x="185" y="34" on="0"/>
        <pt x="243" y="34" on="1"/>
      </contour>
    </TTGlyph>
    <TTGlyph name="ellipsis" xMin="57" yMin="0" xMax="448" yMax="71">
      <contour>
        <pt x="57" y="71" on="1"/>
        <pt x="112" y="71" on="1"/>
        <pt x="112" y="0" on="1"/>
        <pt x="57" y="0" on="1"/>
      </contour>
      <contour>
        <pt x="225" y="71" on="1"/>
        <pt x="280" y="71" on="1"/>
        <pt x="280" y="0" on="1"/>
        <pt x="225" y="0" on="1"/>
      </contour>
      <contour>
        <pt x="394" y="71" on="1"/>
        <pt x="448" y="71" on="1"/>
        <pt x="448" y="0" on="1"/>
        <pt x="394" y="0" on="1"/>
      </contour>
    </TTGlyph>
    <TTGlyph name="emacron" xMin="53" yMin="-8" xMax="377" yMax="743">
      <component glyphName="e" x="0" y="0" flags="0x0"/>
      <component glyphName="uni0304" x="368" y="0" flags="0x0"/>
    </TTGlyph>
    <TTGlyph name="emdash" xMin="60" yMin="284" xMax="764" yMax="324">
      <contour>
        <pt x="60" y="324" on="1"/>
        <pt x="764" y="324" on="1"/>
        <pt x="764" y="284" on="1"/>
        <pt x="60" y="284" on="1"/>
      </contour>
    </TTGlyph>
    <TTGlyph name="endash" xMin="60" yMin="284" xMax="364" yMax="324">
      <contour>
        <pt x="60" y="324" on="1"/>
        <pt x="364" y="324" on="1"/>
        <pt x="364" y="284" on="1"/>
        <pt x="60" y="284" on="1"/>
      </contour>
    </TTGlyph>
    <TTGlyph name="eng" xMin="71" yMin="-193" xMax="389" yMax="518">
      <contour>
        <pt x="309" y="518" on="0"/>
        <pt x="369" y="479" on="0"/>
        <pt x="389" y="398" on="0"/>
        <pt x="389" y="321" on="1"/>
        <pt x="389" y="-87" on="1"/>
        <pt x="389" y="-136" on="0"/>
        <pt x="365" y="-181" on="0"/>
        <pt x="318" y="-193" on="0"/>
        <pt x="271" y="-193" on="1"/>
        <pt x="271" y="-156" on="1"/>
        <pt x="305" y="-156" on="0"/>
        <pt x="336" y="-146" on="0"/>
        <pt x="345" y="-124" on="0"/>
        <pt x="345" y="-100" on="1"/>
        <pt x="345" y="310" on="1"/>
        <pt x="345" y="386" on="0"/>
        <pt x="329" y="454" on="0"/>
        <pt x="284" y="478" on="0"/>
        <pt x="235" y="478" on="1"/>
        <pt x="178" y="478" on="0"/>
        <pt x="127" y="425" on="0"/>
        <pt x="115" y="342" on="0"/>
        <pt x="115" y="264" on="1"/>
        <pt x="115" y="0" on="1"/>
        <pt x="71" y="0" on="1"/>
        <pt x="71" y="510" on="1"/>
        <pt x="107" y="510" on="1"/>
        <pt x="110" y="434" on="1"/>
        <pt x="115" y="434" on="1"/>
        <pt x="126" y="473" on="0"/>
        <pt x="186" y="518" on="0"/>
        <pt x="249" y="518" on="1"/>
      </contour>
    </TTGlyph>
    <TTGlyph name="eogonek" xMin="53" yMin="-196" xMax="377" yMax="518">
      <contour>
        <pt x="377" y="240" on="1"/>
        <pt x="97" y="240" on="1"/>
        <pt x="97" y="148" on="0"/>
        <pt x="114" y="64" on="0"/>
        <pt x="170" y="31" on="0"/>
        <pt x="232" y="31" on="1"/>
        <pt x="262" y="31" on="0"/>
        <pt x="335" y="39" on="0"/>
        <pt x="362" y="45" on="1"/>
        <pt x="362" y="5" on="1"/>
        <pt x="337" y="-14" on="0"/>
        <pt x="291" y="-87" on="0"/>
        <pt x="291" y="-116" on="1"/>
        <pt x="291" y="-135" on="0"/>
        <pt x="314" y="-160" on="0"/>
        <pt x="338" y="-160" on="1"/>
        <pt x="355" y="-159" on="1"/>
        <pt x="355" y="-195" on="1"/>
        <pt x="346" y="-196" on="0"/>
        <pt x="329" y="-196" on="1"/>
        <pt x="288" y="-196" on="0"/>
        <pt x="250" y="-156" on="0"/>
        <pt x="250" y="-125" on="1"/>
        <pt x="250" y="-95" on="0"/>
        <pt x="283" y="-31" on="0"/>
        <pt x="311" y="-3" on="1"/>
        <pt x="268" y="-8" on="0"/>
        <pt x="226" y="-8" on="1"/>
        <pt x="149" y="-8" on="0"/>
        <pt x="77" y="36" on="0"/>
        <pt x="53" y="143" on="0"/>
        <pt x="53" y="254" on="1"/>
        <pt x="53" y="367" on="0"/>
        <pt x="72" y="469" on="0"/>
        <pt x="143" y="518" on="0"/>
        <pt x="224" y="518" on="1"/>
        <pt x="296" y="518" on="0"/>
        <pt x="359" y="472" on="0"/>
        <pt x="377" y="369" on="0"/>
        <pt x="377" y="256" on="1"/>
      </contour>
      <contour>
        <pt x="164" y="479" on="0"/>
        <pt x="113" y="451" on="0"/>
        <pt x="97" y="371" on="0"/>
        <pt x="97" y="278" on="1"/>
        <pt x="333" y="278" on="1"/>
        <pt x="333" y="296" on="1"/>
        <pt x="333" y="379" on="0"/>
        <pt x="314" y="455" on="0"/>
        <pt x="269" y="479" on="0"/>
        <pt x="222" y="479" on="1"/>
      </contour>
    </TTGlyph>
    <TTGlyph name="equal" xMin="63" yMin="143" xMax="423" yMax="363">
      <contour>
        <pt x="63" y="363" on="1"/>
        <pt x="423" y="363" on="1"/>
        <pt x="423" y="323" on="1"/>
        <pt x="63" y="323" on="1"/>
      </contour>
      <contour>
        <pt x="63" y="183" on="1"/>
        <pt x="423" y="183" on="1"/>
        <pt x="423" y="143" on="1"/>
        <pt x="63" y="143" on="1"/>
      </contour>
    </TTGlyph>
    <TTGlyph name="estimated" xMin="61" yMin="-8" xMax="463" yMax="696">
      <contour>
        <pt x="107" y="175" on="0"/>
        <pt x="128" y="57" on="0"/>
        <pt x="188" y="26" on="0"/>
        <pt x="263" y="26" on="1"/>
        <pt x="329" y="26" on="0"/>
        <pt x="389" y="46" on="0"/>
        <pt x="419" y="118" on="0"/>
        <pt x="423" y="200" on="1"/>
        <pt x="459" y="200" on="1"/>
        <pt x="454" y="110" on="0"/>
        <pt x="419" y="23" on="0"/>
        <pt x="341" y="-8" on="0"/>
        <pt x="262" y="-8" on="1"/>
        <pt x="166" y="-8" on="0"/>
        <pt x="85" y="42" on="0"/>
        <pt x="61" y="180" on="0"/>
        <pt x="61" y="344" on="1"/>
        <pt x="61" y="508" on="0"/>
        <pt x="85" y="646" on="0"/>
        <pt x="166" y="696" on="0"/>
        <pt x="262" y="696" on="1"/>
        <pt x="358" y="696" on="0"/>
        <pt x="439" y="646" on="0"/>
        <pt x="463" y="508" on="0"/>
        <pt x="463" y="344" on="1"/>
        <pt x="463" y="323" on="1"/>
        <pt x="106" y="323" on="1"/>
      </contour>
      <contour>
        <pt x="187" y="662" on="0"/>
        <pt x="128" y="630" on="0"/>
        <pt x="107" y="509" on="0"/>
        <pt x="106" y="357" on="1"/>
        <pt x="418" y="357" on="1"/>
        <pt x="417" y="509" on="0"/>
        <pt x="396" y="630" on="0"/>
        <pt x="337" y="662" on="0"/>
        <pt x="262" y="662" on="1"/>
      </contour>
    </TTGlyph>
    <TTGlyph name="eth" xMin="53" yMin="-8" xMax="389" yMax="743">
      <contour>
        <pt x="141" y="-8" on="0"/>
        <pt x="72" y="35" on="0"/>
        <pt x="53" y="136" on="0"/>
        <pt x="53" y="254" on="1"/>
        <pt x="53" y="372" on="0"/>
        <pt x="72" y="475" on="0"/>
        <pt x="139" y="518" on="0"/>
        <pt x="217" y="518" on="1"/>
        <pt x="286" y="518" on="0"/>
        <pt x="322" y="484" on="1"/>
        <pt x="326" y="486" on="1"/>
        <pt x="305" y="575" on="0"/>
        <pt x="268" y="642" on="1"/>
        <pt x="166" y="626" on="1"/>
        <pt x="166" y="662" on="1"/>
        <pt x="248" y="675" on="1"/>
        <pt x="229" y="704" on="0"/>
        <pt x="198" y="739" on="1"/>
        <pt x="198" y="743" on="1"/>
        <pt x="248" y="743" on="1"/>
        <pt x="274" y="715" on="0"/>
        <pt x="295" y="683" on="1"/>
        <pt x="374" y="696" on="1"/>
        <pt x="374" y="659" on="1"/>
        <pt x="314" y="650" on="1"/>
        <pt x="339" y="599" on="0"/>
        <pt x="375" y="472" on="0"/>
        <pt x="382" y="412" on="1"/>
        <pt x="389" y="354" on="0"/>
        <pt x="389" y="277" on="1"/>
        <pt x="389" y="146" on="0"/>
        <pt x="372" y="38" on="0"/>
        <pt x="304" y="-8" on="0"/>
        <pt x="221" y="-8" on="1"/>
      </contour>
      <contour>
        <pt x="283" y="31" on="0"/>
        <pt x="334" y="66" on="0"/>
        <pt x="345" y="148" on="0"/>
        <pt x="345" y="254" on="1"/>
        <pt x="345" y="347" on="0"/>
        <pt x="333" y="432" on="0"/>
        <pt x="281" y="479" on="0"/>
        <pt x="221" y="479" on="1"/>
        <pt x="158" y="479" on="0"/>
        <pt x="108" y="446" on="0"/>
        <pt x="97" y="363" on="0"/>
        <pt x="97" y="254" on="1"/>
        <pt x="97" y="148" on="0"/>
        <pt x="108" y="66" on="0"/>
        <pt x="159" y="31" on="0"/>
        <pt x="221" y="31" on="1"/>
      </contour>
    </TTGlyph>
    <TTGlyph name="exclam" xMin="64" yMin="0" xMax="119" yMax="688">
      <contour>
        <pt x="74" y="199" on="0"/>
        <pt x="73" y="210" on="1"/>
        <pt x="67" y="456" on="0"/>
        <pt x="67" y="551" on="1"/>
        <pt x="67" y="688" on="1"/>
        <pt x="116" y="688" on="1"/>
        <pt x="116" y="551" on="1"/>
        <pt x="116" y="512" on="0"/>
        <pt x="112" y="341" on="0"/>
        <pt x="111" y="292" on="1"/>
        <pt x="108" y="178" on="1"/>
        <pt x="74" y="178" on="1"/>
      </contour>
      <contour>
        <pt x="64" y="71" on="1"/>
        <pt x="119" y="71" on="1"/>
        <pt x="119" y="0" on="1"/>
        <pt x="64" y="0" on="1"/>
      </contour>
    </TTGlyph>
    <TTGlyph name="exclam.case" xMin="64" yMin="0" xMax="119" yMax="688">
      <component glyphName="exclam" x="0" y="0" flags="0x0"/>
    </TTGlyph>
    <TTGlyph name="exclam.ss02" xMin="45" yMin="-8" xMax="749" yMax="696">
      <contour>
        <pt x="302" y="-8" on="0"/>
        <pt x="140" y="87" on="0"/>
        <pt x="45" y="249" on="0"/>
        <pt x="45" y="344" on="1"/>
        <pt x="45" y="439" on="0"/>
        <pt x="140" y="601" on="0"/>
        <pt x="302" y="696" on="0"/>
        <pt x="397" y="696" on="1"/>
        <pt x="492" y="696" on="0"/>
        <pt x="654" y="601" on="0"/>
        <pt x="749" y="439" on="0"/>
        <pt x="749" y="344" on="1"/>
        <pt x="749" y="249" on="0"/>
        <pt x="654" y="87" on="0"/>
        <pt x="492" y="-8" on="0"/>
        <pt x="397" y="-8" on="1"/>
      </contour>
      <contour>
        <pt x="480" y="37" on="0"/>
        <pt x="621" y="120" on="0"/>
        <pt x="704" y="261" on="0"/>
        <pt x="704" y="344" on="1"/>
        <pt x="704" y="427" on="0"/>
        <pt x="621" y="568" on="0"/>
        <pt x="480" y="651" on="0"/>
        <pt x="397" y="651" on="1"/>
        <pt x="314" y="651" on="0"/>
        <pt x="173" y="568" on="0"/>
        <pt x="90" y="427" on="0"/>
        <pt x="90" y="344" on="1"/>
        <pt x="90" y="261" on="0"/>
        <pt x="173" y="120" on="0"/>
        <pt x="314" y="37" on="0"/>
        <pt x="397" y="37" on="1"/>
      </contour>
      <contour>
        <pt x="371" y="307" on="0"/>
        <pt x="363" y="427" on="0"/>
        <pt x="363" y="480" on="1"/>
        <pt x="363" y="579" on="1"/>
        <pt x="431" y="579" on="1"/>
        <pt x="431" y="480" on="1"/>
        <pt x="431" y="427" on="0"/>
        <pt x="423" y="307" on="0"/>
        <pt x="417" y="268" on="1"/>
        <pt x="377" y="268" on="1"/>
      </contour>
      <contour>
        <pt x="363" y="191" on="1"/>
        <pt x="431" y="191" on="1"/>
        <pt x="431" y="109" on="1"/>
        <pt x="363" y="109" on="1"/>
      </contour>
    </TTGlyph>
    <TTGlyph name="exclamdbl" xMin="64" yMin="0" xMax="282" yMax="688">
      <component glyphName="exclam" x="163" y="0" flags="0x0"/>
      <component glyphName="exclam" x="0" y="0" flags="0x0"/>
    </TTGlyph>
    <TTGlyph name="exclamdown" xMin="63" yMin="-178" xMax="118" yMax="510">
      <contour>
        <pt x="63" y="510" on="1"/>
        <pt x="118" y="510" on="1"/>
        <pt x="118" y="439" on="1"/>
        <pt x="63" y="439" on="1"/>
      </contour>
      <contour>
        <pt x="66" y="-41" on="1"/>
        <pt x="66" y="1" on="0"/>
        <pt x="70" y="161" on="1"/>
        <pt x="73" y="332" on="1"/>
        <pt x="107" y="332" on="1"/>
        <pt x="110" y="218" on="1"/>
        <pt x="111" y="169" on="0"/>
        <pt x="115" y="-2" on="0"/>
        <pt x="115" y="-41" on="1"/>
        <pt x="115" y="-178" on="1"/>
        <pt x="66" y="-178" on="1"/>
      </contour>
    </TTGlyph>
    <TTGlyph name="exclamdown.case" xMin="63" yMin="0" xMax="118" yMax="688">
      <component glyphName="exclamdown" x="0" y="178" flags="0x4"/>
    </TTGlyph>
    <TTGlyph name="f" xMin="23" yMin="0" xMax="242" yMax="743">
      <contour>
        <pt x="100" y="471" on="1"/>
        <pt x="23" y="471" on="1"/>
        <pt x="23" y="510" on="1"/>
        <pt x="100" y="510" on="1"/>
        <pt x="100" y="618" on="1"/>
        <pt x="100" y="673" on="0"/>
        <pt x="130" y="726" on="0"/>
        <pt x="188" y="743" on="0"/>
        <pt x="242" y="743" on="1"/>
        <pt x="242" y="706" on="1"/>
        <pt x="202" y="706" on="0"/>
        <pt x="161" y="694" on="0"/>
        <pt x="144" y="660" on="0"/>
        <pt x="144" y="625" on="1"/>
        <pt x="144" y="510" on="1"/>
        <pt x="242" y="510" on="1"/>
        <pt x="242" y="471" on="1"/>
        <pt x="144" y="471" on="1"/>
        <pt x="144" y="0" on="1"/>
        <pt x="100" y="0" on="1"/>
      </contour>
    </TTGlyph>
    <TTGlyph name="f_f" xMin="23" yMin="0" xMax="508" yMax="743">
      <component glyphName="f" x="0" y="0" flags="0x0"/>
      <component glyphName="f" x="266" y="0" flags="0x0"/>
    </TTGlyph>
    <TTGlyph name="fi" xMin="23" yMin="0" xMax="383" yMax="743">
      <component glyphName="f" x="0" y="0" flags="0x0"/>
      <component glyphName="i" x="266" y="0" flags="0x0"/>
    </TTGlyph>
    <TTGlyph name="five" xMin="58" yMin="-8" xMax="389" yMax="688">
      <contour>
        <pt x="144" y="34" on="0"/>
        <pt x="201" y="34" on="1"/>
        <pt x="260" y="34" on="0"/>
        <pt x="321" y="64" on="0"/>
        <pt x="343" y="133" on="0"/>
        <pt x="343" y="198" on="1"/>
        <pt x="343" y="269" on="0"/>
        <pt x="319" y="333" on="0"/>
        <pt x="256" y="355" on="0"/>
        <pt x="187" y="355" on="1"/>
        <pt x="143" y="355" on="0"/>
        <pt x="64" y="341" on="1"/>
        <pt x="64" y="688" on="1"/>
        <pt x="352" y="688" on="1"/>
        <pt x="352" y="646" on="1"/>
        <pt x="109" y="646" on="1"/>
        <pt x="109" y="387" on="1"/>
        <pt x="152" y="397" on="0"/>
        <pt x="219" y="397" on="1"/>
        <pt x="292" y="397" on="0"/>
        <pt x="365" y="356" on="0"/>
        <pt x="389" y="277" on="0"/>
        <pt x="389" y="206" on="1"/>
        <pt x="389" y="123" on="0"/>
        <pt x="359" y="33" on="0"/>
        <pt x="279" y="-8" on="0"/>
        <pt x="203" y="-8" on="1"/>
        <pt x="170" y="-8" on="0"/>
        <pt x="89" y="0" on="0"/>
        <pt x="58" y="7" on="1"/>
        <pt x="58" y="46" on="1"/>
      </contour>
    </TTGlyph>
    <TTGlyph name="five.dnom" xMin="36" yMin="-4" xMax="238" yMax="378">
      <contour>
        <pt x="92" y="30" on="0"/>
        <pt x="119" y="30" on="1"/>
        <pt x="153" y="30" on="0"/>
        <pt x="187" y="45" on="0"/>
        <pt x="200" y="79" on="0"/>
        <pt x="200" y="111" on="1"/>
        <pt x="200" y="146" on="0"/>
        <pt x="186" y="178" on="0"/>
        <pt x="151" y="189" on="0"/>
        <pt x="113" y="189" on="1"/>
        <pt x="78" y="189" on="0"/>
        <pt x="39" y="182" on="1"/>
        <pt x="39" y="378" on="1"/>
        <pt x="217" y="378" on="1"/>
        <pt x="217" y="343" on="1"/>
        <pt x="75" y="343" on="1"/>
        <pt x="75" y="218" on="1"/>
        <pt x="100" y="223" on="0"/>
        <pt x="138" y="223" on="1"/>
        <pt x="180" y="223" on="0"/>
        <pt x="223" y="199" on="0"/>
        <pt x="238" y="155" on="0"/>
        <pt x="238" y="116" on="1"/>
        <pt x="238" y="70" on="0"/>
        <pt x="219" y="19" on="0"/>
        <pt x="171" y="-4" on="0"/>
        <pt x="125" y="-4" on="1"/>
        <pt x="76" y="-4" on="0"/>
        <pt x="36" y="4" on="1"/>
        <pt x="36" y="36" on="1"/>
      </contour>
    </TTGlyph>
    <TTGlyph name="five.numr" xMin="36" yMin="304" xMax="238" yMax="686">
      <contour>
        <pt x="92" y="338" on="0"/>
        <pt x="119" y="338" on="1"/>
        <pt x="153" y="338" on="0"/>
        <pt x="187" y="353" on="0"/>
        <pt x="200" y="387" on="0"/>
        <pt x="200" y="419" on="1"/>
        <pt x="200" y="454" on="0"/>
        <pt x="186" y="486" on="0"/>
        <pt x="151" y="497" on="0"/>
        <pt x="113" y="497" on="1"/>
        <pt x="78" y="497" on="0"/>
        <pt x="39" y="490" on="1"/>
        <pt x="39" y="686" on="1"/>
        <pt x="217" y="686" on="1"/>
        <pt x="217" y="651" on="1"/>
        <pt x="75" y="651" on="1"/>
        <pt x="75" y="526" on="1"/>
        <pt x="100" y="531" on="0"/>
        <pt x="138" y="531" on="1"/>
        <pt x="180" y="531" on="0"/>
        <pt x="223" y="507" on="0"/>
        <pt x="238" y="463" on="0"/>
        <pt x="238" y="424" on="1"/>
        <pt x="238" y="378" on="0"/>
        <pt x="219" y="327" on="0"/>
        <pt x="171" y="304" on="0"/>
        <pt x="125" y="304" on="1"/>
        <pt x="76" y="304" on="0"/>
        <pt x="36" y="312" on="1"/>
        <pt x="36" y="344" on="1"/>
      </contour>
    </TTGlyph>
    <TTGlyph name="five.tnum" xMin="81" yMin="-8" xMax="412" yMax="688">
      <contour>
        <pt x="167" y="34" on="0"/>
        <pt x="223" y="34" on="1"/>
        <pt x="283" y="34" on="0"/>
        <pt x="343" y="64" on="0"/>
        <pt x="366" y="133" on="0"/>
        <pt x="366" y="198" on="1"/>
        <pt x="366" y="269" on="0"/>
        <pt x="342" y="333" on="0"/>
        <pt x="279" y="355" on="0"/>
        <pt x="210" y="355" on="1"/>
        <pt x="166" y="355" on="0"/>
        <pt x="87" y="341" on="1"/>
        <pt x="87" y="688" on="1"/>
        <pt x="374" y="688" on="1"/>
        <pt x="374" y="646" on="1"/>
        <pt x="131" y="646" on="1"/>
        <pt x="131" y="387" on="1"/>
        <pt x="176" y="397" on="0"/>
        <pt x="242" y="397" on="1"/>
        <pt x="315" y="397" on="0"/>
        <pt x="388" y="356" on="0"/>
        <pt x="412" y="277" on="0"/>
        <pt x="412" y="206" on="1"/>
        <pt x="412" y="123" on="0"/>
        <pt x="381" y="33" on="0"/>
        <pt x="301" y="-8" on="0"/>
        <pt x="225" y="-8" on="1"/>
        <pt x="192" y="-8" on="0"/>
        <pt x="111" y="0" on="0"/>
        <pt x="81" y="7" on="1"/>
        <pt x="81" y="46" on="1"/>
      </contour>
    </TTGlyph>
    <TTGlyph name="fiveeighths" xMin="36" yMin="-4" xMax="648" yMax="688">
      <component glyphName="five.numr" x="0" y="0" flags="0x0"/>
      <component glyphName="fraction" x="267" y="0" flags="0x0"/>
      <component glyphName="eight.dnom" x="385" y="0" flags="0x0"/>
    </TTGlyph>
    <TTGlyph name="fl" xMin="23" yMin="0" xMax="381" yMax="743">
      <component glyphName="f" x="0" y="0" flags="0x0"/>
      <component glyphName="l" x="266" y="0" flags="0x0"/>
    </TTGlyph>
    <TTGlyph name="florin" xMin="-119" yMin="-190" xMax="319" yMax="743">
      <contour>
        <pt x="267" y="706" on="0"/>
        <pt x="223" y="685" on="0"/>
        <pt x="193" y="613" on="0"/>
        <pt x="176" y="531" on="1"/>
        <pt x="171" y="510" on="1"/>
        <pt x="269" y="510" on="1"/>
        <pt x="260" y="471" on="1"/>
        <pt x="162" y="471" on="1"/>
        <pt x="65" y="12" on="1"/>
        <pt x="45" y="-81" on="0"/>
        <pt x="-2" y="-167" on="0"/>
        <pt x="-62" y="-190" on="0"/>
        <pt x="-119" y="-190" on="1"/>
        <pt x="-111" y="-154" on="1"/>
        <pt x="-70" y="-154" on="0"/>
        <pt x="-27" y="-140" on="0"/>
        <pt x="-3" y="-100" on="0"/>
        <pt x="6" y="-59" on="1"/>
        <pt x="118" y="471" on="1"/>
        <pt x="40" y="471" on="1"/>
        <pt x="49" y="510" on="1"/>
        <pt x="127" y="510" on="1"/>
        <pt x="130" y="522" on="1"/>
        <pt x="151" y="624" on="0"/>
        <pt x="200" y="718" on="0"/>
        <pt x="262" y="743" on="0"/>
        <pt x="319" y="743" on="1"/>
        <pt x="310" y="706" on="1"/>
      </contour>
    </TTGlyph>
    <TTGlyph name="four" xMin="36" yMin="0" xMax="427" yMax="688">
      <contour>
        <pt x="304" y="173" on="1"/>
        <pt x="36" y="173" on="1"/>
        <pt x="36" y="211" on="1"/>
        <pt x="230" y="688" on="1"/>
        <pt x="278" y="688" on="1"/>
        <pt x="85" y="215" on="1"/>
        <pt x="305" y="215" on="1"/>
        <pt x="308" y="503" on="1"/>
        <pt x="349" y="503" on="1"/>
        <pt x="349" y="215" on="1"/>
        <pt x="427" y="215" on="1"/>
        <pt x="427" y="173" on="1"/>
        <pt x="349" y="173" on="1"/>
        <pt x="349" y="0" on="1"/>
        <pt x="304" y="0" on="1"/>
      </contour>
    </TTGlyph>
    <TTGlyph name="four.dnom" xMin="22" yMin="0" xMax="259" yMax="378">
      <contour>
        <pt x="177" y="90" on="1"/>
        <pt x="22" y="90" on="1"/>
        <pt x="22" y="120" on="1"/>
        <pt x="130" y="378" on="1"/>
        <pt x="170" y="378" on="1"/>
        <pt x="61" y="124" on="1"/>
        <pt x="177" y="124" on="1"/>
        <pt x="184" y="266" on="1"/>
        <pt x="215" y="266" on="1"/>
        <pt x="215" y="124" on="1"/>
        <pt x="259" y="124" on="1"/>
        <pt x="259" y="90" on="1"/>
        <pt x="215" y="90" on="1"/>
        <pt x="215" y="0" on="1"/>
        <pt x="177" y="0" on="1"/>
      </contour>
    </TTGlyph>
    <TTGlyph name="four.numr" xMin="22" yMin="308" xMax="259" yMax="686">
      <component glyphName="four.dnom" x="0" y="308" flags="0x4"/>
    </TTGlyph>
    <TTGlyph name="four.ss01" xMin="36" yMin="0" xMax="427" yMax="688">
      <contour>
        <pt x="427" y="215" on="1"/>
        <pt x="427" y="173" on="1"/>
        <pt x="349" y="173" on="1"/>
        <pt x="349" y="0" on="1"/>
        <pt x="304" y="0" on="1"/>
        <pt x="304" y="173" on="1"/>
        <pt x="36" y="173" on="1"/>
        <pt x="36" y="211" on="1"/>
        <pt x="299" y="688" on="1"/>
        <pt x="349" y="688" on="1"/>
        <pt x="349" y="215" on="1"/>
      </contour>
      <contour>
        <pt x="305" y="215" on="1"/>
        <pt x="305" y="608" on="1"/>
        <pt x="85" y="215" on="1"/>
      </contour>
    </TTGlyph>
    <TTGlyph name="four.tnum" xMin="41" yMin="0" xMax="445" yMax="688">
      <contour>
        <pt x="322" y="173" on="1"/>
        <pt x="41" y="173" on="1"/>
        <pt x="41" y="211" on="1"/>
        <pt x="248" y="688" on="1"/>
        <pt x="297" y="688" on="1"/>
        <pt x="91" y="215" on="1"/>
        <pt x="323" y="215" on="1"/>
        <pt x="326" y="503" on="1"/>
        <pt x="367" y="503" on="1"/>
        <pt x="367" y="215" on="1"/>
        <pt x="445" y="215" on="1"/>
        <pt x="445" y="173" on="1"/>
        <pt x="367" y="173" on="1"/>
        <pt x="367" y="0" on="1"/>
        <pt x="322" y="0" on="1"/>
      </contour>
    </TTGlyph>
    <TTGlyph name="fraction" xMin="-126" yMin="0" xMax="243" yMax="688">
      <contour>
        <pt x="204" y="688" on="1"/>
        <pt x="243" y="688" on="1"/>
        <pt x="-87" y="0" on="1"/>
        <pt x="-126" y="0" on="1"/>
      </contour>
    </TTGlyph>
    <TTGlyph name="g" xMin="53" yMin="-199" xMax="383" yMax="518">
      <contour>
        <pt x="131" y="-199" on="0"/>
        <pt x="66" y="-194" on="1"/>
        <pt x="66" y="-155" on="1"/>
        <pt x="128" y="-160" on="0"/>
        <pt x="195" y="-160" on="1"/>
        <pt x="260" y="-160" on="0"/>
        <pt x="320" y="-123" on="0"/>
        <pt x="339" y="-35" on="0"/>
        <pt x="339" y="58" on="1"/>
        <pt x="339" y="68" on="1"/>
        <pt x="335" y="68" on="1"/>
        <pt x="322" y="28" on="0"/>
        <pt x="260" y="-7" on="0"/>
        <pt x="207" y="-7" on="1"/>
        <pt x="141" y="-7" on="0"/>
        <pt x="77" y="36" on="0"/>
        <pt x="53" y="145" on="0"/>
        <pt x="53" y="255" on="1"/>
        <pt x="53" y="366" on="0"/>
        <pt x="77" y="475" on="0"/>
        <pt x="141" y="518" on="0"/>
        <pt x="207" y="518" on="1"/>
        <pt x="257" y="518" on="0"/>
        <pt x="325" y="484" on="0"/>
        <pt x="339" y="434" on="1"/>
        <pt x="343" y="434" on="1"/>
        <pt x="347" y="510" on="1"/>
        <pt x="383" y="510" on="1"/>
        <pt x="383" y="77" on="1"/>
        <pt x="383" y="-35" on="0"/>
        <pt x="358" y="-148" on="0"/>
        <pt x="281" y="-199" on="0"/>
        <pt x="201" y="-199" on="1"/>
      </contour>
      <contour>
        <pt x="265" y="33" on="0"/>
        <pt x="318" y="69" on="0"/>
        <pt x="328" y="109" on="1"/>
        <pt x="339" y="157" on="0"/>
        <pt x="339" y="255" on="1"/>
        <pt x="339" y="306" on="0"/>
        <pt x="336" y="371" on="0"/>
        <pt x="330" y="395" on="1"/>
        <pt x="319" y="440" on="0"/>
        <pt x="265" y="478" on="0"/>
        <pt x="219" y="478" on="1"/>
        <pt x="163" y="478" on="0"/>
        <pt x="114" y="447" on="0"/>
        <pt x="97" y="358" on="0"/>
        <pt x="97" y="255" on="1"/>
        <pt x="97" y="153" on="0"/>
        <pt x="114" y="63" on="0"/>
        <pt x="163" y="33" on="0"/>
        <pt x="219" y="33" on="1"/>
      </contour>
    </TTGlyph>
    <TTGlyph name="g_tilde.loclGUA" xMin="53" yMin="-199" xMax="383" yMax="743">
      <component glyphName="g" x="0" y="0" flags="0x0"/>
      <component glyphName="tildecomb" x="368" y="0" flags="0x0"/>
    </TTGlyph>
    <TTGlyph name="gbreve" xMin="53" yMin="-199" xMax="383" yMax="743">
      <component glyphName="g" x="0" y="0" flags="0x0"/>
      <component glyphName="uni0306" x="339" y="0" flags="0x0"/>
    </TTGlyph>
    <TTGlyph name="gcaron" xMin="53" yMin="-199" xMax="383" yMax="743">
      <component glyphName="g" x="0" y="0" flags="0x0"/>
      <component glyphName="uni030C" x="340" y="0" flags="0x0"/>
    </TTGlyph>
    <TTGlyph name="gcircumflex" xMin="53" yMin="-199" xMax="383" yMax="743">
      <component glyphName="g" x="0" y="0" flags="0x0"/>
      <component glyphName="uni0302" x="340" y="0" flags="0x0"/>
    </TTGlyph>
    <TTGlyph name="gcommaaccent" xMin="53" yMin="-199" xMax="383" yMax="779">
      <component glyphName="g" x="0" y="0" flags="0x0"/>
      <component glyphName="uni0312" x="570" y="0" flags="0x0"/>
    </TTGlyph>
    <TTGlyph name="gdotaccent" xMin="53" yMin="-199" xMax="383" yMax="730">
      <component glyphName="g" x="0" y="0" flags="0x0"/>
      <component glyphName="uni0307" x="270" y="0" flags="0x0"/>
    </TTGlyph>
    <TTGlyph name="germandbls" xMin="71" yMin="0" xMax="413" yMax="750">
      <contour>
        <pt x="196" y="0" on="1"/>
        <pt x="196" y="39" on="1"/>
        <pt x="240" y="39" on="1"/>
        <pt x="301" y="39" on="0"/>
        <pt x="351" y="64" on="0"/>
        <pt x="368" y="143" on="0"/>
        <pt x="368" y="237" on="1"/>
        <pt x="368" y="311" on="0"/>
        <pt x="347" y="389" on="0"/>
        <pt x="298" y="421" on="0"/>
        <pt x="251" y="421" on="1"/>
        <pt x="223" y="421" on="1"/>
        <pt x="223" y="460" on="1"/>
        <pt x="251" y="460" on="1"/>
        <pt x="312" y="460" on="0"/>
        <pt x="362" y="517" on="0"/>
        <pt x="362" y="584" on="1"/>
        <pt x="362" y="656" on="0"/>
        <pt x="308" y="711" on="0"/>
        <pt x="238" y="711" on="1"/>
        <pt x="192" y="711" on="0"/>
        <pt x="139" y="683" on="0"/>
        <pt x="114" y="616" on="0"/>
        <pt x="114" y="555" on="1"/>
        <pt x="114" y="0" on="1"/>
        <pt x="71" y="0" on="1"/>
        <pt x="71" y="552" on="1"/>
        <pt x="71" y="626" on="0"/>
        <pt x="105" y="712" on="0"/>
        <pt x="179" y="750" on="0"/>
        <pt x="241" y="750" on="1"/>
        <pt x="331" y="750" on="0"/>
        <pt x="406" y="676" on="0"/>
        <pt x="406" y="584" on="1"/>
        <pt x="406" y="519" on="0"/>
        <pt x="363" y="455" on="0"/>
        <pt x="314" y="446" on="1"/>
        <pt x="314" y="442" on="1"/>
        <pt x="365" y="431" on="0"/>
        <pt x="413" y="341" on="0"/>
        <pt x="413" y="245" on="1"/>
        <pt x="413" y="147" on="0"/>
        <pt x="390" y="45" on="0"/>
        <pt x="322" y="0" on="0"/>
        <pt x="254" y="0" on="1"/>
      </contour>
    </TTGlyph>
    <TTGlyph name="grave" xMin="7" yMin="604" xMax="113" yMax="743">
      <contour>
        <pt x="7" y="738" on="1"/>
        <pt x="7" y="743" on="1"/>
        <pt x="57" y="743" on="1"/>
        <pt x="113" y="609" on="1"/>
        <pt x="113" y="604" on="1"/>
        <pt x="82" y="604" on="1"/>
      </contour>
    </TTGlyph>
    <TTGlyph name="gravecomb" xMin="-113" yMin="604" xMax="-7" yMax="743">
      <contour>
        <pt x="-113" y="738" on="1"/>
        <pt x="-113" y="743" on="1"/>
        <pt x="-63" y="743" on="1"/>
        <pt x="-7" y="609" on="1"/>
        <pt x="-7" y="604" on="1"/>
        <pt x="-38" y="604" on="1"/>
      </contour>
    </TTGlyph>
    <TTGlyph name="gravecomb.case" xMin="-113" yMin="749" xMax="-7" yMax="888">
      <contour>
        <pt x="-113" y="883" on="1"/>
        <pt x="-113" y="888" on="1"/>
        <pt x="-63" y="888" on="1"/>
        <pt x="-7" y="754" on="1"/>
        <pt x="-7" y="749" on="1"/>
        <pt x="-38" y="749" on="1"/>
      </contour>
    </TTGlyph>
    <TTGlyph name="greater" xMin="63" yMin="66" xMax="423" yMax="440">
      <contour>
        <pt x="63" y="110" on="1"/>
        <pt x="383" y="253" on="1"/>
        <pt x="63" y="396" on="1"/>
        <pt x="63" y="440" on="1"/>
        <pt x="423" y="279" on="1"/>
        <pt x="423" y="227" on="1"/>
        <pt x="63" y="66" on="1"/>
      </contour>
    </TTGlyph>
    <TTGlyph name="greaterequal" xMin="63" yMin="30" xMax="423" yMax="561">
      <contour>
        <pt x="63" y="230" on="1"/>
        <pt x="383" y="374" on="1"/>
        <pt x="63" y="517" on="1"/>
        <pt x="63" y="561" on="1"/>
        <pt x="423" y="400" on="1"/>
        <pt x="423" y="348" on="1"/>
        <pt x="63" y="187" on="1"/>
      </contour>
      <contour>
        <pt x="64" y="69" on="1"/>
        <pt x="423" y="69" on="1"/>
        <pt x="423" y="30" on="1"/>
        <pt x="64" y="30" on="1"/>
      </contour>
    </TTGlyph>
    <TTGlyph name="guillemotleft" xMin="35" yMin="100" xMax="290" yMax="510">
      <contour>
        <pt x="35" y="304" on="1"/>
        <pt x="133" y="510" on="1"/>
        <pt x="169" y="510" on="1"/>
        <pt x="83" y="304" on="1"/>
        <pt x="169" y="100" on="1"/>
        <pt x="133" y="100" on="1"/>
      </contour>
      <contour>
        <pt x="156" y="304" on="1"/>
        <pt x="255" y="510" on="1"/>
        <pt x="290" y="510" on="1"/>
        <pt x="205" y="304" on="1"/>
        <pt x="290" y="100" on="1"/>
        <pt x="255" y="100" on="1"/>
      </contour>
    </TTGlyph>
    <TTGlyph name="guillemotright" xMin="58" yMin="100" xMax="313" yMax="510">
      <contour>
        <pt x="143" y="304" on="1"/>
        <pt x="58" y="510" on="1"/>
        <pt x="93" y="510" on="1"/>
        <pt x="192" y="304" on="1"/>
        <pt x="93" y="100" on="1"/>
        <pt x="58" y="100" on="1"/>
      </contour>
      <contour>
        <pt x="265" y="304" on="1"/>
        <pt x="179" y="510" on="1"/>
        <pt x="215" y="510" on="1"/>
        <pt x="313" y="304" on="1"/>
        <pt x="215" y="100" on="1"/>
        <pt x="179" y="100" on="1"/>
      </contour>
    </TTGlyph>
    <TTGlyph name="guilsinglleft" xMin="35" yMin="100" xMax="169" yMax="510">
      <contour>
        <pt x="35" y="304" on="1"/>
        <pt x="133" y="510" on="1"/>
        <pt x="169" y="510" on="1"/>
        <pt x="83" y="304" on="1"/>
        <pt x="169" y="100" on="1"/>
        <pt x="133" y="100" on="1"/>
      </contour>
    </TTGlyph>
    <TTGlyph name="guilsinglright" xMin="58" yMin="100" xMax="192" yMax="510">
      <contour>
        <pt x="143" y="304" on="1"/>
        <pt x="58" y="510" on="1"/>
        <pt x="93" y="510" on="1"/>
        <pt x="192" y="304" on="1"/>
        <pt x="93" y="100" on="1"/>
        <pt x="58" y="100" on="1"/>
      </contour>
    </TTGlyph>
    <TTGlyph name="h" xMin="71" yMin="0" xMax="389" yMax="743">
      <contour>
        <pt x="345" y="310" on="1"/>
        <pt x="345" y="386" on="0"/>
        <pt x="329" y="454" on="0"/>
        <pt x="284" y="478" on="0"/>
        <pt x="235" y="478" on="1"/>
        <pt x="178" y="478" on="0"/>
        <pt x="127" y="425" on="0"/>
        <pt x="115" y="342" on="0"/>
        <pt x="115" y="264" on="1"/>
        <pt x="115" y="0" on="1"/>
        <pt x="71" y="0" on="1"/>
        <pt x="71" y="743" on="1"/>
        <pt x="115" y="743" on="1"/>
        <pt x="115" y="446" on="1"/>
        <pt x="119" y="446" on="1"/>
        <pt x="145" y="518" on="0"/>
        <pt x="249" y="518" on="1"/>
        <pt x="309" y="518" on="0"/>
        <pt x="369" y="479" on="0"/>
        <pt x="389" y="398" on="0"/>
        <pt x="389" y="321" on="1"/>
        <pt x="389" y="0" on="1"/>
        <pt x="345" y="0" on="1"/>
      </contour>
    </TTGlyph>
    <TTGlyph name="hbar" xMin="13" yMin="0" xMax="389" yMax="743">
      <contour>
        <pt x="309" y="518" on="0"/>
        <pt x="369" y="479" on="0"/>
        <pt x="389" y="398" on="0"/>
        <pt x="389" y="321" on="1"/>
        <pt x="389" y="0" on="1"/>
        <pt x="345" y="0" on="1"/>
        <pt x="345" y="310" on="1"/>
        <pt x="345" y="386" on="0"/>
        <pt x="329" y="454" on="0"/>
        <pt x="284" y="478" on="0"/>
        <pt x="235" y="478" on="1"/>
        <pt x="178" y="478" on="0"/>
        <pt x="127" y="425" on="0"/>
        <pt x="115" y="342" on="0"/>
        <pt x="115" y="264" on="1"/>
        <pt x="115" y="0" on="1"/>
        <pt x="71" y="0" on="1"/>
        <pt x="71" y="649" on="1"/>
        <pt x="13" y="649" on="1"/>
        <pt x="13" y="688" on="1"/>
        <pt x="71" y="688" on="1"/>
        <pt x="71" y="743" on="1"/>
        <pt x="115" y="743" on="1"/>
        <pt x="115" y="688" on="1"/>
        <pt x="239" y="688" on="1"/>
        <pt x="239" y="649" on="1"/>
        <pt x="115" y="649" on="1"/>
        <pt x="115" y="446" on="1"/>
        <pt x="119" y="446" on="1"/>
        <pt x="145" y="518" on="0"/>
        <pt x="249" y="518" on="1"/>
      </contour>
    </TTGlyph>
    <TTGlyph name="hcircumflex" xMin="-13" yMin="0" xMax="389" yMax="921">
      <component glyphName="h" x="0" y="0" flags="0x0"/>
      <component glyphName="uni0302" x="206" y="178" flags="0x4"/>
    </TTGlyph>
    <TTGlyph name="hookabovecomb" xMin="-203" yMin="609" xMax="-14" yMax="782">
      <contour>
        <pt x="-148" y="619" on="1"/>
        <pt x="-148" y="640" on="0"/>
        <pt x="-131" y="657" on="0"/>
        <pt x="-110" y="664" on="1"/>
        <pt x="-94" y="668" on="1"/>
        <pt x="-68" y="676" on="0"/>
        <pt x="-50" y="692" on="0"/>
        <pt x="-50" y="712" on="1"/>
        <pt x="-50" y="729" on="0"/>
        <pt x="-60" y="744" on="0"/>
        <pt x="-89" y="750" on="0"/>
        <pt x="-121" y="750" on="1"/>
        <pt x="-151" y="750" on="0"/>
        <pt x="-203" y="745" on="1"/>
        <pt x="-203" y="776" on="1"/>
        <pt x="-145" y="782" on="0"/>
        <pt x="-115" y="782" on="1"/>
        <pt x="-56" y="782" on="0"/>
        <pt x="-14" y="754" on="0"/>
        <pt x="-14" y="717" on="1"/>
        <pt x="-14" y="688" on="0"/>
        <pt x="-30" y="659" on="0"/>
        <pt x="-59" y="649" on="1"/>
        <pt x="-74" y="644" on="1"/>
        <pt x="-95" y="638" on="0"/>
        <pt x="-110" y="630" on="0"/>
        <pt x="-114" y="621" on="0"/>
        <pt x="-114" y="609" on="1"/>
        <pt x="-148" y="609" on="1"/>
      </contour>
    </TTGlyph>
    <TTGlyph name="hookabovecomb.case" xMin="-203" yMin="737" xMax="-14" yMax="910">
      <contour>
        <pt x="-148" y="747" on="1"/>
        <pt x="-148" y="768" on="0"/>
        <pt x="-131" y="785" on="0"/>
        <pt x="-110" y="792" on="1"/>
        <pt x="-94" y="796" on="1"/>
        <pt x="-68" y="804" on="0"/>
        <pt x="-50" y="820" on="0"/>
        <pt x="-50" y="840" on="1"/>
        <pt x="-50" y="857" on="0"/>
        <pt x="-60" y="872" on="0"/>
        <pt x="-89" y="878" on="0"/>
        <pt x="-121" y="878" on="1"/>
        <pt x="-151" y="878" on="0"/>
        <pt x="-203" y="873" on="1"/>
        <pt x="-203" y="904" on="1"/>
        <pt x="-145" y="910" on="0"/>
        <pt x="-115" y="910" on="1"/>
        <pt x="-56" y="910" on="0"/>
        <pt x="-14" y="882" on="0"/>
        <pt x="-14" y="845" on="1"/>
        <pt x="-14" y="816" on="0"/>
        <pt x="-30" y="787" on="0"/>
        <pt x="-59" y="777" on="1"/>
        <pt x="-74" y="772" on="1"/>
        <pt x="-94" y="766" on="0"/>
        <pt x="-110" y="758" on="0"/>
        <pt x="-114" y="748" on="0"/>
        <pt x="-114" y="737" on="1"/>
        <pt x="-148" y="737" on="1"/>
      </contour>
    </TTGlyph>
    <TTGlyph name="house" xMin="35" yMin="0" xMax="486" yMax="696">
      <contour>
        <pt x="35" y="376" on="1"/>
        <pt x="241" y="696" on="1"/>
        <pt x="280" y="696" on="1"/>
        <pt x="486" y="376" on="1"/>
        <pt x="486" y="0" on="1"/>
        <pt x="36" y="0" on="1"/>
      </contour>
      <contour>
        <pt x="443" y="38" on="1"/>
        <pt x="443" y="367" on="1"/>
        <pt x="261" y="650" on="1"/>
        <pt x="78" y="367" on="1"/>
        <pt x="78" y="38" on="1"/>
      </contour>
    </TTGlyph>
    <TTGlyph name="hungarumlaut" xMin="21" yMin="609" xMax="255" yMax="734">
      <contour>
        <pt x="21" y="614" on="1"/>
        <pt x="76" y="734" on="1"/>
        <pt x="124" y="734" on="1"/>
        <pt x="124" y="729" on="1"/>
        <pt x="51" y="609" on="1"/>
        <pt x="21" y="609" on="1"/>
      </contour>
      <contour>
        <pt x="152" y="614" on="1"/>
        <pt x="207" y="734" on="1"/>
        <pt x="255" y="734" on="1"/>
        <pt x="255" y="729" on="1"/>
        <pt x="182" y="609" on="1"/>
        <pt x="152" y="609" on="1"/>
      </contour>
    </TTGlyph>
    <TTGlyph name="hyphen" xMin="60" yMin="264" xMax="248" yMax="308">
      <contour>
        <pt x="60" y="308" on="1"/>
        <pt x="248" y="308" on="1"/>
        <pt x="248" y="264" on="1"/>
        <pt x="60" y="264" on="1"/>
      </contour>
    </TTGlyph>
    <TTGlyph name="i" xMin="68" yMin="0" xMax="117" yMax="743">
      <contour>
        <pt x="68" y="743" on="1"/>
        <pt x="117" y="743" on="1"/>
        <pt x="117" y="676" on="1"/>
        <pt x="68" y="676" on="1"/>
      </contour>
      <contour>
        <pt x="71" y="510" on="1"/>
        <pt x="115" y="510" on="1"/>
        <pt x="115" y="0" on="1"/>
        <pt x="71" y="0" on="1"/>
      </contour>
    </TTGlyph>
    <TTGlyph name="i.loclTRK" xMin="68" yMin="0" xMax="116" yMax="730">
      <component glyphName="dotlessi" x="0" y="0" flags="0x0"/>
      <component glyphName="uni0307" x="136" y="0" flags="0x0"/>
    </TTGlyph>
    <TTGlyph name="iacute" xMin="70" yMin="0" xMax="176" yMax="743">
      <component glyphName="dotlessi" x="0" y="0" flags="0x0"/>
      <component glyphName="acute" x="63" y="0" flags="0x0"/>
    </TTGlyph>
    <TTGlyph name="iacute_j.loclNLD" xMin="71" yMin="-193" xMax="365" yMax="743">
      <component glyphName="dotlessi" x="0" y="0" flags="0x0"/>
      <component glyphName="acutecomb" x="187" y="0" flags="0x0"/>
      <component glyphName="uni0237" x="185" y="0" flags="0x0"/>
      <component glyphName="acutecomb" x="372" y="0" flags="0x0"/>
    </TTGlyph>
    <TTGlyph name="ibreve" xMin="-13" yMin="0" xMax="198" yMax="743">
      <component glyphName="dotlessi" x="0" y="0" flags="0x0"/>
      <component glyphName="uni0306" x="205" y="0" flags="0x0"/>
    </TTGlyph>
    <TTGlyph name="icircumflex" xMin="-13" yMin="0" xMax="199" yMax="743">
      <component glyphName="dotlessi" x="0" y="0" flags="0x0"/>
      <component glyphName="circumflex" x="-20" y="0" flags="0x0"/>
    </TTGlyph>
    <TTGlyph name="idieresis" xMin="-19" yMin="0" xMax="204" yMax="729">
      <component glyphName="dotlessi" x="0" y="0" flags="0x0"/>
      <component glyphName="dieresis" x="-42" y="-1" flags="0x4"/>
    </TTGlyph>
    <TTGlyph name="igrave" xMin="9" yMin="0" xMax="115" yMax="743">
      <component glyphName="dotlessi" x="0" y="0" flags="0x0"/>
      <component glyphName="grave" x="2" y="0" flags="0x0"/>
    </TTGlyph>
    <TTGlyph name="ij" xMin="68" yMin="-193" xMax="302" yMax="743">
      <component glyphName="i" x="0" y="0" flags="0x0"/>
      <component glyphName="j" x="185" y="0" flags="0x0"/>
    </TTGlyph>
    <TTGlyph name="imacron" xMin="-2" yMin="0" xMax="186" yMax="743">
      <component glyphName="dotlessi" x="0" y="0" flags="0x0"/>
      <component glyphName="uni0304" x="246" y="0" flags="0x0"/>
    </TTGlyph>
    <TTGlyph name="infinity" xMin="56" yMin="55" xMax="738" yMax="457">
      <contour>
        <pt x="126" y="55" on="0"/>
        <pt x="56" y="153" on="0"/>
        <pt x="56" y="256" on="1"/>
        <pt x="56" y="358" on="0"/>
        <pt x="126" y="457" on="0"/>
        <pt x="216" y="457" on="1"/>
        <pt x="291" y="457" on="0"/>
        <pt x="372" y="381" on="0"/>
        <pt x="397" y="314" on="1"/>
        <pt x="422" y="381" on="0"/>
        <pt x="503" y="457" on="0"/>
        <pt x="579" y="457" on="1"/>
        <pt x="669" y="457" on="0"/>
        <pt x="738" y="358" on="0"/>
        <pt x="738" y="256" on="1"/>
        <pt x="738" y="153" on="0"/>
        <pt x="669" y="55" on="0"/>
        <pt x="579" y="55" on="1"/>
        <pt x="503" y="55" on="0"/>
        <pt x="422" y="130" on="0"/>
        <pt x="397" y="198" on="1"/>
        <pt x="372" y="130" on="0"/>
        <pt x="292" y="55" on="0"/>
        <pt x="216" y="55" on="1"/>
      </contour>
      <contour>
        <pt x="286" y="94" on="0"/>
        <pt x="355" y="180" on="0"/>
        <pt x="375" y="256" on="1"/>
        <pt x="355" y="332" on="0"/>
        <pt x="286" y="418" on="0"/>
        <pt x="217" y="418" on="1"/>
        <pt x="148" y="418" on="0"/>
        <pt x="97" y="339" on="0"/>
        <pt x="97" y="256" on="1"/>
        <pt x="97" y="173" on="0"/>
        <pt x="148" y="94" on="0"/>
        <pt x="217" y="94" on="1"/>
      </contour>
      <contour>
        <pt x="646" y="94" on="0"/>
        <pt x="697" y="173" on="0"/>
        <pt x="697" y="256" on="1"/>
        <pt x="697" y="339" on="0"/>
        <pt x="646" y="418" on="0"/>
        <pt x="578" y="418" on="1"/>
        <pt x="509" y="418" on="0"/>
        <pt x="440" y="332" on="0"/>
        <pt x="420" y="256" on="1"/>
        <pt x="440" y="180" on="0"/>
        <pt x="509" y="94" on="0"/>
        <pt x="578" y="94" on="1"/>
      </contour>
    </TTGlyph>
    <TTGlyph name="integral" xMin="62" yMin="-190" xMax="271" yMax="696">
      <contour>
        <pt x="62" y="-153" on="1"/>
        <pt x="103" y="-153" on="0"/>
        <pt x="146" y="-144" on="0"/>
        <pt x="164" y="-120" on="0"/>
        <pt x="164" y="-98" on="1"/>
        <pt x="164" y="-88" on="0"/>
        <pt x="160" y="-19" on="1"/>
        <pt x="125" y="566" on="1"/>
        <pt x="124" y="601" on="1"/>
        <pt x="124" y="643" on="0"/>
        <pt x="158" y="684" on="0"/>
        <pt x="218" y="696" on="0"/>
        <pt x="271" y="696" on="1"/>
        <pt x="271" y="659" on="1"/>
        <pt x="230" y="659" on="0"/>
        <pt x="187" y="650" on="0"/>
        <pt x="169" y="626" on="0"/>
        <pt x="169" y="603" on="1"/>
        <pt x="170" y="569" on="1"/>
        <pt x="205" y="-16" on="1"/>
        <pt x="209" y="-83" on="0"/>
        <pt x="209" y="-95" on="1"/>
        <pt x="209" y="-138" on="0"/>
        <pt x="175" y="-179" on="0"/>
        <pt x="115" y="-190" on="0"/>
        <pt x="62" y="-190" on="1"/>
      </contour>
    </TTGlyph>
    <TTGlyph name="iogonek" xMin="11" yMin="-196" xMax="117" yMax="730">
      <contour>
        <pt x="117" y="730" on="1"/>
        <pt x="117" y="665" on="1"/>
        <pt x="68" y="665" on="1"/>
        <pt x="68" y="730" on="1"/>
      </contour>
      <contour>
        <pt x="52" y="-160" on="0"/>
        <pt x="99" y="-160" on="1"/>
        <pt x="116" y="-159" on="1"/>
        <pt x="116" y="-195" on="1"/>
        <pt x="105" y="-196" on="0"/>
        <pt x="90" y="-196" on="1"/>
        <pt x="49" y="-196" on="0"/>
        <pt x="11" y="-156" on="0"/>
        <pt x="11" y="-123" on="1"/>
        <pt x="11" y="-94" on="0"/>
        <pt x="45" y="-27" on="0"/>
        <pt x="72" y="0" on="1"/>
        <pt x="71" y="0" on="1"/>
        <pt x="71" y="510" on="1"/>
        <pt x="115" y="510" on="1"/>
        <pt x="115" y="0" on="1"/>
        <pt x="93" y="-18" on="0"/>
        <pt x="52" y="-88" on="0"/>
        <pt x="52" y="-115" on="1"/>
      </contour>
    </TTGlyph>
    <TTGlyph name="itilde" xMin="-42" yMin="0" xMax="228" yMax="743">
      <component glyphName="dotlessi" x="0" y="0" flags="0x0"/>
      <component glyphName="tildecomb" x="234" y="0" flags="0x0"/>
    </TTGlyph>
    <TTGlyph name="j" xMin="-3" yMin="-193" xMax="117" yMax="743">
      <contour>
        <pt x="68" y="743" on="1"/>
        <pt x="117" y="743" on="1"/>
        <pt x="117" y="676" on="1"/>
        <pt x="68" y="676" on="1"/>
      </contour>
      <contour>
        <pt x="-3" y="-156" on="1"/>
        <pt x="31" y="-156" on="0"/>
        <pt x="62" y="-146" on="0"/>
        <pt x="71" y="-124" on="0"/>
        <pt x="71" y="-100" on="1"/>
        <pt x="71" y="510" on="1"/>
        <pt x="115" y="510" on="1"/>
        <pt x="115" y="-87" on="1"/>
        <pt x="115" y="-136" on="0"/>
        <pt x="91" y="-181" on="0"/>
        <pt x="44" y="-193" on="0"/>
        <pt x="-3" y="-193" on="1"/>
      </contour>
    </TTGlyph>
    <TTGlyph name="jcircumflex" xMin="-13" yMin="-193" xMax="199" yMax="743">
      <component glyphName="uni0237" x="0" y="0" flags="0x0"/>
      <component glyphName="uni0302" x="206" y="0" flags="0x0"/>
    </TTGlyph>
    <TTGlyph name="k" xMin="71" yMin="0" xMax="375" yMax="743">
      <contour>
        <pt x="179" y="239" on="1"/>
        <pt x="115" y="239" on="1"/>
        <pt x="115" y="0" on="1"/>
        <pt x="71" y="0" on="1"/>
        <pt x="71" y="743" on="1"/>
        <pt x="115" y="743" on="1"/>
        <pt x="115" y="280" on="1"/>
        <pt x="179" y="280" on="1"/>
        <pt x="321" y="510" on="1"/>
        <pt x="371" y="510" on="1"/>
        <pt x="216" y="262" on="1"/>
        <pt x="375" y="0" on="1"/>
        <pt x="323" y="0" on="1"/>
      </contour>
    </TTGlyph>
    <TTGlyph name="kcommaaccent" xMin="71" yMin="-235" xMax="375" yMax="743">
      <component glyphName="k" x="0" y="0" flags="0x0"/>
      <component glyphName="uni0326" x="283" y="0" flags="0x0"/>
    </TTGlyph>
    <TTGlyph name="kgreenlandic" xMin="71" yMin="0" xMax="375" yMax="510">
      <contour>
        <pt x="179" y="239" on="1"/>
        <pt x="115" y="239" on="1"/>
        <pt x="115" y="0" on="1"/>
        <pt x="71" y="0" on="1"/>
        <pt x="71" y="510" on="1"/>
        <pt x="115" y="510" on="1"/>
        <pt x="115" y="280" on="1"/>
        <pt x="179" y="280" on="1"/>
        <pt x="321" y="510" on="1"/>
        <pt x="371" y="510" on="1"/>
        <pt x="216" y="262" on="1"/>
        <pt x="375" y="0" on="1"/>
        <pt x="323" y="0" on="1"/>
      </contour>
    </TTGlyph>
    <TTGlyph name="l" xMin="71" yMin="0" xMax="115" yMax="743">
      <contour>
        <pt x="71" y="743" on="1"/>
        <pt x="115" y="743" on="1"/>
        <pt x="115" y="0" on="1"/>
        <pt x="71" y="0" on="1"/>
      </contour>
    </TTGlyph>
    <TTGlyph name="lacute" xMin="71" yMin="0" xMax="180" yMax="921">
      <component glyphName="l" x="0" y="0" flags="0x0"/>
      <component glyphName="acutecomb" x="187" y="178" flags="0x4"/>
    </TTGlyph>
    <TTGlyph name="lcaron" xMin="71" yMin="0" xMax="211" yMax="743">
      <component glyphName="l" x="0" y="0" flags="0x0"/>
      <component glyphName="caron.loclCSY" x="116" y="0" flags="0x0"/>
    </TTGlyph>
    <TTGlyph name="lcommaaccent" xMin="54" yMin="-235" xMax="133" yMax="743">
      <component glyphName="l" x="0" y="0" flags="0x0"/>
      <component glyphName="uni0326" x="177" y="0" flags="0x0"/>
    </TTGlyph>
    <TTGlyph name="ldot" xMin="71" yMin="0" xMax="227" yMax="743">
      <component glyphName="l" x="0" y="0" flags="0x0"/>
      <component glyphName="periodcentered" x="115" y="0" flags="0x0"/>
    </TTGlyph>
    <TTGlyph name="leftOpenDialog" xMin="0" yMin="0" xMax="626" yMax="688">
      <contour>
        <pt x="60" y="628" on="1"/>
        <pt x="60" y="60" on="1"/>
        <pt x="626" y="60" on="1"/>
        <pt x="626" y="0" on="1"/>
        <pt x="0" y="0" on="1"/>
        <pt x="0" y="688" on="1"/>
        <pt x="626" y="688" on="1"/>
        <pt x="626" y="628" on="1"/>
      </contour>
    </TTGlyph>
</ttFont>
